<svg width="584" height="556" viewBox="0 0 584 556" fill="none" xmlns="http://www.w3.org/2000/svg">
<g clip-path="url(#clip0_596_413)">
<path d="M319.854 549.273L308.905 549.272L303.697 507.131L319.856 507.132L319.854 549.273Z" fill="#A0616A"/>
<path d="M282.342 549.025C282.001 549.598 281.822 551.447 281.822 552.113C281.822 554.161 283.485 555.821 285.538 555.821H319.444C320.844 555.821 321.979 554.689 321.979 553.292V551.883C321.979 551.883 323.657 547.649 320.203 542.431C320.203 542.431 315.911 546.517 309.498 540.117L307.607 536.698L293.917 546.689L286.328 547.621C284.668 547.825 283.196 547.59 282.342 549.025Z" fill="#2F2E41"/>
<path d="M270.798 549.273L259.85 549.272L254.641 507.131L270.8 507.132L270.798 549.273Z" fill="#A0616A"/>
<path d="M233.287 549.025C232.946 549.598 232.766 551.447 232.766 552.113C232.766 554.161 234.43 555.821 236.482 555.821H270.389C271.789 555.821 272.924 554.689 272.924 553.292V551.883C272.924 551.883 274.601 547.649 271.148 542.431C271.148 542.431 266.856 546.517 260.442 540.117L258.551 536.698L244.861 546.689L237.273 547.621C235.613 547.825 234.141 547.59 233.287 549.025Z" fill="#2F2E41"/>
<path d="M320.794 284.893L330.987 310.958L323.024 519.159H300.726L280.657 331.301L275.879 519.794L254.218 519.159L230.646 310.004L246.255 291.25L320.794 284.893Z" fill="#2F2E41"/>
<path d="M272.694 137.086L299.451 135.179L307.734 148.529L332.58 155.522L323.342 220.048L333.217 316.361C333.217 316.361 297.54 311.275 294.992 321.447C292.444 331.619 230.009 311.275 230.009 311.275L251.352 245.477L249.44 193.983L243.706 164.104L269.827 152.025L272.694 137.086Z" fill="#E6E6E6"/>
<path d="M260.589 156.158C260.589 156.158 239.267 155.84 236.39 164.74C233.513 173.64 223.957 235.306 223.957 235.306L216.63 262.324L249.44 246.113L242.432 235.323L265.367 191.441L260.589 156.158Z" fill="#E6E6E6"/>
<path d="M273.634 255.013C277.159 255.017 280.437 252.989 281.807 249.748C282.844 247.297 282.746 244.945 281.971 242.929C282.22 242.826 282.468 242.718 282.723 242.627C282.348 242.475 281.983 242.304 281.618 242.132C280.348 239.606 277.913 237.773 275.013 237.328C271.421 233.488 269.213 228.343 269.19 222.681C269.143 211.011 278.63 201.263 290.321 200.983C290.413 200.981 290.505 200.979 290.597 200.978C295.832 200.918 300.582 203.84 303.234 208.345C304.782 210.973 307.642 212.737 310.919 212.737C313.428 212.737 315.691 211.703 317.309 210.038C320.833 206.411 325.246 203.712 330.241 202.884C333.521 202.34 336.916 202.135 340.389 202.307C364.165 203.487 384.621 224.514 385.129 248.264C385.694 274.716 364.375 296.336 337.995 296.336C324.269 296.336 311.919 290.478 303.306 281.135C299.482 276.986 294.123 274.663 288.475 274.72C288.418 274.721 288.36 274.721 288.303 274.721C279.154 274.721 271.738 267.321 271.738 258.192C271.738 257.686 271.763 257.186 271.811 256.692C271.899 255.769 272.704 255.012 273.634 255.013Z" fill="#AA7565"/>
<path d="M581.764 431.04C580.607 429.093 575.601 431.178 574.68 429.41C573.763 427.65 578.415 424.967 581.072 418.838C581.551 417.733 584.571 410.768 582.336 408.619C578.098 404.545 558.706 421.356 551.92 415.855C550.43 414.647 549.39 412.237 544.882 408.324C543.089 406.768 542.005 406.065 540.955 406.326C539.466 406.697 539.348 408.686 537.752 412.596C535.357 418.46 533.941 418.106 532.546 422.784C531.51 426.257 531.747 428.276 530.528 428.67C528.803 429.226 527.216 425.543 525.03 425.872C522.8 426.209 521.451 430.498 521.025 433.709C520.226 439.736 522.444 443.712 523.673 447.894C525.009 452.438 525.802 459.349 522.717 469.132L492.183 554.979C498.924 537.364 518.442 489.074 526.644 471.13C529.012 465.949 531.626 460.695 536.994 458.621C542.162 456.625 549.259 457.817 558.308 455.641C559.365 455.387 562.297 454.643 562.666 452.922C562.972 451.499 561.247 450.705 561.512 449.372C561.867 447.584 565.259 447.562 569.428 445.5C572.367 444.045 574.198 442.316 575.773 440.828C576.248 440.38 583.305 433.632 581.764 431.04Z" fill="#F2F2F2"/>
<path d="M461.633 476.234C460.341 476.239 459.922 479.292 458.787 479.233C457.656 479.174 457.679 476.122 455.431 473.052C455.026 472.499 452.472 469.01 450.77 469.485C447.543 470.385 450.216 484.733 445.553 486.469C444.529 486.85 443.043 486.664 439.818 487.743C438.535 488.172 437.876 488.5 437.702 489.09C437.455 489.926 438.399 490.558 439.862 492.468C442.055 495.332 441.472 495.924 443.371 497.957C444.78 499.466 445.842 499.933 445.683 500.643C445.46 501.649 443.19 501.363 442.721 502.529C442.243 503.718 443.964 505.616 445.421 506.751C448.154 508.882 450.75 508.943 453.161 509.547C455.782 510.204 459.409 511.81 463.331 516.143L496.746 555.868C490.026 547.484 471.907 523.991 465.447 514.797C463.582 512.142 461.752 509.346 462.281 506.119C462.79 503.011 465.424 499.879 466.965 494.82C467.145 494.229 467.625 492.578 466.885 491.901C466.273 491.341 465.385 491.956 464.806 491.442C464.029 490.752 464.997 489.084 465.185 486.448C465.318 484.589 464.996 483.193 464.718 481.992C464.635 481.631 463.352 476.227 461.633 476.234Z" fill="#F2F2F2"/>
<path d="M487.4 482.006L486.622 475.074L486.978 474.548C488.623 472.118 489.462 469.745 489.472 467.493C489.473 467.134 489.457 466.776 489.44 466.411C489.373 464.965 489.289 463.168 490.228 461.073C490.755 459.905 492.234 457.2 494.458 457.535C495.057 457.618 495.509 457.893 495.853 458.214C495.904 458.134 495.956 458.054 496.011 457.967C496.704 456.912 497.252 456.46 497.78 456.025C498.186 455.69 498.605 455.346 499.263 454.529C499.551 454.171 499.776 453.856 499.966 453.592C500.541 452.792 501.292 451.838 502.617 451.855C504.033 451.922 504.774 453.09 505.265 453.863C506.143 455.242 506.54 456.236 506.803 456.895C506.899 457.136 507.008 457.408 507.063 457.491C507.519 458.161 511.228 457.535 512.625 457.307C515.763 456.785 518.478 456.333 519.597 458.308C520.398 459.72 519.803 461.588 517.774 464.008C517.141 464.761 516.469 465.334 515.872 465.782C516.366 466.077 516.809 466.529 516.989 467.238C517.411 468.918 515.964 470.602 512.688 472.249C511.875 472.66 510.78 473.209 509.245 473.474C508.522 473.598 507.872 473.628 507.315 473.645C507.303 473.966 507.228 474.314 507.031 474.672C506.456 475.726 505.259 476.229 503.454 476.108C501.468 476.004 499.833 475.626 498.391 475.295C497.131 475.007 496.046 474.763 495.194 474.819C493.614 474.947 492.397 476.208 490.968 477.845L487.4 482.006Z" fill="#F2F2F2"/>
<path d="M491.01 440.733L484.488 443.242L483.889 443.032C481.116 442.061 478.603 441.853 476.416 442.415C476.069 442.504 475.726 442.611 475.377 442.72C473.992 443.151 472.271 443.688 470.001 443.313C468.736 443.101 465.739 442.359 465.499 440.128C465.428 439.529 465.579 439.022 465.804 438.609C465.713 438.58 465.622 438.551 465.524 438.519C464.326 438.118 463.749 437.703 463.193 437.304C462.766 436.997 462.325 436.68 461.367 436.252C460.946 436.065 460.584 435.928 460.28 435.812C459.358 435.459 458.243 434.976 457.923 433.693C457.629 432.31 458.574 431.298 459.198 430.627C460.313 429.431 461.175 428.795 461.748 428.374C461.957 428.22 462.192 428.046 462.259 427.972C462.793 427.362 461.245 423.941 460.67 422.65C459.368 419.754 458.242 417.248 459.872 415.667C461.038 414.535 462.999 414.636 465.86 415.981C466.75 416.4 467.476 416.904 468.062 417.367C468.222 416.814 468.548 416.272 469.19 415.919C470.712 415.085 472.711 416.055 475.138 418.799C475.743 419.48 476.553 420.397 477.199 421.812C477.502 422.478 477.697 423.098 477.854 423.632C478.169 423.561 478.525 423.546 478.922 423.645C480.09 423.932 480.88 424.961 481.221 426.733C481.624 428.676 481.673 430.351 481.717 431.827C481.758 433.116 481.796 434.225 482.067 435.033C482.591 436.526 484.123 437.381 486.072 438.345L491.01 440.733Z" fill="#F2F2F2"/>
<path d="M487.4 420.311L486.622 413.379L486.978 412.854C488.623 410.424 489.462 408.051 489.472 405.798C489.473 405.44 489.457 405.082 489.44 404.717C489.373 403.271 489.289 401.473 490.228 399.378C490.755 398.21 492.234 395.506 494.458 395.84C495.057 395.924 495.509 396.198 495.853 396.52C495.904 396.439 495.956 396.359 496.011 396.272C496.704 395.218 497.252 394.766 497.78 394.331C498.186 393.996 498.605 393.651 499.263 392.835C499.551 392.476 499.776 392.162 499.966 391.897C500.541 391.097 501.292 390.143 502.617 390.16C504.033 390.227 504.774 391.395 505.265 392.168C506.143 393.547 506.54 394.542 506.803 395.201C506.899 395.442 507.008 395.713 507.063 395.797C507.519 396.466 511.228 395.84 512.625 395.613C515.763 395.09 518.478 394.639 519.597 396.613C520.398 398.026 519.803 399.894 517.774 402.314C517.141 403.067 516.469 403.639 515.872 404.088C516.366 404.382 516.809 404.834 516.989 405.544C517.411 407.224 515.964 408.907 512.688 410.554C511.875 410.966 510.78 411.515 509.245 411.779C508.522 411.903 507.872 411.933 507.315 411.95C507.303 412.271 507.228 412.619 507.031 412.978C506.456 414.032 505.259 414.534 503.454 414.414C501.468 414.31 499.833 413.932 498.391 413.6C497.131 413.312 496.046 413.068 495.194 413.125C493.614 413.252 492.397 414.514 490.968 416.151L487.4 420.311Z" fill="#F2F2F2"/>
<path d="M494.508 554.866L493.052 553.956L491.355 554.15C491.328 553.993 491.236 553.631 491.097 553.066C490.337 549.966 488.021 540.534 486.089 525.679C484.74 515.31 483.977 504.649 483.82 493.988C483.662 483.311 484.169 475.228 484.574 468.731C484.881 463.831 485.254 459.165 485.619 454.619C486.592 442.476 487.509 431.005 486.827 418.306C486.676 415.471 486.359 409.57 482.904 403.291C480.9 399.649 478.139 396.416 474.698 393.685L476.838 391C480.637 394.019 483.691 397.601 485.916 401.644C489.747 408.606 490.092 415.036 490.258 418.125C490.953 431.049 490.025 442.63 489.042 454.891C488.68 459.419 488.308 464.065 488.003 468.945C487.6 475.382 487.099 483.395 487.255 493.935C487.409 504.468 488.164 514.999 489.494 525.237C491.402 539.905 493.685 549.196 494.434 552.249C494.834 553.879 494.917 554.22 494.508 554.866Z" fill="#F2F2F2"/>
<path d="M468.398 399.13C468.258 399.13 468.115 399.127 467.971 399.117C465.046 398.96 462.337 397.213 459.919 393.926C458.785 392.379 458.205 390.615 457.047 387.097C456.868 386.555 455.996 383.804 455.466 380.018C455.119 377.545 455.162 376.51 455.654 375.597C456.199 374.579 457.081 373.87 458.074 373.391C458.03 373.063 458.065 372.725 458.208 372.38C458.793 370.951 460.35 371.138 461.192 371.229C461.618 371.282 462.149 371.353 462.723 371.322C463.625 371.279 464.11 371.011 464.845 370.609C465.547 370.225 466.421 369.746 467.717 369.481C470.273 368.949 472.415 369.672 473.121 369.91C476.836 371.145 478.668 374.027 480.787 377.364C481.21 378.033 482.661 380.47 483.618 383.811C484.309 386.221 484.212 387.292 484.004 388.088C483.582 389.725 482.584 390.662 480.05 392.731C477.403 394.896 476.075 395.981 474.934 396.64C472.279 398.17 470.612 399.13 468.398 399.13Z" fill="#F2F2F2"/>
<path d="M352.011 241.027L193.377 211.148L192.74 222.591L350.1 260.099L352.011 241.027Z" fill="#AA7565"/>
<path d="M195.288 213.055L193.377 211.148C193.377 211.148 185.095 207.334 185.095 206.698C185.095 206.3 172.865 202.166 163.715 199.129C158.605 197.433 153.208 200.79 152.48 206.114L151.334 214.505C150.648 219.522 154.442 224.038 159.512 224.24L181.909 225.134L192.74 222.591L195.288 213.055Z" fill="#AA7565"/>
<path d="M351.693 244.524L352.071 242.94L193.335 212.658L193.058 214.645L351.693 244.524Z" fill="#3F3D56"/>
<path d="M351.329 247.531L351.693 245.795L193.162 215.793L193.058 217.823L351.329 247.531Z" fill="#3F3D56"/>
<path d="M350.965 251.135L351.055 248.338L193.038 218.075L193.058 219.731L350.965 251.135Z" fill="#3F3D56"/>
<path d="M350.542 255.321L350.418 252.788L192.807 220.356L192.672 220.977L350.542 255.321Z" fill="#3F3D56"/>
<path d="M350.539 257.859L350.418 255.967L193.044 221.406L192.903 222.025L350.539 257.859Z" fill="#3F3D56"/>
<path d="M259.385 152.104L267.279 147.743L270.702 217.505L269.508 226.088C269.508 226.088 249.581 171.255 259.385 152.104Z" fill="#3F3D56"/>
<path d="M286.391 130.411C297.299 130.411 306.141 121.587 306.141 110.703C306.141 99.8189 297.299 90.9955 286.391 90.9955C275.484 90.9955 266.642 99.8189 266.642 110.703C266.642 121.587 275.484 130.411 286.391 130.411Z" fill="#A0616A"/>
<path d="M269.508 122.464L274.23 126.225L268.871 105.935C268.871 105.935 283.843 105.617 285.117 97.3528C285.117 97.3528 296.903 97.0349 300.089 97.0349C303.274 97.0349 304.711 118.068 304.711 118.068C304.711 118.068 310.919 100.849 304.548 91.9491C298.177 83.0489 300.407 88.4526 299.133 85.2739C297.859 82.0953 284.799 79.1719 276.516 82.4132C268.234 85.6544 267.916 90.2747 265.367 90.3172C262.819 90.3598 253.9 103.074 262.182 113.246C270.464 123.418 269.508 122.464 269.508 122.464Z" fill="#2F2E41"/>
<path d="M329.845 251.789C332.186 249.926 333.911 247.689 334.883 245.478L358.307 229.128L350.184 218.233L327.297 235.991C324.921 236.446 322.353 237.628 320.012 239.492C314.664 243.75 312.53 249.954 315.245 253.35C317.961 256.746 324.497 256.047 329.845 251.789Z" fill="#A0616A"/>
<path d="M240.104 226.92C238.367 229.354 237.325 231.978 237 234.371L218.985 256.518L229.797 264.764L246.907 241.409C249.066 240.32 251.21 238.479 252.947 236.044C256.915 230.483 257.257 223.932 253.71 221.412C250.164 218.893 244.072 221.358 240.104 226.92Z" fill="#A0616A"/>
<path d="M322.387 159.654C322.387 159.654 328.12 150.118 333.854 155.84C338.391 160.367 363.273 189.177 373.461 201.005C376.271 204.266 377.813 208.422 377.813 212.723C377.813 219.376 374.132 225.485 368.244 228.605L336.402 245.478L327.483 232.127L354.878 212.42L312.83 189.533L322.387 159.654Z" fill="#E6E6E6"/>
<path d="M221.702 247.531L216.63 262.324L231.283 269.953L242.432 262.324L249.44 246.113L228.735 240.074" fill="#E6E6E6"/>
<path d="M458.592 105.748L410.462 118.795L417.465 149.959C415.2 148.443 412.477 147.556 409.545 147.556C401.684 147.556 395.311 153.915 395.311 161.76C395.311 169.604 401.684 175.963 409.545 175.963C417.406 175.963 423.778 169.604 423.778 161.76C423.778 159.033 422.995 156.495 421.66 154.332L416.108 129.624L457.63 116.598L461.427 135.003C459.148 133.456 456.397 132.55 453.432 132.55C445.571 132.55 439.198 138.909 439.198 146.753C439.198 154.598 445.571 160.957 453.432 160.957C461.293 160.957 467.666 154.598 467.666 146.753C467.666 143.998 466.867 141.434 465.506 139.256L458.592 105.748Z" fill="#C6C99D"/>
<path d="M505.795 134.88C498.016 134.88 491.709 141.173 491.709 148.936C491.709 151.131 492.227 153.199 493.126 155.05L501.166 188.142L505.729 187.038L499.527 161.51C501.417 162.45 503.54 162.992 505.795 162.992C513.575 162.992 519.881 156.699 519.881 148.936C519.881 141.173 513.575 134.88 505.795 134.88Z" fill="#7BBE7F"/>
<path d="M563.118 207.815L555.138 175.963L550.292 177.1L556.535 202.014C554.615 201.146 552.481 200.648 550.222 200.648C541.962 200.648 535.267 207.126 535.267 215.117C535.267 223.109 541.962 229.587 550.222 229.587C558.482 229.587 565.178 223.109 565.178 215.117C565.178 212.45 564.419 209.96 563.118 207.815Z" fill="#043429"/>
</g>
<path d="M19.1192 43.3767L31.9141 33.1433C21.9743 32.0467 17.8903 37.4676 16.2188 41.7583C8.45349 38.5339 0 42.7597 0 42.7597L25.6001 52.0534C24.3086 48.6039 22.0605 45.594 19.1192 43.3767Z" fill="#3F3D56"/>
<path d="M87.0432 16.3056L107.149 0.225198C91.5296 -1.49799 85.1121 7.02023 82.4856 13.7625C70.2835 8.69569 57 15.336 57 15.336L97.227 29.9398C95.1976 24.5193 91.665 19.7897 87.0432 16.3056Z" fill="#3F3D56"/>
<path d="M183.09 82.1599L200.549 68.1956C186.986 66.6991 181.413 74.0964 179.132 79.9515C168.535 75.5514 157 81.3179 157 81.3179L191.933 94C190.171 89.2928 187.103 85.1856 183.09 82.1599Z" fill="#3F3D56"/>
<defs>
<clipPath id="clip0_596_413">
<rect width="433" height="475" fill="white" transform="translate(151 81)"/>
</clipPath>
</defs>
</svg>
