<svg width="341" height="503" viewBox="0 0 341 503" fill="none" xmlns="http://www.w3.org/2000/svg">
<g clip-path="url(#clip0_593_1282)">
<path d="M139 200.355C139 202.813 138.92 205.25 138.761 207.667C137.867 221.604 134.343 235.248 128.375 247.877C128.329 247.985 128.275 248.085 128.229 248.185C127.951 248.771 127.665 249.356 127.373 249.934C125.598 253.506 123.629 256.978 121.474 260.335C111.633 275.747 98.1453 288.498 82.2017 297.464C66.2581 306.429 48.35 311.333 30.0597 311.741L31.1624 375.103L45.5423 367.537L48.1099 372.414L31.2705 381.275L33.3291 498.955L33.3521 500.527L22.2337 503L22.2567 501.421L25.7572 311.748C11.0353 311.537 -3.49796 308.406 -16.9988 302.536C-30.4997 296.666 -42.6991 288.175 -52.8888 277.555C-53.5902 276.831 -54.2844 276.084 -54.9629 275.344C-54.9937 275.313 -55.0167 275.282 -55.04 275.259C-63.5299 266.008 -70.3961 255.391 -75.3491 243.855C-75.2411 243.978 -75.1255 244.094 -75.0174 244.217C-86.2116 218.06 -86.9708 188.615 -77.1395 161.917C-67.3082 135.218 -47.631 113.287 -22.1399 100.619C-21.7543 100.426 -21.3609 100.241 -20.9754 100.048C4.24001 87.912 33.0983 85.6851 59.8794 93.8092C86.6606 101.933 109.41 119.815 123.618 143.911C124.296 145.051 124.952 146.215 125.584 147.386C134.41 163.647 139.022 181.856 139 200.355Z" fill="#E5E5E5"/>
<path d="M63.5162 466.777C58.2276 484.443 66.4355 502.505 66.4355 502.505C66.4355 502.505 83.2179 491.924 88.5065 474.258C93.7951 456.592 85.5873 438.53 85.5873 438.53C85.5873 438.53 68.8049 449.111 63.5162 466.777Z" fill="#F2F2F2"/>
<path d="M71.546 467.255C75.9972 485.15 66.9481 502.806 66.9481 502.806C66.9481 502.806 50.6823 491.447 46.2312 473.551C41.7801 455.656 50.8292 438 50.8292 438C50.8292 438 67.0949 449.359 71.546 467.255Z" fill="#F2F2F2"/>
<path d="M322.04 483.933L325.406 475.274L293.61 458.169L288.642 470.949L322.04 483.933Z" fill="#FFB8B8"/>
<path d="M340.077 461.345C338.65 460.789 337.127 460.52 335.596 460.553C334.065 460.587 332.556 460.921 331.154 461.538C329.753 462.155 328.487 463.042 327.428 464.149C326.369 465.255 325.539 466.56 324.985 467.987L322.714 473.824L319.213 482.834L318.357 485.044L329.577 489.408L340.43 461.485L340.077 461.345Z" fill="#2F2E41"/>
<path d="M319.214 467.269L317.75 471.152L314.096 480.842L314.009 481.085C304.699 482.281 294.494 479.936 285.055 476.293C281.278 474.836 277.579 473.186 273.973 471.348C268.635 468.651 263.855 465.804 260.042 463.369C254.301 459.685 250.752 456.918 250.752 456.918C250.752 456.918 249.814 457.766 248.117 459.219C245.842 461.165 242.208 464.204 237.604 467.781C235.848 469.155 233.962 470.593 231.948 472.093C217.094 483.111 198.033 453.712 198.033 453.712C198.033 453.712 203.394 450.299 204.794 449.637C209.304 447.503 219.898 442.469 229.039 437.995C233.748 435.686 238.065 433.522 240.964 431.983C251.229 426.518 263.989 436.86 263.989 436.86L319.214 467.269Z" fill="#2F2E41"/>
<path opacity="0.14" d="M319.214 467.269L317.75 471.152L314.096 480.842L314.009 481.085C304.699 482.281 294.494 479.936 285.055 476.293C281.278 474.836 277.579 473.186 273.973 471.348C268.635 468.651 263.855 465.804 260.042 463.369C254.301 459.685 250.752 456.918 250.752 456.918C250.752 456.918 249.814 457.766 248.117 459.219C245.842 461.165 242.208 464.204 237.604 467.781C235.848 469.155 233.962 470.593 231.948 472.093C217.094 483.111 198.033 453.712 198.033 453.712C198.033 453.712 203.394 450.299 204.794 449.637C209.304 447.503 219.898 442.469 229.039 437.995C233.748 435.686 238.065 433.522 240.964 431.983C251.229 426.518 263.989 436.86 263.989 436.86L319.214 467.269Z" fill="black"/>
<path d="M131.113 261.149C203.227 261.149 261.687 202.689 261.687 130.575C261.687 58.4602 203.227 0 131.113 0C58.9982 0 0.537964 58.4602 0.537964 130.575C0.537964 202.689 58.9982 261.149 131.113 261.149Z" fill="#C0F1A1"/>
<path opacity="0.2" d="M34.7005 43.361C22.5208 71.8514 20.8685 103.744 30.039 133.341C39.2094 162.937 58.6049 188.309 84.7597 204.921C110.914 221.534 142.124 228.305 172.812 224.025C203.499 219.745 231.665 204.692 252.276 181.557C244.836 198.964 233.7 214.544 219.641 227.22C205.581 239.896 188.934 249.363 170.852 254.966C152.77 260.569 133.687 262.174 114.923 259.669C96.1596 257.165 78.1649 250.611 62.1858 240.462C46.2067 230.312 32.6252 216.81 22.3823 200.891C12.1394 184.971 5.48004 167.016 2.86559 148.267C0.251148 129.518 1.74413 110.426 7.24109 92.3115C12.7381 74.1972 22.1076 57.4946 34.7005 43.361Z" fill="black"/>
<path d="M131.471 130.574H131.83L138.287 500.774H124.656L131.471 130.574Z" fill="#3F3D56"/>
<path d="M111.371 298.469L108.363 304.183L129.947 315.546L132.955 309.833L111.371 298.469Z" fill="#3F3D56"/>
<path d="M170.644 385.769H126.693C125.789 385.768 124.922 385.408 124.282 384.769C123.643 384.129 123.284 383.263 123.283 382.359V363.414C123.283 356.681 125.957 350.224 130.718 345.464C135.479 340.703 141.936 338.028 148.668 338.028C155.401 338.028 161.858 340.703 166.619 345.464C171.379 350.224 174.054 356.681 174.054 363.414V382.359C174.053 383.263 173.693 384.129 173.054 384.769C172.415 385.408 171.548 385.768 170.644 385.769Z" fill="#2F2E41"/>
<path d="M212.441 409.564C211.418 409.744 210.447 410.146 209.596 410.741C208.745 411.337 208.035 412.112 207.515 413.012C206.996 413.912 206.681 414.914 206.591 415.949C206.501 416.984 206.64 418.026 206.996 419.002L195.045 429.994L199.953 438.886L216.613 423.126C218.213 422.418 219.497 421.149 220.223 419.557C220.948 417.966 221.065 416.164 220.551 414.492C220.037 412.821 218.927 411.396 217.432 410.487C215.938 409.579 214.162 409.251 212.441 409.564Z" fill="#FFB8B8"/>
<path d="M176.48 459.541C175.94 459.541 175.4 459.518 174.858 459.471C171.634 459.202 168.532 458.119 165.841 456.322C163.151 454.525 160.961 452.074 159.477 449.199L140.33 412.346C139.075 409.932 138.8 407.126 139.561 404.513C140.322 401.901 142.061 399.682 144.417 398.319C146.772 396.956 149.562 396.553 152.207 397.195C154.851 397.837 157.147 399.473 158.615 401.764L176.28 441.399L200.316 421.869L214.233 427.287L190.73 453.235C188.923 455.218 186.723 456.803 184.269 457.889C181.816 458.975 179.163 459.538 176.48 459.541Z" fill="#CCCCCC"/>
<path d="M247.303 402.525L225.945 381.167C225.198 380.42 224.185 380 223.128 380C222.071 380 221.058 380.42 220.311 381.167L201.097 400.38C200.35 401.128 199.931 402.141 199.931 403.198C199.931 404.254 200.35 405.267 201.097 406.015L221.053 425.97C221.765 426.682 222.719 427.098 223.725 427.135C224.731 427.171 225.713 426.826 226.475 426.168L247.091 408.357C247.487 408.015 247.811 407.598 248.046 407.131C248.281 406.663 248.422 406.154 248.46 405.632C248.498 405.11 248.433 404.586 248.268 404.09C248.104 403.593 247.843 403.134 247.501 402.738C247.438 402.664 247.372 402.594 247.303 402.525Z" fill="#3F3D56"/>
<path d="M244.292 406.332L222.372 384.413L204.283 402.502L225.352 423.57L244.292 406.332Z" fill="#F2F2F2"/>
<path d="M219.55 402.042C218.489 403.039 218.433 406.63 220.053 408.355C221.674 410.08 224.358 409.286 225.419 408.289C226.481 407.291 225.518 406.468 223.897 404.743C222.276 403.018 220.612 401.045 219.55 402.042Z" fill="#F2F2F2"/>
<path d="M319.354 496.112L323.375 487.737L292.988 468.24L287.052 480.6L319.354 496.112Z" fill="#FFB8B8"/>
<path d="M339.073 474.976C337.693 474.312 336.196 473.927 334.667 473.843C333.138 473.758 331.607 473.976 330.162 474.483C328.717 474.991 327.387 475.778 326.246 476.8C325.106 477.822 324.178 479.058 323.516 480.439L320.803 486.085L316.62 494.799L315.597 496.936L326.448 502.15L339.414 475.142L339.073 474.976Z" fill="#2F2E41"/>
<path d="M317.817 479.28L316.059 483.038L311.672 492.42L311.566 492.655C302.192 493.132 292.197 490.01 283.065 485.653C279.412 483.91 275.851 481.98 272.396 479.871C267.281 476.772 262.734 473.566 259.12 470.846C253.679 466.731 250.352 463.7 250.352 463.7C250.352 463.7 249.352 464.473 247.548 465.791C245.131 467.557 241.274 470.308 236.409 473.521C234.552 474.756 232.562 476.044 230.438 477.385C214.782 487.229 192.518 499.217 173.581 501.748C140.322 506.196 148.15 461.813 148.15 461.813L174.619 448.067L185.857 450.348L198.368 452.879L202.801 453.781C202.801 453.781 203.642 453.462 205.09 452.909C209.75 451.128 220.7 446.923 230.157 443.164C235.03 441.224 239.501 439.398 242.509 438.087C253.163 433.426 265.091 444.717 265.091 444.717L317.817 479.28Z" fill="#2F2E41"/>
<path d="M99.7146 502.808C100.727 502.575 101.676 502.124 102.496 501.485C103.315 500.846 103.984 500.036 104.456 499.11C104.928 498.185 105.191 497.167 105.227 496.129C105.263 495.091 105.071 494.057 104.664 493.101L116.031 481.506L110.67 472.88L94.8473 489.48C93.2866 490.269 92.0697 491.604 91.4272 493.231C90.7847 494.857 90.7612 496.663 91.3611 498.306C91.9611 499.949 93.1428 501.314 94.6825 502.144C96.2221 502.974 98.0125 503.21 99.7146 502.808Z" fill="#FFB8B8"/>
<path d="M154.891 386.614C164.678 386.614 172.613 378.68 172.613 368.893C172.613 359.105 164.678 351.171 154.891 351.171C145.104 351.171 137.169 359.105 137.169 368.893C137.169 378.68 145.104 386.614 154.891 386.614Z" fill="#FFB8B8"/>
<path d="M131.836 418.086L147.273 461.852L147.18 462.005C145.033 465.555 144.332 468.418 145.151 470.285C145.367 470.76 145.684 471.182 146.079 471.523C146.473 471.863 146.937 472.114 147.439 472.258L183.97 446.724L182.691 436.49L182.762 436.375C186.293 430.726 187.437 425.609 186.161 421.169C184.506 415.406 179.246 412.79 179.193 412.764L179.066 412.664L160.845 390.488L136.488 394.815L131.836 418.086Z" fill="#CCCCCC"/>
<path d="M108.36 494.906L98.0179 482.178L122.949 441.023L134.572 405.095C135.207 403.132 136.255 401.328 137.646 399.805C139.037 398.282 140.739 397.074 142.636 396.264C144.533 395.454 146.582 395.06 148.644 395.108C150.707 395.157 152.735 395.647 154.591 396.546C156.448 397.444 158.091 398.731 159.409 400.318C160.727 401.905 161.689 403.756 162.231 405.747C162.772 407.737 162.881 409.821 162.55 411.857C162.218 413.893 161.454 415.834 160.309 417.55L138.97 449.52L108.36 494.906Z" fill="#CCCCCC"/>
<path d="M180.06 365.308H153.184L152.909 361.45L151.531 365.308H147.393L146.847 357.661L144.115 365.308H136.108V364.93C136.114 359.606 138.232 354.501 141.996 350.737C145.761 346.972 150.865 344.854 156.189 344.848H159.978C165.302 344.854 170.407 346.972 174.171 350.737C177.936 354.501 180.054 359.606 180.06 364.93V365.308Z" fill="#2F2E41"/>
<path d="M152.964 389.305C152.762 389.305 152.56 389.287 152.361 389.252L132.682 385.78V353.256H154.345L153.808 353.881C146.346 362.584 151.968 376.695 155.983 384.332C156.279 384.891 156.411 385.523 156.364 386.154C156.317 386.785 156.092 387.39 155.716 387.899C155.402 388.334 154.988 388.689 154.51 388.933C154.031 389.178 153.502 389.305 152.964 389.305Z" fill="#2F2E41"/>
</g>
<defs>
<clipPath id="clip0_593_1282">
<rect width="341" height="503" fill="white"/>
</clipPath>
</defs>
</svg>
