    <svg viewBox="0 0 310 309" fill="none" xmlns="http://www.w3.org/2000/svg">
      <g clip-path="url(#clip0_397_859)">
        <path
          d="M127.018 138.427C127.167 138.345 127.314 138.26 127.458 138.172C127.827 136.404 128.195 134.636 128.564 132.868C130.734 135.125 135 134.699 136.683 132.057C130.817 119.526 123.104 107.949 113.802 97.7152C111.774 95.4733 110.636 92.5652 110.604 89.5405C110.571 86.5157 111.645 83.5836 113.624 81.2982C113.66 81.2567 113.695 81.2149 113.73 81.1727C118.983 79.396 123.957 76.8805 128.503 73.7016C112.913 48.6162 83.1862 28.6875 76.1204 0C54.8634 22.8625 52.4772 30.9144 31.2202 53.7769C31.2202 53.7769 11.0922 71.9672 6.74777 81.7431C7.81523 82.8661 17.372 85.561 17.7394 87.769C25.0277 88.3541 37.6542 80.3534 37.6542 80.3534C37.6542 80.3534 10.0947 109.78 1.72729 127.905C0.973813 129.537 0.258181 131.401 0.889406 133.085C1.39337 134.429 3.20126 135.204 4.36565 134.67C2.97471 136.013 1.8579 137.615 1.07738 139.385C5.83548 142.606 12.8524 141.898 16.8737 137.792C15.7082 139.973 14.5427 142.153 13.3773 144.334L13.3794 144.339C14.9539 144.855 16.3669 145.772 17.4788 147.002C18.5907 148.232 19.3631 149.731 19.7195 151.351C20.076 152.971 20.0042 154.656 19.5113 156.24C19.0184 157.824 18.1214 159.251 16.909 160.382C9.67672 167.118 3.06836 174.199 0.646899 178.862C-1.63108 183.249 21.7586 188.537 27.0195 188.32C32.2804 188.104 37.1979 185.788 41.9495 183.516C41.7179 185.686 42.1323 187.876 43.1406 189.811C45.7427 190.443 48.4449 190.548 51.0883 190.12C53.7316 189.692 56.263 188.74 58.5336 187.318C58.2501 193.187 68.3491 195.51 70.6503 190.105C69.7869 193.282 73.9847 195.249 77.2218 195.825C86.458 197.467 97.6039 198.465 103.614 191.252C110.531 198.237 123.208 198.105 130.085 191.143C129.408 192.344 130.444 194.366 131.976 194.684C133.783 195.059 135.539 193.984 137.073 192.958C144.014 188.31 150.956 183.662 157.897 179.014L125.937 157.437C118.982 152.741 119.662 142.465 127.018 138.427Z"
          fill="#7BBE7F"
        />
        <path
          d="M73.4087 308.715H68.8943C66.7561 257.312 65.2163 208.122 68.8943 178.232H73.4088L73.4087 308.715Z"
          fill="#7BBE7F"
        />
        <path
          d="M42.6683 298.01C42.3696 298.024 42.0739 297.945 41.8213 297.785C41.5687 297.625 41.3713 297.391 41.256 297.115C41.1407 296.838 41.1129 296.533 41.1765 296.241C41.2401 295.948 41.3919 295.682 41.6115 295.479C41.6482 295.333 41.6746 295.227 41.7114 295.081C41.6982 295.049 41.685 295.017 41.6717 294.986C41.3708 294.274 40.8666 293.667 40.2224 293.241C39.5783 292.815 38.8229 292.59 38.0511 292.593C37.2794 292.596 36.5256 292.827 35.8847 293.257C35.2437 293.688 34.744 294.298 34.4484 295.012C33.267 297.862 31.7629 300.717 31.3925 303.73C31.2294 305.062 31.2982 306.412 31.5959 307.72C28.8211 301.658 27.3802 295.069 27.371 288.4C27.3704 286.727 27.4632 285.055 27.649 283.392C27.8026 282.028 28.0156 280.675 28.2882 279.331C29.7754 272.039 32.9685 265.204 37.6054 259.388C39.8496 258.161 41.6645 256.275 42.8056 253.984C43.2189 253.161 43.5111 252.281 43.673 251.374C43.4198 251.407 43.1625 251.428 42.9093 251.444C42.8305 251.449 42.7475 251.453 42.6686 251.457L42.6389 251.458C42.3606 251.471 42.0847 251.402 41.8444 251.262C41.604 251.121 41.4094 250.913 41.284 250.664C41.1587 250.415 41.1078 250.135 41.1377 249.858C41.1676 249.58 41.2768 249.318 41.4523 249.101C41.5616 248.966 41.671 248.832 41.7804 248.697C41.9465 248.489 42.1166 248.285 42.2826 248.078C42.3018 248.058 42.3198 248.037 42.3366 248.015C42.5275 247.778 42.7184 247.546 42.9093 247.309C42.5608 246.767 42.0921 246.313 41.5397 245.983C39.6265 244.861 36.987 245.638 35.6049 247.371C34.2188 249.104 33.9573 251.536 34.4387 253.701C34.9121 255.544 35.6953 257.293 36.7546 258.872C36.6508 259.005 36.5429 259.134 36.4391 259.267C34.5425 261.71 32.8894 264.333 31.5036 267.098C31.8406 264 31.4384 260.866 30.33 257.954C29.2067 255.24 27.1012 252.954 25.2471 250.608C23.02 247.789 18.4531 249.019 18.0607 252.592C18.0569 252.626 18.0532 252.661 18.0496 252.696C18.325 252.851 18.5946 253.016 18.8583 253.191C19.1897 253.413 19.4464 253.73 19.5949 254.1C19.7435 254.47 19.7768 254.877 19.6906 255.267C19.6044 255.656 19.4027 256.011 19.1119 256.284C18.8211 256.557 18.4547 256.735 18.0609 256.796L18.0205 256.802C18.1186 257.796 18.2921 258.782 18.5393 259.749C19.2557 262.451 20.5216 264.975 22.2578 267.164C23.9939 269.353 26.1628 271.158 28.6284 272.468C28.7903 272.551 28.948 272.635 29.1099 272.714C27.7176 276.665 26.8443 280.782 26.5119 284.959C26.3237 287.423 26.3348 289.899 26.5451 292.362L26.5326 292.274C26.0013 289.536 24.5427 287.065 22.4031 285.279C19.2253 282.664 14.7356 281.702 11.3072 279.6C10.9429 279.366 10.5192 279.241 10.0863 279.24C9.65328 279.239 9.22903 279.362 8.86354 279.594C8.49805 279.827 8.20658 280.159 8.0235 280.552C7.84041 280.945 7.77334 281.382 7.83022 281.812C7.83481 281.843 7.83949 281.873 7.84424 281.904C8.3553 282.112 8.8529 282.352 9.33414 282.623C9.60954 282.778 9.87913 282.944 10.1429 283.118C10.4743 283.34 10.731 283.657 10.8795 284.027C11.028 284.398 11.0614 284.804 10.9752 285.194C10.889 285.584 10.6873 285.938 10.3965 286.211C10.1056 286.484 9.73931 286.662 9.34544 286.723L9.30509 286.729C9.27603 286.734 9.25113 286.738 9.22212 286.742C10.0953 288.83 11.3209 290.752 12.8452 292.424C14.7282 294.448 17.0041 296.065 19.5333 297.176C22.0625 298.287 24.7917 298.87 27.5536 298.887H27.5577C28.3074 302.15 29.3937 305.326 30.799 308.364H42.3781C42.4196 308.235 42.457 308.102 42.4943 307.974C41.4225 308.041 40.3465 307.977 39.2903 307.782C40.1494 306.727 41.0085 305.663 41.8676 304.607C41.8868 304.587 41.9048 304.566 41.9216 304.544C42.3573 304.004 42.7972 303.468 43.233 302.928L43.2332 302.927C43.2565 301.271 43.0664 299.618 42.6683 298.01Z"
          fill="#7BBE7F"
        />
        <path
          d="M213.638 244.809L210.632 245.996L235.116 308.216L238.122 307.03L213.638 244.809Z"
          fill="#E6E6E6"
        />
        <path
          d="M193.759 307.03L196.765 308.216L221.249 245.996L218.243 244.809L193.759 307.03Z"
          fill="#E6E6E6"
        />
        <path
          d="M214.684 256.181C226.481 256.181 236.045 252.479 236.045 247.911C236.045 243.344 226.481 239.641 214.684 239.641C202.886 239.641 193.323 243.344 193.323 247.911C193.323 252.479 202.886 256.181 214.684 256.181Z"
          fill="#E6E6E6"
        />
        <path
          d="M232.509 251.426L198.332 247.321C196.753 247.132 195.227 246.632 193.841 245.852C192.455 245.072 191.236 244.026 190.254 242.774C189.272 241.522 188.545 240.088 188.116 238.555C187.687 237.022 187.563 235.419 187.753 233.838C187.942 232.257 188.44 230.729 189.219 229.341C189.998 227.953 191.043 226.732 192.293 225.748C193.543 224.764 194.974 224.036 196.505 223.607C198.036 223.177 199.637 223.053 201.215 223.243L235.392 227.348C238.58 227.731 241.486 229.367 243.47 231.895C245.454 234.424 246.354 237.638 245.971 240.831C245.589 244.024 243.956 246.934 241.431 248.921C238.906 250.908 235.697 251.809 232.509 251.426Z"
          fill="#D5A495"
        />
        <path
          d="M225.808 165.345L230.817 170.211L237.22 173.056C236.661 173.443 233.713 213.228 237.511 214.884C240.746 216.294 237.449 217.46 237.561 220.742C237.673 224.024 238.091 230.774 238.091 230.774C220.314 237.628 213.413 238.292 203.079 226.531C203.008 225.872 203.163 225.208 203.52 224.65C203.878 224.091 204.415 223.672 205.042 223.461C207.334 222.575 203.833 216.734 205.701 216.052C207.569 215.37 206.02 207.321 206.02 207.321L202.042 189.187L201.068 186.448L206.095 171.006L211.768 169.671L214.566 164.693L225.808 165.345Z"
          fill="#E6E6E6"
        />
        <path
          d="M158.832 202.093C159.376 201.646 160.011 201.324 160.693 201.15C161.375 200.975 162.087 200.953 162.778 201.084C163.469 201.215 164.124 201.496 164.695 201.907C165.266 202.319 165.74 202.851 166.084 203.466L182.923 200.462L179.407 208.637L163.955 210.237C162.886 210.746 161.666 210.845 160.529 210.515C159.391 210.185 158.414 209.448 157.782 208.444C157.151 207.44 156.909 206.239 157.102 205.068C157.296 203.898 157.911 202.839 158.832 202.093Z"
          fill="#A0616A"
        />
        <path
          d="M176.243 209.25C177.72 210.779 179.172 210.596 180.603 209.008L200.641 207.898L200.703 207.782C200.774 207.648 204.996 199.637 208.742 192.138C209.319 190.984 209.884 189.841 210.421 188.741C210.653 188.267 210.88 187.801 211.1 187.344C212.587 184.26 213.772 181.653 214.235 180.284C215.305 177.219 215.297 173.88 214.211 170.821L214.18 170.747L214.11 170.707C212.688 169.891 211.031 169.585 209.411 169.839C207.792 170.093 206.307 170.893 205.203 172.106C199.9 177.989 196.035 185.026 193.912 192.661L192.71 197.006L180.308 200.083C179.043 199.399 177.951 199.569 177.093 200.881L176.243 209.25Z"
          fill="#E6E6E6"
        />
        <path
          d="M195.711 291.535L199.967 295.424L216.97 280.834L210.689 275.094L195.711 291.535Z"
          fill="#A0616A"
        />
        <path
          d="M195.893 289.151L197.091 290.245L203.503 292.615L204.274 296.81L204.275 296.81C205.691 298.105 206.536 299.91 206.624 301.828C206.711 303.747 206.034 305.622 204.742 307.04L204.584 307.214L190.861 294.674L195.893 289.151Z"
          fill="#2F2E41"
        />
        <path
          d="M227.95 246.146L224.277 239.042C224.584 231.849 230.813 226.23 237.966 226.947C241.95 227.346 245.605 229.721 246.904 236.426C250.244 253.667 209.953 287.791 209.953 287.791L202.956 283.093L202.799 278.398L206.902 276.071L207.053 272.078L210.944 270.403L227.95 246.146Z"
          fill="#D5A495"
        />
        <path
          d="M228.055 152.801C228.635 146.754 224.211 141.381 218.173 140.8C212.136 140.218 206.771 144.649 206.191 150.696C205.61 156.743 210.034 162.116 216.072 162.697C222.109 163.278 227.474 158.848 228.055 152.801Z"
          fill="#A0616A"
        />
        <path
          d="M225.965 290.456L221.156 293.634L206.63 276.57L213.727 271.88L225.965 290.456Z"
          fill="#A0616A"
        />
        <path
          d="M230.267 294.314L214.762 304.56L214.632 304.364C213.576 302.761 213.199 300.803 213.584 298.922C213.969 297.04 215.085 295.389 216.685 294.331L216.685 294.331L218.1 290.307L224.802 288.967L226.155 288.073L230.267 294.314Z"
          fill="#2F2E41"
        />
        <path
          d="M203.987 245.457L208.534 238.054C209.349 230.901 204.07 224.378 196.893 223.97C192.896 223.743 188.915 225.519 186.59 231.939C180.609 248.448 215.1 288.442 215.1 288.442L222.743 284.893L223.628 280.28L219.938 277.341L220.409 273.373L216.826 271.112L203.987 245.457Z"
          fill="#D5A495"
        />
        <path
          d="M220.879 154.37C220.889 154.228 220.899 154.086 220.908 153.943C220.861 154.08 220.851 154.227 220.879 154.37Z"
          fill="#2F2E41"
        />
        <path
          d="M230.328 149.278C229.935 147.473 229.058 145.809 227.791 144.465C226.524 143.122 224.915 142.15 223.138 141.653C222.651 140.836 221.987 140.138 221.195 139.612C220.403 139.085 219.503 138.743 218.562 138.611C216.794 138.375 215.023 138.9 213.323 139.441C212.273 139.775 211.226 140.118 210.181 140.469C209.331 140.755 208.286 141.408 208.568 142.261C208.353 142.149 208.108 142.111 207.869 142.153C207.631 142.195 207.413 142.315 207.25 142.494C207.086 142.673 206.987 142.901 206.966 143.143C206.946 143.384 207.006 143.626 207.136 143.83C206.742 143.321 205.83 143.647 205.611 144.253C205.391 144.859 205.65 145.531 205.971 146.089C206.936 147.679 208.4 148.902 210.135 149.568C211.869 150.235 213.775 150.306 215.554 149.772C216.594 149.431 217.657 148.871 218.723 149.121C219.729 149.357 220.453 150.291 220.739 151.285C220.949 152.155 221.006 153.054 220.909 153.943C221.044 153.628 221.299 153.379 221.618 153.251C221.937 153.123 222.293 153.128 222.608 153.263C223.368 153.642 223.641 154.642 223.453 155.472C223.265 156.301 221.289 159.516 220.767 160.187C220.196 160.82 219.775 161.575 219.537 162.394C221.41 162.106 223.283 161.817 225.155 161.529L225.257 161.631C228.161 159.372 231.063 152.887 230.328 149.278Z"
          fill="#2F2E41"
        />
        <path
          d="M203.422 226.745C203.681 226.09 204.08 225.499 204.592 225.016C205.103 224.532 205.715 224.166 206.383 223.944C207.05 223.723 207.759 223.651 208.458 223.733C209.156 223.815 209.829 224.05 210.427 224.42L223.694 213.608L224.582 222.465L211.848 231.375C211.159 232.34 210.141 233.02 208.986 233.284C207.832 233.548 206.62 233.379 205.581 232.808C204.543 232.237 203.749 231.305 203.351 230.188C202.953 229.07 202.978 227.845 203.422 226.745Z"
          fill="#A0616A"
        />
        <path
          d="M224.411 224.108C226.01 224.68 227.246 224.255 227.751 221.816L242.79 211.497L242.787 211.365C244.749 211.212 244.3 182.166 241.291 180.745C240.742 177.545 239.117 174.63 236.685 172.483L236.622 172.433L236.541 172.432C234.902 172.41 233.305 172.948 232.012 173.958C230.72 174.967 229.809 176.388 229.431 177.985C227.646 185.707 227.677 193.738 229.522 201.446L230.577 205.829L224.012 211.394C222.198 210.919 221.393 211.65 221.526 213.502L224.411 224.108Z"
          fill="#E6E6E6"
        />
        <path
          d="M109.691 249.054L106.886 250.161L129.731 308.216L132.536 307.109L109.691 249.054Z"
          fill="#E6E6E6"
        />
        <path
          d="M91.1419 307.109L93.9468 308.216L116.792 250.161L113.987 249.054L91.1419 307.109Z"
          fill="#E6E6E6"
        />
        <path
          d="M110.667 259.665C121.674 259.665 130.598 256.21 130.598 251.948C130.598 247.687 121.674 244.232 110.667 244.232C99.6588 244.232 90.7354 247.687 90.7354 251.948C90.7354 256.21 99.6588 259.665 110.667 259.665Z"
          fill="#E6E6E6"
        />
        <path
          d="M98.5733 163.025C99.025 165.855 100.58 168.389 102.897 170.07C105.214 171.752 108.103 172.443 110.928 171.992C111.248 171.941 111.564 171.876 111.875 171.796C114.486 171.134 116.756 169.518 118.237 167.265C119.719 165.012 120.305 162.286 119.881 159.622C119.747 158.774 119.512 157.945 119.18 157.153C118.161 154.714 116.285 152.734 113.907 151.587C111.529 150.44 108.813 150.206 106.274 150.93C103.736 151.653 101.55 153.284 100.131 155.513C98.7113 157.742 98.1573 160.414 98.5733 163.025Z"
          fill="#D5A495"
        />
        <path
          d="M156.742 299.638L161.587 298.195L158.382 278.357L151.23 280.487L156.742 299.638Z"
          fill="#D5A495"
        />
        <path
          d="M127.025 291.808C127.32 292.065 127.616 292.319 127.915 292.574C128.509 293.083 129.111 293.586 129.715 294.082C130.018 294.331 130.324 294.58 130.628 294.825L130.627 294.835L130.646 294.842L130.652 294.846L131.142 295.053L132.179 293.233L132.657 292.396L133.333 291.209L134.572 289.038L141.094 277.606L134.224 274.706L133.782 275.76L133.779 275.76L133.561 276.282L129.458 286.032L128.621 288.026L128.594 288.086L128.09 289.277L127.656 290.308L127.172 291.461L127.025 291.808Z"
          fill="#D5A495"
        />
        <path
          d="M91.1281 242.336C91.4661 243.137 91.8145 243.936 92.1673 244.729C92.8224 246.205 93.5039 247.665 94.2116 249.109C94.2111 249.112 94.2144 249.113 94.2172 249.117C94.6718 249.695 95.1922 250.219 95.7679 250.677C95.7912 250.701 95.8189 250.719 95.8427 250.74C96.2676 251.072 96.7317 251.349 97.2246 251.567C97.4025 251.643 97.5837 251.719 97.7617 251.795C98.4049 252.06 99.0451 252.301 99.6846 252.525C100.823 252.919 101.959 253.253 103.094 253.527C103.185 253.552 103.277 253.573 103.368 253.595C108.048 254.694 112.745 254.865 117.701 254.71C120.148 254.636 122.658 254.481 125.258 254.319C126.108 254.264 126.96 254.212 127.823 254.162C127.888 254.159 127.957 254.153 128.025 254.15C129.257 254.077 130.509 254.011 131.79 253.953C133.403 253.879 135.063 253.823 136.784 253.794L136.291 256.137C135.905 257.939 135.244 259.671 134.333 261.272C133.287 263.252 132.459 264.82 133.108 268.458L133.42 270.22C132.99 271.002 132.747 271.873 132.711 272.765C132.674 273.656 132.844 274.544 133.207 275.359L133.295 275.553L126.571 286.956L126.135 287.695L128.593 288.085L131.617 288.568L136.742 289.381L146.486 275.696L146.952 275.043L146.958 275.007L150.709 246.332C150.739 246.079 150.76 245.82 150.767 245.563C150.813 244.397 150.627 243.233 150.219 242.14C149.811 241.047 149.19 240.045 148.392 239.195C147.628 238.374 146.709 237.714 145.688 237.252C144.667 236.79 143.565 236.537 142.445 236.506L139.862 236.432L134.585 236.281L130.867 236.177L130.793 236.176L119.83 235.863L119.557 232.593L119.423 232.517L115.163 230.14L100.428 221.916L100.391 221.896L99.4215 221.355L99.2676 221.535C99.2218 221.589 99.1759 221.642 99.1334 221.697C97.8277 223.362 96.6951 225.155 95.7533 227.051C94.1847 230.142 92.7933 233.32 91.5856 236.569C91.5327 236.711 91.4853 236.839 91.4433 236.954L91.4276 236.989C91.4088 237.044 91.3964 237.079 91.3915 237.089C90.793 238.536 90.7541 240.412 91.1281 242.336Z"
          fill="#2F2E41"
        />
        <path
          d="M92.132 231.708C92.2151 231.504 92.3121 231.299 92.4112 231.101C93.1865 229.603 94.0437 228.149 94.9789 226.746C96.0322 225.146 97.2604 223.449 98.6913 221.628C99.3836 220.746 100.123 219.832 100.909 218.885C101.303 218.411 101.71 217.929 102.132 217.439C102.149 217.416 102.167 217.394 102.186 217.373L102.307 217.229L117.456 221.758L121.888 223.432L122.987 226.375L122.957 227.101C122.96 227.102 122.96 227.102 122.956 227.104L122.881 229.083L122.881 229.086L122.783 231.7L122.81 231.701L131.538 231.947L140.532 232.202L145.364 232.34C146.484 232.371 147.586 232.625 148.607 233.086C149.628 233.548 150.548 234.209 151.311 235.03C152.109 235.88 152.73 236.881 153.138 237.975C153.545 239.068 153.731 240.232 153.685 241.398C153.679 241.635 153.661 241.876 153.633 242.113L156.424 253.422C158.094 260.185 158.735 267.163 158.326 274.118L159.943 285.125L159.47 285.094L152.426 284.639L150.566 284.521L147.463 277.979C147.109 277.233 146.782 276.471 146.487 275.698C146 274.433 145.595 273.139 145.272 271.823L139.832 249.628C139.139 249.637 138.453 249.642 137.774 249.642C134.635 249.653 131.633 249.593 128.768 249.46C119.452 249.031 111.512 247.853 104.592 245.866C102.648 245.309 100.783 244.687 98.9959 244C98.3402 243.75 97.695 243.49 97.0605 243.221C96.9108 243.159 96.7643 243.099 96.6184 243.035C95.3069 242.465 94.1591 241.574 93.2801 240.445C92.4011 239.316 91.8189 237.984 91.5868 236.571C91.3023 234.931 91.4914 233.244 92.132 231.708Z"
          fill="#2F2E41"
        />
        <path
          d="M155.79 296.331L161.033 294.764L161.856 294.518L162.602 297.714L170.827 300.944C171.234 301.104 171.579 301.389 171.813 301.759C172.046 302.129 172.155 302.564 172.124 303C172.093 303.437 171.923 303.852 171.64 304.184C171.356 304.517 170.974 304.751 170.549 304.851L161.683 306.933L159.416 304.131L159.559 307.431L156.22 308.216L154.515 296.713L155.79 296.331Z"
          fill="#2F2E41"
        />
        <path
          d="M126.571 286.956L126.135 287.695L126.446 287.745L126.571 286.956Z"
          fill="#2F2E41"
        />
        <path
          d="M128.117 288.182L132.943 290.764L133.701 291.169L131.986 293.965L135.561 302.058C135.738 302.458 135.783 302.904 135.689 303.331C135.594 303.758 135.366 304.144 135.038 304.432C134.709 304.72 134.297 304.895 133.862 304.932C133.426 304.969 132.991 304.866 132.619 304.637L124.856 299.869L125.214 296.281L122.996 298.726L120.072 296.931L126.943 287.556L128.117 288.182Z"
          fill="#2F2E41"
        />
        <path
          d="M161.873 225.47C161.359 225.627 160.818 225.67 160.286 225.595C159.755 225.52 159.246 225.329 158.796 225.036C158.346 224.743 157.965 224.355 157.681 223.899C157.397 223.442 157.217 222.929 157.152 222.396L144.399 219.628L149.246 214.879L160.614 218.235C161.516 218.186 162.405 218.47 163.113 219.033C163.82 219.597 164.297 220.401 164.452 221.292C164.607 222.184 164.43 223.102 163.955 223.872C163.479 224.642 162.739 225.21 161.873 225.47Z"
          fill="#D5A495"
        />
        <path
          d="M124.417 219.503L100.876 199.354C99.0113 197.755 97.8565 195.481 97.6646 193.03C97.4727 190.579 98.2593 188.152 99.8519 186.282C100.735 185.247 101.834 184.42 103.072 183.859C104.31 183.297 105.657 183.016 107.015 183.034C108.374 183.053 109.712 183.371 110.935 183.965C112.157 184.56 113.234 185.417 114.088 186.475L131.376 207.885L154.565 214.155L153.964 221.826L124.417 219.503Z"
          fill="#6C63FF"
        />
        <path
          d="M96.9619 198.818L96.4633 217.105C89.6018 228.715 88.8214 234.352 90.7207 237.358L122.566 226.632L123.042 225.495L120.883 217.728L123.554 209.298C124.025 208.417 130.41 203.005 124.424 192.738L112.382 176.492L108.029 176.141C106.438 180.23 104.013 182.258 101.147 183.201C94.6661 189.15 95.6182 190.118 96.9619 198.818Z"
          fill="#C6C99D"
        />
        <path
          d="M121.282 155.233C121.114 155.708 120.851 156.143 120.508 156.512C120.165 156.88 119.75 157.173 119.289 157.374C118.553 156.678 117.757 156.05 116.91 155.495C117.278 156.243 117.58 157.022 117.811 157.823C117.795 157.827 117.781 157.827 117.764 157.83C116.237 158.035 114.703 157.656 113.209 157.28L113.416 157.471C113.429 158.671 113.1 159.849 112.468 160.867C111.835 161.886 110.925 162.703 109.846 163.221C108.65 163.772 107.072 164.154 106.777 165.436C106.516 166.57 107.497 167.586 108.442 168.26C109.387 168.935 110.492 169.673 110.646 170.827C110.894 172.706 108.489 173.897 108.08 175.745C107.725 177.329 108.948 178.838 110.291 179.744C111.634 180.65 113.215 181.274 114.254 182.522C116.093 184.733 115.5 188.259 113.604 190.423C113.399 190.659 113.18 190.882 112.947 191.091C112.428 190.434 111.861 189.817 111.249 189.245C110.513 188.55 109.717 187.921 108.871 187.367C109.239 188.115 109.54 188.894 109.772 189.695C110.074 190.723 110.266 191.78 110.345 192.849C108.979 193.498 107.547 193.996 106.074 194.335C102.364 195.244 98.5478 195.637 94.7314 195.502C92.9881 195.475 91.2551 195.229 89.5728 194.771C90.343 192.334 90.5682 189.757 90.2327 187.222C89.2784 189.449 87.8018 191.413 85.9282 192.946C84.3572 191.708 83.1914 189.953 82.9972 187.977C82.7593 185.548 83.9786 183.227 85.3319 181.197C86.6886 179.167 88.2496 177.188 88.8459 174.823C89.7168 171.374 88.3869 167.787 88.2161 164.235C88.1079 162 88.4615 159.768 89.2548 157.677C90.048 155.586 91.2638 153.681 92.8261 152.082C94.3883 150.484 96.2633 149.225 98.3337 148.386C100.404 147.547 102.625 147.145 104.858 147.205C106.87 147.323 108.868 147.629 110.824 148.118C111.886 148.346 112.944 148.577 114.006 148.805C115.319 149.049 116.607 149.415 117.852 149.899C118.937 150.323 119.891 151.028 120.615 151.942C120.971 152.403 121.217 152.939 121.333 153.51C121.448 154.081 121.431 154.67 121.282 155.233Z"
          fill="#2F2E41"
        />
        <path
          d="M261.105 222.292H79.144V222.09C79.1465 219.901 80.0156 217.804 81.5606 216.256C83.1056 214.709 85.2003 213.838 87.3853 213.836H252.864C255.049 213.838 257.144 214.709 258.689 216.256C260.234 217.804 261.103 219.901 261.105 222.09V222.292Z"
          fill="#CCCCCC"
        />
        <path
          d="M274.566 307.159L271.761 308.311L248.916 221.018L251.721 219.866L274.566 307.159Z"
          fill="#CCCCCC"
        />
        <path
          d="M233.172 307.159L235.977 308.311L258.822 221.018L256.017 219.866L233.172 307.159Z"
          fill="#CCCCCC"
        />
        <path
          d="M106.742 307.159L103.938 308.311L81.0928 221.018L83.8976 219.866L106.742 307.159Z"
          fill="#CCCCCC"
        />
        <path
          d="M65.3486 307.159L68.1534 308.311L90.9982 221.018L88.1934 219.866L65.3486 307.159Z"
          fill="#CCCCCC"
        />
        <path
          d="M190.885 207.448C190.94 207.284 190.958 207.11 190.94 206.938C190.922 206.766 190.867 206.599 190.779 206.45C190.692 206.301 190.573 206.173 190.432 206.074C190.29 205.974 190.129 205.907 189.959 205.875C189.896 205.861 189.832 205.853 189.768 205.851L182.024 205.651C181.85 205.649 181.678 205.684 181.518 205.753C181.359 205.822 181.216 205.923 181.098 206.051C180.989 206.028 180.879 206.016 180.768 206.017C180.527 206.01 180.286 206.052 180.061 206.138C179.836 206.225 179.63 206.355 179.455 206.522C179.28 206.688 179.14 206.888 179.042 207.108C178.944 207.329 178.89 207.567 178.884 207.809C178.878 208.05 178.92 208.291 179.007 208.516C179.093 208.742 179.224 208.948 179.39 209.123C179.556 209.298 179.756 209.438 179.976 209.536C180.197 209.634 180.434 209.687 180.676 209.693C180.953 209.699 181.228 209.642 181.481 209.528L182.193 217.157C182.262 217.408 182.41 217.63 182.615 217.79C182.819 217.95 183.07 218.039 183.33 218.044L188.364 218.173C188.622 218.178 188.875 218.101 189.086 217.953C189.297 217.805 189.456 217.593 189.539 217.349L190.885 207.448ZM180.692 209.167C180.344 209.158 180.014 209.011 179.775 208.759C179.535 208.507 179.405 208.169 179.413 207.821C179.421 207.473 179.567 207.143 179.818 206.902C180.069 206.661 180.406 206.53 180.753 206.537C180.778 206.537 180.799 206.549 180.824 206.549C180.769 206.76 180.77 206.981 180.828 207.191L181.335 209.009C181.139 209.12 180.916 209.174 180.692 209.167Z"
          fill="#D5A495"
        />
        <path
          d="M189.959 205.875C189.794 206.82 187.939 207.484 185.709 207.368C183.658 207.274 181.981 206.552 181.673 205.698C181.787 205.664 181.905 205.648 182.024 205.651L189.768 205.851C189.832 205.853 189.896 205.861 189.959 205.875Z"
          fill="white"
        />
        <path
          d="M165.092 204.428C165.147 204.264 165.165 204.09 165.147 203.918C165.129 203.746 165.074 203.58 164.986 203.431C164.898 203.282 164.78 203.153 164.638 203.054C164.497 202.955 164.336 202.887 164.166 202.855C164.103 202.842 164.039 202.834 163.975 202.832L156.231 202.631C156.057 202.63 155.885 202.664 155.725 202.733C155.566 202.802 155.422 202.904 155.304 203.032C155.196 203.008 155.085 202.997 154.975 202.997C154.488 202.986 154.017 203.168 153.664 203.504C153.312 203.84 153.107 204.302 153.095 204.789C153.083 205.277 153.264 205.749 153.599 206.102C153.934 206.455 154.396 206.661 154.882 206.674C155.16 206.679 155.435 206.623 155.688 206.508L156.4 214.138C156.469 214.389 156.616 214.611 156.821 214.77C157.026 214.93 157.277 215.019 157.537 215.024L162.571 215.154C162.829 215.159 163.082 215.081 163.293 214.933C163.504 214.785 163.663 214.574 163.746 214.33L165.092 204.428ZM154.898 206.148C154.551 206.138 154.221 205.992 153.982 205.739C153.742 205.487 153.612 205.15 153.62 204.802C153.628 204.454 153.774 204.123 154.025 203.883C154.276 203.642 154.612 203.511 154.96 203.518C154.985 203.518 155.006 203.529 155.031 203.53C154.976 203.74 154.977 203.962 155.035 204.172L155.542 205.99C155.346 206.1 155.123 206.155 154.898 206.148Z"
          fill="#409270"
        />
        <path
          d="M164.166 202.855C164.001 203.8 162.146 204.464 159.915 204.349C157.864 204.254 156.187 203.533 155.88 202.678C155.994 202.645 156.112 202.629 156.23 202.631L163.975 202.832C164.039 202.834 164.103 202.842 164.166 202.855Z"
          fill="white"
        />
        <path
          d="M161.295 217.291C160.801 217.501 160.267 217.601 159.73 217.582C159.194 217.564 158.668 217.428 158.19 217.183C157.711 216.939 157.292 216.593 156.962 216.169C156.632 215.745 156.398 215.254 156.278 214.73L143.305 213.319L147.628 208.086L159.284 210.229C160.177 210.085 161.091 210.274 161.853 210.76C162.616 211.245 163.174 211.995 163.422 212.865C163.669 213.736 163.59 214.667 163.198 215.483C162.806 216.298 162.129 216.942 161.295 217.291Z"
          fill="#D5A495"
        />
        <path
          d="M123.421 215.297L97.8968 197.736C95.8751 196.342 94.4882 194.201 94.0404 191.784C93.5925 189.367 94.1203 186.871 95.5079 184.843C96.2774 183.721 97.2841 182.783 98.4564 182.095C99.6288 181.406 100.938 180.985 102.291 180.86C103.645 180.736 105.009 180.911 106.287 181.374C107.565 181.837 108.725 182.575 109.686 183.538L129.124 203.011L152.841 206.807L153.048 214.499L123.421 215.297Z"
          fill="#C6C99D"
        />
        <path
          d="M309.367 308.863L6.41568 309C6.30714 309 6.20315 308.943 6.12651 308.843C6.04988 308.744 6.00684 308.608 6.00684 308.467C6.00684 308.327 6.04988 308.191 6.12651 308.092C6.20315 307.992 6.30714 307.935 6.41568 307.935L309.367 307.798C309.476 307.798 309.58 307.854 309.657 307.954C309.734 308.053 309.777 308.189 309.777 308.33C309.777 308.471 309.734 308.607 309.657 308.707C309.58 308.806 309.476 308.863 309.367 308.863Z"
          fill="#2F2E41"
        />
        <path
          d="M309.367 308.863L6.41568 309C6.30714 309 6.20315 308.943 6.12651 308.843C6.04988 308.744 6.00684 308.608 6.00684 308.467C6.00684 308.327 6.04988 308.191 6.12651 308.092C6.20315 307.992 6.30714 307.935 6.41568 307.935L309.367 307.798C309.476 307.798 309.58 307.854 309.657 307.954C309.734 308.053 309.777 308.189 309.777 308.33C309.777 308.471 309.734 308.607 309.657 308.707C309.58 308.806 309.476 308.863 309.367 308.863Z"
          fill="#2F2E41"
        />
        <path
          d="M180.053 54.3712C187.996 54.3712 194.436 47.9217 194.436 39.966C194.436 32.0102 187.996 25.5608 180.053 25.5608C172.109 25.5608 165.669 32.0102 165.669 39.966C165.669 47.9217 172.109 54.3712 180.053 54.3712Z"
          fill="#D5A495"
        />
        <path
          d="M212.245 33.1456C211.413 30.3548 209.063 28.5329 206.223 28.1332C206.192 28.1288 206.162 28.1346 206.131 28.1326C206.091 28.1203 206.05 28.1109 206.008 28.1043C201.986 27.6133 197.915 28.5006 194.46 30.6219C191.131 32.7035 187.252 33.6449 183.33 33.7979C183.307 33.7988 183.284 33.7998 183.261 33.801C181.803 33.8983 180.411 34.4431 179.274 35.3613C178.136 36.2795 177.309 37.5264 176.904 38.9324C176.861 39.1045 176.874 39.2858 176.941 39.4501C177.008 39.6145 177.125 39.7532 177.276 39.8463C177.71 40.215 178.225 40.4767 178.778 40.6102C179.973 40.8637 181.172 41.0959 182.375 41.3068C184.722 41.7182 187.082 42.0509 189.454 42.3047C194.269 42.8215 199.114 43.0049 203.954 42.8536C205.566 42.8033 207.121 42.7498 208.598 42.0372C209.673 41.5056 210.591 40.7033 211.262 39.7089C211.895 38.7532 212.31 37.6703 212.48 36.5365C212.65 35.4026 212.57 34.2452 212.245 33.1456Z"
          fill="#E6E6E6"
        />
        <path
          d="M267.138 85.7862C267.809 86.7805 268.727 87.5829 269.802 88.1145C271.279 88.827 272.834 88.8806 274.446 88.9309C279.286 89.0822 284.131 88.8988 288.946 88.382C291.315 88.1275 293.675 87.7948 296.025 87.3841C297.228 87.1733 298.427 86.9411 299.621 86.6875C300.175 86.5539 300.69 86.2923 301.124 85.9236C301.275 85.8305 301.392 85.6917 301.459 85.5274C301.526 85.3631 301.539 85.1818 301.496 85.0097C301.091 83.6037 300.264 82.3568 299.126 81.4386C297.989 80.5204 296.597 79.9755 295.139 79.8782C295.116 79.8771 295.093 79.8761 295.07 79.8752C291.148 79.7222 287.269 78.7808 283.94 76.6992C280.485 74.5779 276.414 73.6906 272.391 74.1816C272.35 74.1881 272.309 74.1976 272.269 74.2099C272.238 74.2119 272.208 74.2061 272.177 74.2105C269.337 74.6102 266.987 76.4321 266.155 79.2229C265.83 80.3224 265.75 81.4798 265.92 82.6137C266.09 83.7476 266.505 84.8305 267.138 85.7862Z"
          fill="#E6E6E6"
        />
        <path
          d="M182.351 52.3525C181.519 49.5617 179.169 47.7398 176.329 47.3401C176.297 47.3357 176.268 47.3415 176.237 47.3395C176.196 47.3272 176.155 47.3178 176.114 47.3112C172.091 46.8202 168.021 47.7076 164.565 49.8289C161.236 51.9104 157.358 52.852 153.436 53.0048C153.413 53.0057 153.39 53.0067 153.366 53.0079C151.909 53.1052 150.516 53.65 149.379 54.5682C148.242 55.4864 147.414 56.7334 147.01 58.1393C146.967 58.3114 146.98 58.4928 147.046 58.6571C147.113 58.8214 147.23 58.9601 147.381 59.0532C147.816 59.4219 148.33 59.6836 148.884 59.8172C150.078 60.0706 151.277 60.3028 152.48 60.5137C154.828 60.9251 157.188 61.2578 159.56 61.5117C164.375 62.0284 169.22 62.2118 174.06 62.0606C175.672 62.0103 177.227 61.9567 178.704 61.2441C179.778 60.7125 180.696 59.9101 181.368 58.9158C182 57.9601 182.416 56.8772 182.586 55.7433C182.756 54.6094 182.675 53.452 182.351 52.3525Z"
          fill="#E6E6E6"
        />
      </g>
      <defs>
        <clipPath id="clip0_397_859">
          <rect width="310" height="309" fill="white" />
        </clipPath>
      </defs>
    </svg>