<svg width="593" height="514" viewBox="0 0 593 514" fill="none" xmlns="http://www.w3.org/2000/svg">
<rect width="593" height="514" fill="#1E1E1E"/>
<path d="M-976 -3175C-976 -3176.1 -975.105 -3177 -974 -3177H5046C5047.1 -3177 5048 -3176.1 5048 -3175V3033C5048 3034.1 5047.1 3035 5046 3035H-974C-975.105 3035 -976 3034.1 -976 3033V-3175Z" fill="#444444"/>
<path d="M-974 -3176H5046V-3178H-974V-3176ZM5047 -3175V3033H5049V-3175H5047ZM5046 3034H-974V3036H5046V3034ZM-975 3033V-3175H-977V3033H-975ZM-974 3034C-974.552 3034 -975 3033.55 -975 3033H-977C-977 3034.66 -975.657 3036 -974 3036V3034ZM5047 3033C5047 3033.55 5046.55 3034 5046 3034V3036C5047.66 3036 5049 3034.66 5049 3033H5047ZM5046 -3176C5046.55 -3176 5047 -3175.55 5047 -3175H5049C5049 -3176.66 5047.66 -3178 5046 -3178V-3176ZM-974 -3178C-975.657 -3178 -977 -3176.66 -977 -3175H-975C-975 -3175.55 -974.552 -3176 -974 -3176V-3178Z" fill="white" fill-opacity="0.1"/>
<rect width="1920" height="1080" transform="translate(-912 -325)" fill="#036751"/>
<rect width="1440" height="1080" transform="translate(-672 -325)" fill="#036751"/>
<path d="M-500 -87C-500 -102.464 -487.464 -115 -472 -115H568C583.464 -115 596 -102.464 596 -87V518C596 533.464 583.464 546 568 546H-472C-487.464 546 -500 533.464 -500 518V-87Z" fill="#F5F4F4"/>
<path d="M221.571 230.263C221.821 230.127 222.065 229.985 222.305 229.839C222.919 226.898 223.533 223.957 224.147 221.016C227.761 224.771 234.869 224.062 237.671 219.668C227.9 198.823 215.052 179.566 199.557 162.542C196.18 158.813 194.285 153.976 194.23 148.944C194.176 143.913 195.966 139.035 199.262 135.234C199.321 135.165 199.38 135.095 199.438 135.025C208.187 132.07 216.473 127.885 224.045 122.598C198.077 80.8697 148.56 47.7196 136.79 0C101.382 38.0301 97.4071 51.424 61.9986 89.4541C61.9986 89.4541 28.4709 119.713 21.2342 135.974C23.0123 137.842 38.9313 142.325 39.5434 145.998C51.6836 146.971 72.716 133.662 72.716 133.662C72.716 133.662 26.8093 182.611 12.8715 212.761C11.6164 215.477 10.4243 218.577 11.4758 221.377C12.3153 223.613 15.3267 224.902 17.2663 224.013C14.9493 226.248 13.089 228.913 11.7889 231.858C19.7146 237.216 31.4029 236.038 38.1012 229.207C36.1599 232.835 34.2186 236.462 32.2772 240.09L32.2807 240.098C34.9034 240.955 37.2571 242.482 39.1092 244.528C40.9614 246.573 42.2479 249.066 42.8417 251.761C43.4354 254.456 43.3159 257.259 42.4948 259.894C41.6738 262.529 40.1796 264.903 38.16 266.784C26.1131 277.99 15.1053 289.768 11.0718 297.525C7.27734 304.822 46.2382 313.619 55.0015 313.258C63.7648 312.897 71.956 309.046 79.8708 305.266C79.4851 308.876 80.1754 312.519 81.8548 315.737C86.1893 316.789 90.6904 316.964 95.0935 316.252C99.4967 315.54 103.713 313.956 107.495 311.591C107.023 321.353 123.845 325.216 127.679 316.227C126.24 321.511 133.233 324.783 138.625 325.741C154.01 328.472 172.576 330.133 182.587 318.134C194.11 329.754 215.225 329.533 226.681 317.954C225.553 319.952 227.279 323.314 229.832 323.843C232.84 324.467 235.767 322.68 238.321 320.972C249.883 313.241 261.446 305.509 273.008 297.778L219.772 261.885C208.186 254.073 209.319 236.981 221.571 230.263Z" fill="#036751"/>
<path d="M132.274 513.526H124.754C121.192 428.02 118.627 346.196 124.754 296.476H132.274L132.274 513.526Z" fill="#036751"/>
<path d="M81.0684 495.719C80.5709 495.742 80.0784 495.611 79.6576 495.345C79.2368 495.078 78.9081 494.689 78.716 494.229C78.5239 493.77 78.4776 493.262 78.5835 492.776C78.6894 492.289 78.9424 491.847 79.3081 491.508C79.3693 491.265 79.4133 491.09 79.4745 490.847C79.4526 490.794 79.4306 490.741 79.4084 490.688C78.9072 489.504 78.0673 488.494 76.9944 487.786C75.9214 487.078 74.6631 486.703 73.3775 486.708C72.092 486.712 70.8365 487.097 69.7688 487.813C68.7011 488.529 67.8688 489.545 67.3764 490.733C65.4085 495.473 62.903 500.221 62.2861 505.233C62.0144 507.449 62.129 509.695 62.6249 511.871C58.0028 501.787 55.6027 490.827 55.5873 479.734C55.5863 476.95 55.7409 474.169 56.0504 471.402C56.3063 469.135 56.6611 466.883 57.1151 464.647C59.5924 452.517 64.9113 441.148 72.635 431.473C76.3733 429.433 79.3964 426.296 81.2971 422.485C81.9857 421.115 82.4724 419.652 82.742 418.143C82.3203 418.198 81.8917 418.233 81.47 418.26C81.3386 418.267 81.2004 418.274 81.069 418.281L81.0195 418.283C80.556 418.304 80.0964 418.19 79.696 417.956C79.2956 417.722 78.9715 417.377 78.7627 416.962C78.5538 416.548 78.4692 416.082 78.5189 415.621C78.5687 415.159 78.7507 414.722 79.043 414.362C79.2251 414.138 79.4073 413.914 79.5896 413.69C79.8661 413.344 80.1495 413.006 80.4261 412.66C80.458 412.627 80.488 412.592 80.5159 412.556C80.834 412.162 81.1519 411.775 81.47 411.381C80.8895 410.48 80.1087 409.725 79.1886 409.175C76.0017 407.308 71.6049 408.601 69.3028 411.484C66.9939 414.368 66.5583 418.412 67.3602 422.015C68.1488 425.08 69.4533 427.988 71.2178 430.616C71.0449 430.837 70.8652 431.051 70.6924 431.273C67.533 435.336 64.7795 439.699 62.4711 444.299C63.0325 439.145 62.3625 433.932 60.5163 429.088C58.6451 424.573 55.1379 420.771 52.0494 416.868C48.3397 412.18 40.7324 414.226 40.0789 420.169C40.0725 420.226 40.0664 420.284 40.0603 420.341C40.5191 420.6 40.9681 420.875 41.4075 421.166C41.9595 421.534 42.3871 422.061 42.6345 422.678C42.8819 423.294 42.9374 423.97 42.7938 424.618C42.6503 425.266 42.3142 425.856 41.8298 426.31C41.3454 426.764 40.7352 427.061 40.0791 427.162L40.012 427.173C40.1754 428.826 40.4643 430.465 40.8761 432.075C42.0694 436.569 44.1782 440.768 47.0701 444.408C49.962 448.049 53.5748 451.053 57.6819 453.232C57.9515 453.37 58.2142 453.509 58.4838 453.64C56.1646 460.213 54.7099 467.06 54.1562 474.009C53.8428 478.109 53.8612 482.227 54.2115 486.323L54.1908 486.178C53.3058 481.623 50.8762 477.512 47.3122 474.541C42.0187 470.192 34.5401 468.591 28.8294 465.095C28.2225 464.705 27.5168 464.497 26.7956 464.496C26.0744 464.494 25.3677 464.698 24.7589 465.085C24.1501 465.472 23.6646 466.025 23.3596 466.678C23.0546 467.332 22.9429 468.059 23.0376 468.774C23.0453 468.825 23.0531 468.876 23.061 468.927C23.9123 469.274 24.7412 469.673 25.5428 470.123C26.0015 470.382 26.4506 470.657 26.8899 470.947C27.4419 471.316 27.8696 471.843 28.117 472.459C28.3644 473.075 28.4199 473.752 28.2763 474.4C28.1327 475.048 27.7967 475.638 27.3123 476.092C26.8279 476.546 26.2177 476.843 25.5616 476.944L25.4944 476.954C25.446 476.961 25.4045 476.968 25.3562 476.975C26.8107 480.449 28.8523 483.646 31.3913 486.427C34.5279 489.793 38.3189 492.483 42.5318 494.332C46.7448 496.18 51.2909 497.149 55.8914 497.178H55.8983C57.1472 502.606 58.9566 507.889 61.2975 512.943H80.5851C80.6542 512.728 80.7165 512.507 80.7787 512.293C78.9934 512.405 77.201 512.298 75.4417 511.975C76.8727 510.218 78.3037 508.448 79.7348 506.692C79.7667 506.659 79.7967 506.625 79.8246 506.588C80.5505 505.69 81.2833 504.798 82.0092 503.899L82.0095 503.898C82.0482 501.143 81.7316 498.394 81.0684 495.719Z" fill="#036751"/>
<path d="M365.858 407.223L360.851 409.197L401.634 512.696L406.642 510.722L365.858 407.223Z" fill="#E6E6E6"/>
<path d="M332.744 510.723L337.751 512.696L378.535 409.197L373.527 407.223L332.744 510.723Z" fill="#E6E6E6"/>
<path d="M367.6 426.14C387.251 426.14 403.181 419.981 403.181 412.383C403.181 404.786 387.251 398.627 367.6 398.627C347.948 398.627 332.018 404.786 332.018 412.383C332.018 419.981 347.948 426.14 367.6 426.14Z" fill="#E6E6E6"/>
<path d="M397.291 418.23L340.361 411.402C337.732 411.086 335.19 410.256 332.881 408.958C330.573 407.66 328.542 405.92 326.906 403.838C325.269 401.755 324.059 399.37 323.344 396.82C322.629 394.27 322.424 391.603 322.739 388.973C323.055 386.343 323.885 383.801 325.182 381.492C326.48 379.183 328.22 377.153 330.302 375.516C332.384 373.879 334.769 372.669 337.319 371.954C339.869 371.239 342.535 371.033 345.164 371.349L402.094 378.178C407.404 378.815 412.244 381.536 415.549 385.742C418.854 389.948 420.352 395.295 419.716 400.606C419.079 405.917 416.358 410.758 412.153 414.063C407.947 417.369 402.601 418.867 397.291 418.23Z" fill="#D5A495"/>
<path d="M386.129 275.04L394.473 283.135L405.139 287.867C404.208 288.511 399.297 354.69 405.624 357.445C411.012 359.79 405.521 361.73 405.707 367.189C405.894 372.648 406.591 383.876 406.591 383.876C376.978 395.278 365.483 396.383 348.269 376.819C348.151 375.722 348.41 374.618 349.005 373.689C349.6 372.76 350.494 372.063 351.54 371.712C355.357 370.238 349.526 360.521 352.637 359.387C355.748 358.252 353.169 344.864 353.169 344.864L346.543 314.7L344.92 310.143L353.293 284.457L362.743 282.237L367.404 273.956L386.129 275.04Z" fill="#E6E6E6"/>
<path d="M274.566 336.167C275.472 335.424 276.53 334.888 277.666 334.598C278.801 334.308 279.987 334.271 281.138 334.489C282.29 334.706 283.38 335.174 284.332 335.859C285.283 336.543 286.073 337.428 286.645 338.451L314.694 333.454L308.838 347.053L283.1 349.714C281.318 350.562 279.287 350.727 277.391 350.177C275.496 349.627 273.868 348.401 272.817 346.732C271.765 345.062 271.362 343.064 271.684 341.117C272.006 339.17 273.032 337.409 274.566 336.167Z" fill="#A0616A"/>
<path d="M303.567 348.072C306.029 350.617 308.448 350.311 310.831 347.671L344.209 345.825L344.312 345.63C344.429 345.408 351.463 332.082 357.702 319.609C358.663 317.688 359.605 315.787 360.5 313.958C360.886 313.168 361.263 312.393 361.63 311.633C364.107 306.504 366.081 302.168 366.852 299.89C368.635 294.792 368.621 289.237 366.813 284.148L366.761 284.025L366.645 283.958C364.276 282.601 361.515 282.093 358.817 282.516C356.12 282.939 353.647 284.268 351.807 286.286C342.974 296.072 336.535 307.778 333 320.479L330.998 327.706L310.339 332.824C308.232 331.687 306.414 331.969 304.984 334.151L303.567 348.072Z" fill="#E6E6E6"/>
<path d="M335.996 484.948L343.085 491.417L371.407 467.148L360.945 457.6L335.996 484.948Z" fill="#A0616A"/>
<path d="M336.299 480.982L338.295 482.803L348.975 486.744L350.26 493.723L350.261 493.723C352.62 495.877 354.027 498.879 354.173 502.07C354.319 505.262 353.192 508.38 351.039 510.74L350.775 511.029L327.917 490.17L336.299 480.982Z" fill="#2F2E41"/>
<path d="M389.698 409.447L383.579 397.63C384.091 385.666 394.467 376.317 406.382 377.51C413.017 378.174 419.107 382.126 421.27 393.278C426.833 421.957 359.72 478.721 359.72 478.721L348.064 470.906L347.803 463.096L354.636 459.225L354.889 452.583L361.371 449.797L389.698 409.447Z" fill="#D5A495"/>
<path d="M389.872 254.173C390.838 244.115 383.469 235.177 373.413 234.21C363.356 233.243 354.419 240.613 353.452 250.672C352.485 260.73 359.854 269.668 369.911 270.635C379.968 271.602 388.905 264.232 389.872 254.173Z" fill="#A0616A"/>
<path d="M386.391 483.153L378.381 488.439L354.184 460.054L366.006 452.253L386.391 483.153Z" fill="#A0616A"/>
<path d="M393.557 489.57L367.73 506.614L367.514 506.288C365.755 503.621 365.127 500.365 365.768 497.235C366.409 494.106 368.267 491.359 370.933 489.599L370.934 489.599L373.29 482.906L384.454 480.677L386.708 479.189L393.557 489.57Z" fill="#2F2E41"/>
<path d="M349.782 408.301L357.355 395.986C358.714 384.087 349.92 373.237 337.965 372.558C331.307 372.181 324.676 375.135 320.802 385.815C310.841 413.277 368.293 479.804 368.293 479.804L381.024 473.899L382.498 466.226L376.351 461.338L377.137 454.737L371.168 450.975L349.782 408.301Z" fill="#D5A495"/>
<path d="M377.919 256.783C377.936 256.548 377.953 256.311 377.968 256.074C377.89 256.302 377.873 256.547 377.919 256.783Z" fill="#2F2E41"/>
<path d="M393.659 248.314C393.004 245.311 391.543 242.543 389.432 240.308C387.322 238.073 384.642 236.456 381.682 235.63C380.87 234.271 379.764 233.111 378.445 232.235C377.126 231.359 375.627 230.79 374.06 230.569C371.115 230.177 368.164 231.05 365.333 231.95C363.584 232.506 361.84 233.077 360.1 233.661C358.683 234.136 356.942 235.222 357.412 236.641C357.055 236.455 356.645 236.392 356.248 236.462C355.851 236.532 355.488 236.731 355.216 237.029C354.944 237.327 354.778 237.706 354.744 238.108C354.71 238.51 354.81 238.912 355.028 239.251C354.371 238.404 352.852 238.947 352.486 239.955C352.121 240.963 352.551 242.08 353.086 243.01C354.694 245.653 357.133 247.688 360.022 248.797C362.91 249.905 366.085 250.024 369.048 249.135C370.781 248.568 372.552 247.636 374.328 248.052C376.003 248.445 377.209 249.999 377.687 251.653C378.035 253.099 378.13 254.595 377.969 256.074C378.195 255.549 378.619 255.135 379.15 254.923C379.681 254.71 380.274 254.717 380.8 254.942C382.066 255.573 382.52 257.237 382.206 258.616C381.893 259.996 378.603 265.344 377.733 266.46C376.781 267.513 376.08 268.768 375.684 270.131C378.804 269.652 381.923 269.172 385.042 268.692L385.212 268.862C390.048 265.104 394.883 254.316 393.659 248.314Z" fill="#2F2E41"/>
<path d="M348.84 377.175C349.272 376.085 349.937 375.103 350.789 374.298C351.642 373.493 352.66 372.885 353.772 372.516C354.885 372.148 356.065 372.027 357.229 372.164C358.393 372.301 359.513 372.691 360.51 373.307L382.608 355.322L384.088 370.055L362.876 384.876C361.729 386.482 360.034 387.612 358.11 388.052C356.186 388.491 354.168 388.21 352.438 387.26C350.708 386.311 349.386 384.76 348.723 382.901C348.06 381.042 348.102 379.005 348.84 377.175Z" fill="#A0616A"/>
<path d="M383.804 372.787C386.466 373.74 388.525 373.032 389.366 368.976L414.417 351.81L414.412 351.59C417.68 351.337 416.932 303.021 411.921 300.657C411.006 295.334 408.299 290.485 404.248 286.913L404.143 286.831L404.009 286.828C401.279 286.792 398.618 287.688 396.465 289.367C394.312 291.046 392.795 293.409 392.165 296.066C389.192 308.91 389.244 322.27 392.317 335.091L394.074 342.382L383.138 351.64C380.116 350.849 378.776 352.065 378.997 355.145L383.804 372.787Z" fill="#E6E6E6"/>
<path d="M192.71 414.284L188.038 416.125L226.091 512.696L230.763 510.855L192.71 414.284Z" fill="#E6E6E6"/>
<path d="M161.812 510.855L166.484 512.696L204.538 416.125L199.866 414.284L161.812 510.855Z" fill="#E6E6E6"/>
<path d="M194.335 431.934C212.671 431.934 227.535 426.187 227.535 419.099C227.535 412.01 212.671 406.263 194.335 406.263C175.999 406.263 161.135 412.01 161.135 419.099C161.135 426.187 175.999 431.934 194.335 431.934Z" fill="#E6E6E6"/>
<path d="M174.191 271.181C174.943 275.887 177.534 280.103 181.393 282.9C185.252 285.697 190.064 286.847 194.771 286.097C195.304 286.012 195.83 285.903 196.348 285.771C200.697 284.67 204.478 281.981 206.946 278.234C209.414 274.486 210.391 269.951 209.684 265.52C209.461 264.109 209.068 262.73 208.515 261.413C206.819 257.356 203.694 254.062 199.733 252.154C195.771 250.247 191.248 249.858 187.019 251.061C182.79 252.264 179.149 254.977 176.785 258.684C174.421 262.392 173.498 266.838 174.191 271.181Z" fill="#D5A495"/>
<path d="M271.084 498.427L279.155 496.027L273.816 463.028L261.904 466.571L271.084 498.427Z" fill="#D5A495"/>
<path d="M221.584 485.402C222.075 485.83 222.568 486.253 223.066 486.677C224.056 487.523 225.059 488.36 226.064 489.185C226.569 489.599 227.079 490.013 227.585 490.421L227.583 490.438L227.615 490.448L227.625 490.456L228.441 490.8L230.168 487.773L230.965 486.38L232.091 484.405L234.155 480.794L245.019 461.779L233.575 456.954L232.839 458.708L232.834 458.707L232.47 459.576L225.636 475.795L224.241 479.111L224.197 479.211L223.358 481.191L222.634 482.907L221.828 484.825L221.584 485.402Z" fill="#D5A495"/>
<path d="M161.789 403.109C162.352 404.441 162.933 405.77 163.52 407.09C164.611 409.545 165.747 411.974 166.925 414.375C166.925 414.381 166.93 414.382 166.935 414.388C167.692 415.351 168.559 416.222 169.518 416.984C169.557 417.024 169.603 417.054 169.642 417.089C170.35 417.64 171.123 418.102 171.944 418.465C172.241 418.591 172.542 418.717 172.839 418.844C173.91 419.284 174.977 419.685 176.042 420.057C177.938 420.714 179.831 421.27 181.721 421.725C181.873 421.766 182.025 421.802 182.178 421.837C189.973 423.665 197.797 423.95 206.052 423.692C210.128 423.57 214.31 423.311 218.64 423.042C220.056 422.95 221.476 422.864 222.913 422.781C223.021 422.776 223.136 422.766 223.249 422.761C225.302 422.64 227.387 422.529 229.521 422.432C232.207 422.31 234.973 422.217 237.84 422.168L237.019 426.067C236.375 429.064 235.275 431.944 233.757 434.607C232.015 437.902 230.636 440.509 231.717 446.562L232.236 449.492C231.52 450.793 231.116 452.241 231.054 453.725C230.993 455.208 231.276 456.686 231.882 458.041L232.028 458.364L220.827 477.331L220.101 478.561L224.196 479.21L229.232 480.013L237.769 481.365L254.001 458.601L254.777 457.515L254.787 457.454L261.035 409.756C261.085 409.335 261.119 408.905 261.131 408.478C261.208 406.538 260.898 404.602 260.219 402.783C259.54 400.964 258.505 399.299 257.176 397.884C255.903 396.519 254.372 395.42 252.672 394.652C250.971 393.884 249.134 393.462 247.269 393.411L242.967 393.288L234.176 393.037L227.984 392.864L227.86 392.862L209.599 392.342L209.144 386.902L208.921 386.776L201.825 382.821L177.281 369.142L177.218 369.109L175.604 368.209L175.347 368.508C175.271 368.597 175.195 368.687 175.124 368.777C172.949 371.546 171.062 374.53 169.493 377.683C166.881 382.825 164.563 388.111 162.551 393.517C162.463 393.751 162.384 393.965 162.314 394.157L162.288 394.215C162.257 394.306 162.236 394.365 162.228 394.381C161.231 396.788 161.166 399.908 161.789 403.109Z" fill="#2F2E41"/>
<path d="M163.461 385.431C163.6 385.091 163.761 384.75 163.926 384.42C165.218 381.928 166.646 379.51 168.203 377.176C169.958 374.516 172.004 371.692 174.387 368.663C175.541 367.196 176.772 365.675 178.081 364.101C178.737 363.312 179.416 362.51 180.118 361.694C180.146 361.656 180.177 361.62 180.209 361.584L180.41 361.345L205.645 368.88L213.027 371.663L214.857 376.56L214.807 377.767C214.813 377.768 214.813 377.768 214.807 377.772L214.681 381.063L214.68 381.069L214.517 385.416L214.562 385.418L229.101 385.828L244.083 386.252L252.131 386.482C253.997 386.533 255.833 386.955 257.534 387.723C259.235 388.491 260.766 389.59 262.038 390.955C263.367 392.37 264.401 394.036 265.08 395.854C265.759 397.673 266.069 399.609 265.993 401.549C265.981 401.943 265.951 402.345 265.906 402.739L270.554 421.55C273.336 432.8 274.404 444.406 273.723 455.976L276.416 474.285L275.628 474.234L263.895 473.477L260.797 473.28L255.628 462.398C255.039 461.158 254.494 459.891 254.003 458.604C253.192 456.501 252.516 454.348 251.978 452.158L242.916 415.239C241.761 415.254 240.619 415.262 239.489 415.262C234.261 415.281 229.26 415.18 224.487 414.959C208.968 414.246 195.743 412.287 184.216 408.981C180.979 408.055 177.872 407.021 174.895 405.877C173.802 405.461 172.728 405.029 171.671 404.581C171.421 404.479 171.178 404.378 170.934 404.272C168.75 403.324 166.838 401.842 165.374 399.964C163.909 398.085 162.94 395.87 162.553 393.52C162.079 390.792 162.394 387.986 163.461 385.431Z" fill="#2F2E41"/>
<path d="M269.499 492.926L278.233 490.32L279.603 489.91L280.845 495.226L294.547 500.6C295.225 500.865 295.8 501.34 296.188 501.955C296.577 502.571 296.758 503.294 296.707 504.02C296.655 504.746 296.372 505.436 295.9 505.99C295.428 506.543 294.791 506.932 294.083 507.098L279.315 510.561L275.539 505.901L275.777 511.391L270.215 512.696L267.375 493.561L269.499 492.926Z" fill="#2F2E41"/>
<path d="M220.827 477.331L220.101 478.561L220.62 478.643L220.827 477.331Z" fill="#2F2E41"/>
<path d="M223.402 479.371L231.442 483.666L232.704 484.339L229.847 488.991L235.802 502.452C236.097 503.117 236.172 503.859 236.015 504.57C235.858 505.28 235.478 505.922 234.931 506.402C234.383 506.881 233.697 507.172 232.972 507.234C232.247 507.295 231.521 507.123 230.901 506.742L217.971 498.811L218.567 492.842L214.873 496.911L210.002 493.924L221.447 478.329L223.402 479.371Z" fill="#2F2E41"/>
<path d="M279.631 375.053C278.776 375.315 277.874 375.386 276.988 375.262C276.103 375.137 275.255 374.82 274.505 374.332C273.756 373.845 273.122 373.199 272.649 372.44C272.176 371.681 271.875 370.828 271.767 369.94L250.524 365.336L258.598 357.436L277.534 363.019C279.037 362.937 280.518 363.409 281.696 364.347C282.874 365.284 283.668 366.621 283.927 368.104C284.185 369.588 283.89 371.115 283.099 372.395C282.307 373.676 281.073 374.622 279.631 375.053Z" fill="#D5A495"/>
<path d="M217.239 365.128L178.026 331.612C174.921 328.952 172.997 325.169 172.677 321.092C172.358 317.015 173.668 312.978 176.321 309.867C177.792 308.146 179.623 306.77 181.685 305.836C183.747 304.902 185.99 304.434 188.253 304.465C190.517 304.496 192.746 305.024 194.782 306.014C196.818 307.003 198.612 308.428 200.035 310.188L228.832 345.802L267.458 356.231L266.456 368.992L217.239 365.128Z" fill="#6C63FF"/>
<path d="M171.507 330.72L170.676 361.139C159.247 380.451 157.947 389.829 161.111 394.829L214.157 376.987L214.949 375.095L211.353 362.176L215.803 348.152C216.586 346.687 227.222 337.684 217.252 320.607L197.193 293.582L189.942 292.998C187.292 299.799 183.252 303.174 178.478 304.742C167.683 314.638 169.269 316.248 171.507 330.72Z" fill="#C6C99D"/>
<path d="M212.017 258.22C211.738 259.01 211.3 259.734 210.728 260.346C210.157 260.959 209.466 261.447 208.697 261.78C207.472 260.624 206.146 259.578 204.736 258.655C205.349 259.9 205.851 261.196 206.237 262.528C206.209 262.534 206.186 262.534 206.159 262.539C203.614 262.88 201.059 262.249 198.57 261.624L198.916 261.942C198.937 263.937 198.389 265.897 197.335 267.592C196.282 269.286 194.767 270.644 192.968 271.507C190.976 272.423 188.348 273.059 187.857 275.191C187.421 277.077 189.056 278.768 190.63 279.89C192.203 281.011 194.045 282.239 194.301 284.159C194.714 287.284 190.708 289.265 190.027 292.34C189.436 294.974 191.472 297.485 193.71 298.992C195.947 300.499 198.581 301.537 200.311 303.613C203.374 307.29 202.387 313.156 199.228 316.755C198.887 317.147 198.521 317.518 198.135 317.866C197.27 316.773 196.324 315.747 195.306 314.796C194.08 313.64 192.754 312.594 191.344 311.671C191.957 312.916 192.459 314.212 192.845 315.544C193.349 317.254 193.669 319.012 193.799 320.79C191.525 321.87 189.139 322.699 186.685 323.262C180.506 324.775 174.149 325.428 167.792 325.204C164.888 325.159 162.001 324.75 159.199 323.988C160.482 319.934 160.857 315.647 160.298 311.431C158.708 315.136 156.249 318.401 153.128 320.952C150.511 318.893 148.569 315.974 148.246 312.687C147.849 308.647 149.88 304.785 152.135 301.409C154.395 298.032 156.995 294.74 157.988 290.805C159.439 285.068 157.223 279.103 156.939 273.193C156.759 269.476 157.348 265.762 158.669 262.284C159.99 258.806 162.016 255.638 164.618 252.978C167.22 250.319 170.343 248.226 173.792 246.83C177.241 245.434 180.94 244.765 184.659 244.865C188.012 245.062 191.339 245.57 194.597 246.383C196.366 246.763 198.129 247.148 199.898 247.527C202.085 247.933 204.23 248.542 206.304 249.347C208.112 250.052 209.7 251.225 210.907 252.745C211.5 253.511 211.909 254.403 212.102 255.353C212.295 256.302 212.266 257.283 212.017 258.22Z" fill="#2F2E41"/>
<path d="M444.926 369.767H141.827V369.431C141.832 365.791 143.279 362.301 145.853 359.727C148.426 357.153 151.916 355.705 155.555 355.701H431.198C434.838 355.705 438.327 357.153 440.901 359.727C443.474 362.301 444.922 365.791 444.926 369.431V369.767Z" fill="#CCCCCC"/>
<path d="M467.348 510.937L462.675 512.854L424.622 367.649L429.294 365.732L467.348 510.937Z" fill="#CCCCCC"/>
<path d="M398.397 510.937L403.069 512.854L441.122 367.649L436.45 365.732L398.397 510.937Z" fill="#CCCCCC"/>
<path d="M187.799 510.937L183.126 512.854L145.073 367.649L149.745 365.732L187.799 510.937Z" fill="#CCCCCC"/>
<path d="M118.848 510.937L123.52 512.854L161.573 367.649L156.901 365.732L118.848 510.937Z" fill="#CCCCCC"/>
<path d="M327.957 345.075C328.048 344.802 328.079 344.513 328.049 344.226C328.019 343.94 327.927 343.664 327.781 343.416C327.635 343.168 327.437 342.954 327.202 342.789C326.966 342.624 326.698 342.511 326.415 342.458C326.31 342.436 326.204 342.423 326.097 342.419L313.197 342.086C312.908 342.083 312.621 342.141 312.355 342.255C312.089 342.37 311.851 342.539 311.654 342.752C311.473 342.713 311.289 342.694 311.104 342.694C310.703 342.684 310.303 342.753 309.928 342.897C309.553 343.041 309.21 343.258 308.918 343.535C308.627 343.812 308.393 344.143 308.23 344.51C308.067 344.878 307.977 345.274 307.967 345.675C307.957 346.077 308.026 346.477 308.171 346.852C308.315 347.227 308.532 347.57 308.81 347.861C309.087 348.152 309.418 348.386 309.786 348.549C310.153 348.712 310.549 348.8 310.951 348.81C311.413 348.819 311.871 348.725 312.292 348.534L313.479 361.226C313.593 361.643 313.839 362.012 314.181 362.278C314.522 362.544 314.94 362.692 315.372 362.7L323.759 362.916C324.188 362.924 324.609 362.795 324.96 362.549C325.312 362.303 325.576 361.951 325.716 361.545L327.957 345.075ZM310.978 347.935C310.399 347.92 309.85 347.675 309.45 347.256C309.051 346.836 308.835 346.275 308.848 345.696C308.862 345.117 309.104 344.567 309.523 344.167C309.941 343.767 310.501 343.548 311.08 343.56C311.121 343.56 311.157 343.58 311.198 343.58C311.106 343.93 311.109 344.299 311.205 344.648L312.049 347.673C311.722 347.856 311.352 347.946 310.978 347.935Z" fill="#D5A495"/>
<path d="M326.415 342.458C326.14 344.03 323.05 345.135 319.335 344.943C315.919 344.785 313.125 343.586 312.613 342.164C312.803 342.108 313 342.081 313.197 342.086L326.097 342.419C326.204 342.423 326.31 342.436 326.415 342.458Z" fill="white"/>
<path d="M284.993 340.052C285.084 339.779 285.115 339.49 285.084 339.204C285.054 338.918 284.963 338.641 284.817 338.393C284.67 338.145 284.473 337.932 284.237 337.766C284.001 337.601 283.733 337.489 283.45 337.436C283.346 337.414 283.239 337.4 283.132 337.396L270.232 337.063C269.943 337.06 269.656 337.118 269.39 337.233C269.125 337.347 268.886 337.516 268.689 337.729C268.509 337.69 268.325 337.671 268.14 337.672C267.33 337.652 266.545 337.955 265.957 338.514C265.37 339.073 265.029 339.843 265.009 340.653C264.988 341.463 265.291 342.249 265.849 342.837C266.407 343.424 267.176 343.766 267.986 343.788C268.448 343.797 268.907 343.703 269.328 343.512L270.515 356.203C270.629 356.621 270.875 356.99 271.216 357.255C271.557 357.521 271.975 357.669 272.408 357.678L280.794 357.894C281.223 357.901 281.644 357.773 281.996 357.526C282.347 357.28 282.612 356.929 282.751 356.522L284.993 340.052ZM268.013 342.912C267.434 342.897 266.885 342.653 266.486 342.233C266.087 341.814 265.87 341.253 265.884 340.674C265.897 340.095 266.14 339.545 266.558 339.144C266.977 338.744 267.537 338.526 268.116 338.538C268.157 338.538 268.193 338.557 268.234 338.557C268.142 338.908 268.144 339.276 268.24 339.626L269.085 342.65C268.758 342.833 268.387 342.924 268.013 342.912Z" fill="#409270"/>
<path d="M283.45 337.436C283.175 339.008 280.085 340.112 276.37 339.92C272.954 339.763 270.16 338.563 269.648 337.141C269.838 337.085 270.035 337.059 270.232 337.063L283.132 337.396C283.239 337.4 283.345 337.414 283.45 337.436Z" fill="white"/>
<path d="M278.668 361.448C277.845 361.798 276.956 361.964 276.062 361.933C275.169 361.902 274.292 361.676 273.496 361.27C272.699 360.863 272.001 360.288 271.451 359.583C270.901 358.877 270.512 358.06 270.312 357.189L248.702 354.842L255.902 346.137L275.319 349.7C276.806 349.461 278.328 349.775 279.598 350.584C280.868 351.392 281.798 352.638 282.211 354.086C282.624 355.534 282.491 357.084 281.838 358.44C281.185 359.797 280.057 360.867 278.668 361.448Z" fill="#D5A495"/>
<path d="M215.58 358.131L173.064 328.92C169.697 326.601 167.386 323.04 166.64 319.02C165.894 314.999 166.773 310.847 169.085 307.474C170.367 305.608 172.043 304.047 173.996 302.902C175.949 301.757 178.13 301.056 180.384 300.849C182.638 300.641 184.91 300.933 187.039 301.703C189.168 302.473 191.101 303.702 192.702 305.303L225.079 337.694L264.586 344.009L264.93 356.804L215.58 358.131Z" fill="#C6C99D"/>
<path d="M525.317 513.771L20.681 514C20.5002 513.999 20.327 513.906 20.1994 513.74C20.0717 513.574 20 513.349 20 513.114C20 512.88 20.0717 512.655 20.1994 512.489C20.327 512.323 20.5002 512.229 20.681 512.229L525.317 512C525.498 512 525.672 512.093 525.8 512.259C525.928 512.426 526 512.651 526 512.886C526 513.121 525.928 513.346 525.8 513.512C525.672 513.678 525.498 513.771 525.317 513.771Z" fill="#2F2E41"/>
<path d="M525.317 513.771L20.681 514C20.5002 513.999 20.327 513.906 20.1994 513.74C20.0717 513.574 20 513.349 20 513.114C20 512.88 20.0717 512.655 20.1994 512.489C20.327 512.323 20.5002 512.229 20.681 512.229L525.317 512C525.498 512 525.672 512.093 525.8 512.259C525.928 512.426 526 512.651 526 512.886C526 513.121 525.928 513.346 525.8 513.512C525.672 513.678 525.498 513.771 525.317 513.771Z" fill="#2F2E41"/>
<path d="M309.913 90.4426C323.145 90.4426 333.872 79.7144 333.872 66.4806C333.872 53.2467 323.145 42.5186 309.913 42.5186C296.681 42.5186 285.955 53.2467 285.955 66.4806C285.955 79.7144 296.681 90.4426 309.913 90.4426Z" fill="#D5A495"/>
<path d="M363.538 55.1355C362.152 50.4932 358.237 47.4626 353.507 46.7977C353.455 46.7904 353.405 46.8001 353.354 46.7968C353.287 46.7763 353.218 46.7605 353.149 46.7496C346.448 45.9328 339.668 47.4089 333.913 50.9375C328.367 54.4 321.906 55.9661 315.374 56.2205C315.335 56.222 315.297 56.2237 315.258 56.2256C312.83 56.3875 310.511 57.2937 308.616 58.8211C306.721 60.3485 305.343 62.4227 304.67 64.7614C304.598 65.0476 304.619 65.3493 304.73 65.6226C304.842 65.896 305.037 66.1268 305.288 66.2816C306.012 66.895 306.869 67.3302 307.791 67.5524C309.781 67.974 311.778 68.3602 313.782 68.711C317.692 69.3954 321.623 69.9488 325.574 70.371C333.595 71.2307 341.665 71.5357 349.728 71.2841C352.413 71.2004 355.002 71.1113 357.463 69.926C359.253 69.0418 360.782 67.7071 361.9 66.0531C362.954 64.4633 363.646 62.6621 363.929 60.7759C364.212 58.8898 364.079 56.9645 363.538 55.1355Z" fill="#E6E6E6"/>
<path d="M454.974 142.699C456.093 144.353 457.622 145.688 459.412 146.572C461.872 147.757 464.462 147.847 467.147 147.93C475.21 148.182 483.28 147.877 491.3 147.017C495.248 146.594 499.178 146.04 503.093 145.357C505.096 145.007 507.093 144.62 509.083 144.199C510.005 143.976 510.863 143.541 511.586 142.928C511.838 142.773 512.033 142.542 512.144 142.269C512.255 141.995 512.277 141.694 512.205 141.408C511.531 139.069 510.153 136.995 508.259 135.467C506.364 133.94 504.045 133.034 501.617 132.872C501.578 132.87 501.54 132.868 501.501 132.867C494.968 132.612 488.508 131.046 482.962 127.584C477.207 124.055 470.426 122.579 463.725 123.396C463.656 123.407 463.588 123.422 463.521 123.443C463.469 123.446 463.42 123.436 463.368 123.444C458.637 124.109 454.722 127.139 453.337 131.782C452.796 133.611 452.662 135.536 452.945 137.422C453.228 139.308 453.921 141.109 454.974 142.699Z" fill="#E6E6E6"/>
<path d="M313.742 87.0848C312.356 82.4425 308.441 79.4119 303.711 78.7471C303.659 78.7397 303.609 78.7494 303.557 78.7461C303.49 78.7256 303.422 78.7099 303.353 78.699C296.652 77.8822 289.872 79.3583 284.116 82.8869C278.571 86.3494 272.11 87.9157 265.578 88.1699C265.539 88.1714 265.5 88.1731 265.462 88.175C263.034 88.3368 260.714 89.2431 258.82 90.7705C256.925 92.2978 255.547 94.3721 254.873 96.7108C254.802 96.997 254.823 97.2987 254.934 97.572C255.046 97.8453 255.241 98.0762 255.492 98.231C256.216 98.8443 257.073 99.2796 257.995 99.5018C259.985 99.9233 261.982 100.31 263.986 100.66C267.896 101.345 271.827 101.898 275.778 102.32C283.799 103.18 291.869 103.485 299.931 103.234C302.617 103.15 305.206 103.061 307.667 101.875C309.457 100.991 310.986 99.6564 312.104 98.0025C313.158 96.4127 313.85 94.6114 314.133 92.7252C314.416 90.8391 314.283 88.9138 313.742 87.0848Z" fill="#E6E6E6"/>
</svg>
