<svg width="393" height="292" viewBox="0 0 393 292" fill="none" xmlns="http://www.w3.org/2000/svg">
<g clip-path="url(#clip0_593_1029)">
<rect width="393" height="292" fill="#036751"/>
<path d="M372.086 242.082C368.337 236.968 370.273 228.892 370.273 228.892C370.273 228.892 369.164 193.361 363.33 185.016C363.33 185.016 354.99 165.635 353.605 164.827C352.22 164.018 343.884 158.367 344.714 155.27C344.714 155.27 343.456 155.691 341.668 156.33C341.621 156.213 341.578 156.097 341.531 155.977C341.016 154.596 340.443 152.971 339.899 151.315C339.956 151.286 340.009 151.249 340.055 151.205C340.096 151.294 340.143 151.38 340.196 151.463C340.758 152.297 341.821 152.682 342.843 152.784C343.351 152.862 343.871 152.796 344.341 152.593C344.675 152.416 344.945 152.142 345.113 151.809C345.048 151.838 344.979 151.855 344.91 151.88C345.305 151.281 345.486 150.573 345.425 149.864C345.364 148.854 345.066 147.871 344.553 146.992C344.039 146.113 343.326 145.36 342.466 144.792C342.812 144.671 343.128 144.481 343.394 144.234L343.536 144.33C343.659 144.204 343.77 144.068 343.869 143.923C343.761 143.989 343.648 144.048 343.532 144.1C343.85 143.776 344.083 143.382 344.212 142.952C344.342 142.522 344.363 142.068 344.275 141.628C344.141 142.069 343.601 142.235 343.137 142.334C342.865 142.391 342.626 142.437 342.412 142.472C342.977 141.429 343.443 140.338 343.804 139.212C344.486 136.815 344.123 134.268 343.547 131.846C342.767 128.579 341.483 125.217 338.735 123.088C337.49 122.201 336.142 121.461 334.718 120.884C333.43 120.253 332.08 119.75 330.689 119.383C329.275 119.062 327.788 119.03 326.367 118.843C323.568 118.489 320.859 117.561 318.028 117.409C315.196 117.257 312.059 118.083 310.613 120.365C310.151 121.05 309.935 121.864 309.996 122.681C310.001 122.743 310.009 122.804 310.022 122.865C310.022 122.865 310.022 122.865 310.022 122.883C310.174 124.32 311.403 125.5 312.81 126.082C313.046 126.178 313.289 126.261 313.535 126.329C311.387 128.092 309.727 130.351 308.706 132.899C307.685 135.448 307.336 138.205 307.69 140.918C308.045 143.632 309.092 146.216 310.735 148.434C312.379 150.653 314.567 152.435 317.099 153.618C317.27 153.971 317.462 154.303 317.625 154.677C319.801 159.056 322.564 165.095 323.448 169.244C323.448 169.319 323.474 169.389 323.488 169.46C323.405 169.661 313.035 187.672 314.503 188.731L314.075 189.183C311.316 192.129 308.459 195.54 308.607 196.914C308.607 196.914 307.712 196.561 306.323 195.946L306.417 194.961L305.732 195V194.961L304.253 195.042C299.39 192.884 292.012 189.392 290.547 187.435C288.846 185.165 280.3 178.96 276.406 176.166V164.223H261.83L257.867 166.674L261.833 164.223H212.648L209.33 162.351L208.261 161.744C208.31 161.472 208.31 161.195 208.261 160.924C208.261 160.924 191.382 145.386 190.548 142.352C190.548 142.352 188.851 140.117 186.922 137.295L210.545 138.919C209.523 138.337 209.095 137.154 208.993 135.759H219.574C219.574 135.759 243.744 120.548 242.214 115.703C240.684 110.858 215.128 128.77 215.128 128.77H210.15C210.375 128.063 210.541 127.626 210.541 127.626C210.541 127.626 197.829 127.424 197.223 126.566C196.618 125.708 190.334 124.186 190.334 124.186L193.558 109.791C194.718 108.061 196.962 104.632 197.941 102.584C198.333 101.764 198.438 100.111 198.387 98.1727V98.1409C202.278 94.9201 200.664 82.249 200.657 82.1855C202.655 79.6293 205.023 77.3691 207.688 75.4756C207.924 75.3167 208.163 75.1613 208.413 75.0094C210.908 76.2402 213.65 76.9256 216.445 77.0177C219.241 77.1098 222.023 76.6065 224.598 75.5428C227.173 74.4791 229.479 72.8807 231.354 70.8592C233.229 68.8378 234.629 66.442 235.455 63.8392C235.531 63.5956 235.604 63.3483 235.669 63.1011C235.861 63.1718 236.05 63.2495 236.238 63.3166C236.49 63.4069 236.754 63.4605 237.021 63.4755C237.225 63.5067 237.434 63.4835 237.626 63.4082C237.817 63.333 237.984 63.2085 238.109 63.0482C238.37 62.6597 238.254 62.1653 238.236 61.6956H238.218C238.218 61.6214 238.218 61.5437 238.218 61.4731C238.248 61.0573 238.406 60.6599 238.671 60.3324V60.3572C239.019 59.9148 239.464 59.553 239.973 59.2977C240.847 58.8421 241.829 58.5914 242.671 58.0793C243.365 57.6243 243.945 57.0237 244.37 56.3215C244.795 55.6194 245.053 54.8335 245.125 54.0216L245.103 54.064C245.125 53.8627 245.14 53.6614 245.143 53.4601C245.115 51.9082 244.61 50.4002 243.693 49.1305C242.475 47.3647 241.224 47.9297 239.617 47.0115C238.686 46.4853 238.403 45.4224 237.863 44.5713C236.922 43.1464 235.675 41.9377 234.208 41.0291C232.032 39.6165 229.545 38.7054 227.275 37.4305C224.157 35.6648 221.419 33.2527 218.047 32.0273C216.293 31.4517 214.484 31.0471 212.648 30.8195C211.607 30.6571 210.534 30.4946 209.508 30.7171C208.101 31.0244 206.97 32.0061 205.704 32.67C202.662 34.2663 198.764 34.0544 196.002 36.0709C193.137 38.158 192.376 41.9367 191.803 45.3623C190.82 51.2211 189.722 57.2318 186.531 62.3136C186.344 62.5395 186.25 62.8256 186.27 63.1153C186.347 63.3431 186.497 63.541 186.697 63.6803C187.121 64.0389 187.566 64.3716 188.032 64.6762H187.622C186.629 64.0817 185.772 63.2943 185.106 62.3631C184.905 62.0875 184.645 61.8582 184.343 61.6912C184.042 61.5243 183.706 61.4238 183.361 61.3969C183.015 61.3699 182.667 61.4172 182.342 61.5353C182.017 61.6534 181.723 61.8395 181.48 62.0805C181.44 62.1229 181.396 62.1688 181.364 62.2112C180.737 63.0199 155.943 71.9158 150.736 77.0436C145.609 82.1078 140.076 89.4251 139.905 89.6546C139.905 89.6546 139.561 90.0078 138.944 90.6576C136.337 93.3663 128.77 100.994 121.475 106.355C121.112 106.62 120.75 106.878 120.387 107.129L120.253 107.217C118.268 108.54 116.211 109.755 114.089 110.858C113.94 110.921 113.792 110.996 113.643 111.056C113.459 111.131 113.282 111.221 113.114 111.324L113.07 111.345C111.747 111.939 110.572 112.309 109.897 112.161C107.606 111.656 91.5648 130.027 90.1036 138.104C88.6423 146.18 86.978 146.579 86.978 146.579C86.978 146.579 84.2695 154.048 84.6865 155.461C84.9947 156.503 82.8119 160.405 82.2245 164.23C73.4353 164.29 39.9356 164.654 10.8487 166.631C9.69495 168.96 8.68515 171.354 7.82467 173.8C7.7449 174.019 7.67601 174.238 7.59986 174.461C7.09124 175.992 6.66999 177.549 6.33805 179.126C5.44067 183.229 5.36066 187.462 6.10237 191.595C7.37868 198.514 11.146 204.729 14.8408 210.779C17.0163 214.335 19.1919 217.902 21.4508 221.426C21.8134 221.998 22.176 222.567 22.5603 223.139C23.6698 224.852 24.7902 226.558 25.9433 228.239L26.3929 228.892L26.6141 229.206C26.7954 229.467 26.9767 229.729 27.1543 229.987C29.6163 233.49 32.1943 236.908 34.9573 240.172L36.6796 242.163C38.5904 244.321 40.5883 246.401 42.6913 248.393L42.7602 248.46L42.8327 248.527L42.9197 248.608C42.9409 248.631 42.964 248.653 42.9886 248.672C43.0612 248.746 43.1409 248.817 43.2207 248.887C46.0741 251.537 49.0852 254.02 52.2383 256.325C55.0484 253.122 59.2689 249.339 59.2689 249.339L79.6864 232.388C80.8491 231.366 82.0984 230.44 83.421 229.623L85.4479 229.669C88.1601 232.162 92.3625 234.26 97.3191 235.987C97.6618 237.413 98.0892 238.818 98.599 240.196H102.225C102.225 240.196 104.038 250.289 102.845 252.984C101.652 255.678 103.055 268.731 112.78 272.231C112.78 272.231 117.646 273.039 118.618 267.922C119.589 262.805 119.727 251.773 119.727 251.773L120.985 241.531C134.118 243.597 145.529 244.236 145.529 244.236L146.889 256.798H159.739C159.888 256.883 160.036 256.964 160.181 257.052L160.475 257.225C160.819 257.434 161.157 257.645 161.487 257.864L161.541 257.9C166.828 261.368 170.522 265.81 172.926 269.455C178.706 267.23 184.562 265.305 190.57 264.133C198.489 262.59 206.524 262.367 214.599 262.865L218.315 257.9L219.142 256.798H226.945L227.409 264.101C231.51 264.617 235.6 265.224 239.668 265.828L243.635 266.425V256.734L265.753 256.081C265.731 257.353 265.896 258.622 266.242 259.849C266.775 261.968 266.826 266.206 266.685 270.624C269.23 271.224 271.756 271.894 274.263 272.633C280.282 274.42 286.141 276.645 291.968 278.951C291.743 277.8 291.5 276.857 291.243 276.536C290.413 275.476 296.482 274.251 296.482 274.251C296.482 274.251 297.07 274.145 298.049 273.979V281.374C299.775 282.059 301.502 282.737 303.23 283.408L303.169 281.978L304.202 283.779C304.496 283.895 304.797 284.008 305.094 284.132H305.137C307.011 284.838 308.893 285.524 310.783 286.191L357.949 285.742V289.274H357.989C359.688 288.686 361.345 287.989 362.949 287.187L362.884 285.672L365.737 285.643H367.213V277.588L369.16 277.63V274.671L361.281 266.933C365.414 263.981 370.505 258.362 369.871 248.852C369.871 248.757 369.871 248.654 369.845 248.559C369.845 248.379 369.816 248.206 369.798 248.019C371.542 248.693 375.317 246.486 372.086 242.082ZM321.904 217.4C321.904 218.562 321.769 219.724 321.389 220.413C320.413 222.178 320.138 226.063 322.219 227.01C324.3 227.956 324.594 231.717 324.518 232.257H324.496C324.173 232.363 320.939 233.465 319.587 235.369C316.436 235.471 312.436 235.531 311.94 235.21C311.109 234.673 293.926 235.884 292.722 236.018C292.298 236.064 290.5 236.181 288.346 236.308L302.327 218.258C302.401 218.368 302.458 218.487 302.498 218.612C303.053 220.794 313.332 219.318 314.721 216.422C315.096 215.752 315.617 215.17 316.247 214.716L321.904 217.4ZM248.947 172.197L237.554 179.239L248.943 172.2L248.947 172.197ZM126.555 164.223L127.349 163.117L128.368 163.439L130.826 164.223H126.555ZM194.218 164.223H187.666C186.012 159.632 182.542 152.569 176.578 151.234C167.618 149.214 156.998 145.986 156.998 145.986C156.998 145.986 153.695 142.539 151.751 141.847C151.5 141.74 151.224 141.705 150.953 141.745L154.177 135.388C155.694 134.125 157.332 133.006 159.068 132.047C159.728 131.694 160.558 131.295 161.454 130.86C161.983 130.599 162.542 130.331 163.1 130.062C163.126 132.199 163.274 133.922 163.651 134.47C164.902 136.288 165.946 137.701 167.611 139.114C168.891 140.198 186.103 156.52 194.218 164.223ZM197.242 86.9283L197.564 86.4374C198.485 85.0248 199.515 83.6122 200.643 82.1996L197.242 86.9283ZM242.043 190.434V234.468V250.95V190.434Z" fill="url(#paint0_linear_593_1029)"/>
<path opacity="0.1" d="M389.447 245.377C385.792 260.562 378.61 276.101 365.567 284.76C365.092 285.082 364.603 285.389 364.117 285.689C363.392 286.12 362.666 286.537 361.941 286.929C361.753 287.031 361.579 287.126 361.376 287.222C359.788 288.02 358.148 288.713 356.466 289.298C344.029 293.667 329.75 292.244 316.904 288.507C314.496 287.801 312.11 287.035 309.75 286.205C307.875 285.551 306.015 284.863 304.159 284.156H304.115C303.822 284.047 303.524 283.934 303.234 283.803L302.27 283.45C300.558 282.786 298.851 282.11 297.146 281.423C295.138 280.621 293.132 279.813 291.127 279.015C285.359 276.719 279.561 274.508 273.603 272.732C271.127 271.994 268.621 271.319 266.105 270.733C258.596 268.943 250.952 267.7 243.302 266.538L239.339 265.944C235.314 265.34 231.264 264.74 227.206 264.225C222.986 263.688 218.754 263.243 214.516 262.996C206.539 262.519 198.562 262.724 190.737 264.256C184.79 265.422 178.996 267.336 173.275 269.554C154.87 276.68 137.222 286.886 117.798 285.163C108.117 284.305 99.0053 280.477 90.1798 276.511C77.5145 270.825 64.8783 264.659 53.841 256.505C50.7254 254.217 47.7518 251.751 44.9358 249.12C44.856 249.053 44.7799 248.979 44.7038 248.908L44.6385 248.845L44.5515 248.764L44.4101 248.629C42.3288 246.652 40.3527 244.579 38.4599 242.432L36.7558 240.454C34.0218 237.205 31.4692 233.804 29.0362 230.318L28.2567 229.217L27.8107 228.567C26.2926 226.335 24.8108 224.076 23.3653 221.79C21.139 218.283 18.978 214.727 16.8387 211.195C13.1802 205.192 9.45273 198.99 8.19091 192.125C7.45714 188.013 7.53591 183.802 8.42297 179.719C8.75346 178.151 9.16982 176.602 9.67028 175.078C9.74642 174.856 9.81532 174.641 9.89509 174.422C10.7442 171.987 11.7443 169.605 12.8901 167.288C20.7692 151.131 34.7833 135.653 34.2829 117.794C33.8877 104.021 24.8954 92.1655 18.0787 80.0948C11.2621 68.024 6.59189 52.4712 14.4528 41.0115C21.1028 31.2857 34.2104 28.298 46.1106 26.8112C58.2248 25.2687 70.4279 24.4831 82.6452 24.4592C91.9021 24.4275 100.695 26.4969 109.767 26.79C120.869 27.1432 133.172 22.1178 143.85 19.5081C156.227 16.4898 168.589 13.4739 180.936 10.4603C202.046 5.31135 223.399 0.148276 245.158 -4.76136e-05C266.917 -0.148371 289.463 5.29723 305.936 19.1443C311.577 23.8942 316.512 29.7212 318.789 36.6394C323.525 51.0304 316.052 67.1765 320.602 81.6204C324.536 94.0619 336.306 102.223 346.234 110.932C383.809 143.934 400.999 197.415 389.447 245.377Z" fill="#C0F1A1"/>
<path d="M300.743 259.732L299.137 260.757L302.175 282.016L309.713 286.212L365.57 285.675L364.559 273.156L300.743 259.732Z" fill="#3A3768"/>
<path d="M302.233 283.44C300.522 282.776 298.814 282.1 297.11 281.413V271.132L301.787 273.213V273.283L302.168 282.017L302.233 283.44Z" fill="#3A3768"/>
<path opacity="0.1" d="M302.233 283.44C300.522 282.776 298.814 282.1 297.11 281.413V271.132L301.787 273.213V273.283L302.168 282.017L302.233 283.44Z" fill="black"/>
<path d="M361.338 287.225C359.751 288.023 358.111 288.717 356.429 289.301H356.389V279.004L361.063 281.084V281.158L361.262 285.721L361.338 287.225Z" fill="#3A3768"/>
<path opacity="0.1" d="M361.338 287.225C359.751 288.023 358.111 288.717 356.429 289.301H356.389V279.004L361.063 281.084V281.158L361.262 285.721L361.338 287.225Z" fill="black"/>
<path d="M365.566 276.49V285.671H364.116L309.727 286.187C307.853 285.534 305.993 284.845 304.136 284.139H304.093L303.172 273.399L365.566 276.49Z" fill="#3A3768"/>
<path d="M304.122 284.16H304.078C303.785 284.051 303.487 283.938 303.197 283.807L302.171 282.016L297.588 273.975L297.109 273.135L295.735 270.73L299.133 260.774L303.056 273.11L303.157 273.424L303.411 276.249L304.122 284.16Z" fill="#3A3768"/>
<path d="M297.11 254.396H346.875L367.496 274.749L303.161 273.41L297.11 254.396Z" fill="#3A3768"/>
<path d="M367.495 274.749V277.694L303.411 276.221L303.161 273.41L367.495 274.749Z" fill="#3A3768"/>
<path opacity="0.1" d="M367.495 274.749V277.694L303.411 276.221L303.161 273.41L367.495 274.749Z" fill="black"/>
<path d="M322.266 235.499C322.266 235.499 311.682 236.036 310.855 235.499C310.029 234.962 293.027 236.167 291.837 236.301C290.648 236.435 278.552 237.113 278.552 237.113L277.588 255.993L320.754 249.431L322.266 235.499Z" fill="#F3B4B3"/>
<path opacity="0.1" d="M322.266 235.499C322.266 235.499 311.682 236.036 310.855 235.499C310.029 234.962 293.027 236.167 291.837 236.301C290.648 236.435 278.552 237.113 278.552 237.113L277.588 255.993L320.754 249.431L322.266 235.499Z" fill="black"/>
<path d="M223.83 216.008L272.573 227.122L274.545 256.292L217.075 256.511L223.83 216.008Z" fill="#3A3768"/>
<path d="M261.086 164.876L225.98 184.755L234.53 209.567L236.474 241.598L261.833 236.315L274.546 210.92L285.884 195.455L275.459 176.731L261.086 164.876Z" fill="#3A3768"/>
<path d="M57.7351 188.085C57.7351 188.085 45.8204 163.951 51.7959 143.842C54.3594 135.423 54.049 126.421 50.9112 118.189C49.3956 114.293 47.5168 110.539 45.2983 106.977" stroke="#535461" stroke-width="2" stroke-miterlimit="10"/>
<path d="M48.9714 94.281C49.4935 97.3888 45.2258 107.319 45.2258 107.319C45.2258 107.319 37.9414 99.2251 37.4193 96.1174C37.1692 94.6254 37.538 93.0977 38.4444 91.8705C39.3508 90.6433 40.7207 89.817 42.2526 89.5735C43.7845 89.33 45.353 89.6891 46.613 90.572C47.873 91.4548 48.7213 92.789 48.9714 94.281Z" fill="#C0F1A1"/>
<path d="M61.4046 109.978C60.1101 112.864 50.9874 118.941 50.9874 118.941C50.9874 118.941 49.3848 108.29 50.6828 105.405C51.3055 104.02 52.4675 102.933 53.9131 102.383C55.3588 101.832 56.9697 101.864 58.3915 102.47C59.8133 103.077 60.9295 104.209 61.4945 105.617C62.0596 107.025 62.0273 108.594 61.4046 109.978Z" fill="#C0F1A1"/>
<path d="M65.9188 139.456C63.3045 141.307 52.2781 142.069 52.2781 142.069C52.2781 142.069 56.4189 132.086 59.0332 130.235C60.2886 129.345 61.8555 128.978 63.3892 129.213C64.923 129.449 66.2978 130.268 67.2114 131.491C68.125 132.713 68.5024 134.24 68.2606 135.733C68.0189 137.227 67.1778 138.566 65.9224 139.456H65.9188Z" fill="#C0F1A1"/>
<path d="M64.1747 162.51C61.9194 164.766 51.1867 167.327 51.1867 167.327C51.1867 167.327 53.5327 156.81 55.788 154.553C56.3244 154.017 56.964 153.589 57.6703 153.293C58.3766 152.997 59.1358 152.84 59.9044 152.83C60.6731 152.821 61.4363 152.958 62.1503 153.236C62.8643 153.513 63.5152 153.925 64.0659 154.447C64.6166 154.97 65.0562 155.593 65.3597 156.281C65.6632 156.968 65.8246 157.708 65.8347 158.457C65.8448 159.205 65.7034 159.948 65.4186 160.644C65.1338 161.339 64.7111 161.973 64.1747 162.51Z" fill="#C0F1A1"/>
<path d="M38.9566 121.467C41.6108 123.268 52.648 123.815 52.648 123.815C52.648 123.815 48.2969 113.927 45.6573 112.115C45.0279 111.665 44.3124 111.343 43.5531 111.166C42.7937 110.989 42.0058 110.962 41.2356 111.087C40.4654 111.211 39.7284 111.484 39.0682 111.89C38.4079 112.296 37.8376 112.826 37.3908 113.449C36.944 114.073 36.6297 114.777 36.4665 115.521C36.3032 116.264 36.2943 117.032 36.4402 117.779C36.5861 118.526 36.8838 119.237 37.316 119.87C37.7482 120.504 38.306 121.046 38.9566 121.467Z" fill="#C0F1A1"/>
<path d="M37.2706 148.472C40.3526 149.418 51.049 146.724 51.049 146.724C51.049 146.724 43.8697 138.541 40.7841 137.595C39.3149 137.18 37.7375 137.342 36.3893 138.046C35.0411 138.749 34.029 139.939 33.5696 141.36C33.1101 142.781 33.2397 144.32 33.9307 145.65C34.6216 146.979 35.8191 147.992 37.267 148.472H37.2706Z" fill="#C0F1A1"/>
<path d="M39.3264 174.902C42.2018 176.342 53.2136 175.449 53.2136 175.449C53.2136 175.449 47.5536 166.204 44.6782 164.763C43.9947 164.42 43.2487 164.213 42.4827 164.151C41.7167 164.09 40.9458 164.176 40.214 164.405C39.4822 164.633 38.8038 165 38.2176 165.484C37.6314 165.968 37.1488 166.56 36.7974 167.226C36.446 167.892 36.2326 168.618 36.1696 169.364C36.1065 170.11 36.1949 170.861 36.4297 171.574C36.6646 172.287 37.0413 172.947 37.5383 173.518C38.0353 174.089 38.6429 174.559 39.3264 174.902Z" fill="#C0F1A1"/>
<path opacity="0.25" d="M48.9714 94.281C49.4935 97.3888 45.2258 107.319 45.2258 107.319C45.2258 107.319 37.9414 99.2251 37.4193 96.1174C37.1692 94.6254 37.538 93.0977 38.4444 91.8705C39.3508 90.6433 40.7207 89.817 42.2526 89.5735C43.7845 89.33 45.353 89.6891 46.613 90.572C47.873 91.4548 48.7213 92.789 48.9714 94.281Z" fill="black"/>
<path opacity="0.25" d="M61.4046 109.978C60.1101 112.864 50.9874 118.941 50.9874 118.941C50.9874 118.941 49.3848 108.29 50.6828 105.405C51.3055 104.02 52.4675 102.933 53.9131 102.383C55.3588 101.832 56.9697 101.864 58.3915 102.47C59.8133 103.077 60.9295 104.209 61.4945 105.617C62.0596 107.025 62.0273 108.594 61.4046 109.978Z" fill="black"/>
<path opacity="0.25" d="M65.9188 139.456C63.3045 141.307 52.2781 142.069 52.2781 142.069C52.2781 142.069 56.4189 132.086 59.0332 130.235C60.2886 129.345 61.8555 128.978 63.3892 129.213C64.923 129.449 66.2978 130.268 67.2114 131.491C68.125 132.713 68.5024 134.24 68.2606 135.733C68.0189 137.227 67.1778 138.566 65.9224 139.456H65.9188Z" fill="black"/>
<path opacity="0.25" d="M64.1747 162.51C61.9194 164.766 51.1867 167.327 51.1867 167.327C51.1867 167.327 53.5327 156.81 55.788 154.553C56.3244 154.017 56.964 153.589 57.6703 153.293C58.3766 152.997 59.1358 152.84 59.9044 152.83C60.6731 152.821 61.4363 152.958 62.1503 153.236C62.8643 153.513 63.5152 153.925 64.0659 154.447C64.6166 154.97 65.0562 155.593 65.3597 156.281C65.6632 156.968 65.8246 157.708 65.8347 158.457C65.8448 159.205 65.7034 159.948 65.4186 160.644C65.1338 161.339 64.7111 161.973 64.1747 162.51Z" fill="black"/>
<path opacity="0.25" d="M38.9566 121.467C41.6108 123.268 52.648 123.815 52.648 123.815C52.648 123.815 48.2969 113.927 45.6573 112.115C45.0279 111.665 44.3124 111.343 43.5531 111.166C42.7937 110.989 42.0058 110.962 41.2356 111.087C40.4654 111.211 39.7284 111.484 39.0682 111.89C38.4079 112.296 37.8376 112.826 37.3908 113.449C36.944 114.073 36.6297 114.777 36.4665 115.521C36.3032 116.264 36.2943 117.032 36.4402 117.779C36.5861 118.526 36.8838 119.237 37.316 119.87C37.7482 120.504 38.306 121.046 38.9566 121.467Z" fill="black"/>
<path opacity="0.25" d="M37.2706 148.472C40.3526 149.418 51.049 146.724 51.049 146.724C51.049 146.724 43.8697 138.541 40.7841 137.595C39.3149 137.18 37.7375 137.342 36.3893 138.046C35.0411 138.749 34.029 139.939 33.5696 141.36C33.1101 142.781 33.2397 144.32 33.9307 145.65C34.6216 146.979 35.8191 147.992 37.267 148.472H37.2706Z" fill="black"/>
<path opacity="0.25" d="M39.3264 174.902C42.2018 176.342 53.2136 175.449 53.2136 175.449C53.2136 175.449 47.5536 166.204 44.6782 164.763C43.9947 164.42 43.2487 164.213 42.4827 164.151C41.7167 164.09 40.9458 164.176 40.214 164.405C39.4822 164.633 38.8038 165 38.2176 165.484C37.6314 165.968 37.1488 166.56 36.7974 167.226C36.446 167.892 36.2326 168.618 36.1696 169.364C36.1065 170.11 36.1949 170.861 36.4297 171.574C36.6646 172.287 37.0413 172.947 37.5383 173.518C38.0353 174.089 38.6429 174.559 39.3264 174.902Z" fill="black"/>
<path d="M57.7895 187.199C57.7895 187.199 36.8536 169.838 33.9529 149.094C32.7877 140.384 28.7532 132.277 22.4552 125.991C19.4502 123.03 16.1732 120.343 12.6653 117.963" stroke="#535461" stroke-width="2" stroke-miterlimit="10"/>
<path d="M10.7508 104.9C12.5202 107.535 12.7487 118.299 12.7487 118.299C12.7487 118.299 2.72306 113.775 0.953625 111.14C0.507832 110.515 0.195287 109.809 0.0344498 109.063C-0.126388 108.318 -0.132257 107.549 0.0171907 106.801C0.166638 106.054 0.468371 105.343 0.904568 104.711C1.34077 104.079 1.90258 103.539 2.55684 103.121C3.21109 102.704 3.94451 102.419 4.71378 102.283C5.48306 102.147 6.27258 102.162 7.03573 102.328C7.79887 102.493 8.52017 102.807 9.157 103.248C9.79384 103.69 10.3333 104.252 10.7435 104.9H10.7508Z" fill="#C0F1A1"/>
<path d="M28.6482 114.34C28.6482 117.49 22.8467 126.644 22.8467 126.644C22.8467 126.644 16.951 117.539 16.9365 114.393C16.9138 113.632 17.0475 112.875 17.3297 112.166C17.612 111.457 18.037 110.81 18.5799 110.263C19.1228 109.716 19.7726 109.28 20.4909 108.981C21.2092 108.683 21.9816 108.527 22.7627 108.524C23.5437 108.52 24.3176 108.669 25.0387 108.961C25.7599 109.253 26.4138 109.683 26.9618 110.225C27.5099 110.767 27.9411 111.41 28.2301 112.117C28.5191 112.823 28.66 113.579 28.6446 114.34H28.6482Z" fill="#C0F1A1"/>
<path d="M45.0373 139.513C43.4165 142.235 33.6556 147.282 33.6556 147.282C33.6556 147.282 33.293 136.525 34.9065 133.799C35.6845 132.49 36.9642 131.536 38.4643 131.147C39.9644 130.757 41.5618 130.964 42.9052 131.722C44.2487 132.48 45.228 133.726 45.6278 135.187C46.0277 136.648 45.8152 138.204 45.0373 139.513Z" fill="#C0F1A1"/>
<path d="M53.036 161.277C51.9119 164.226 43.1663 170.812 43.1663 170.812C43.1663 170.812 40.9472 160.264 42.0568 157.301C42.6151 155.907 43.7133 154.783 45.1146 154.171C46.5159 153.558 48.1081 153.506 49.5481 154.027C50.9882 154.547 52.1608 155.597 52.8132 156.951C53.4656 158.306 53.5456 159.855 53.036 161.267V161.277Z" fill="#C0F1A1"/>
<path d="M12.9046 133.707C16.0808 134.307 26.3965 130.451 26.3965 130.451C26.3965 130.451 18.3108 123.112 15.1381 122.512C13.6286 122.258 12.077 122.59 10.816 123.438C9.55507 124.285 8.68522 125.58 8.39301 127.044C8.10079 128.509 8.40949 130.027 9.25288 131.272C10.0963 132.518 11.4072 133.392 12.9046 133.707Z" fill="#C0F1A1"/>
<path d="M22.5894 159.042C25.8019 158.689 34.4642 152.007 34.4642 152.007C34.4642 152.007 24.4966 147.36 21.284 147.713C20.5203 147.796 19.7809 148.025 19.1081 148.387C18.4352 148.749 17.8422 149.236 17.3627 149.821C16.3944 151.003 15.9477 152.511 16.1208 154.013C16.2065 154.757 16.4418 155.477 16.8132 156.132C17.1847 156.788 17.685 157.365 18.2857 157.832C19.4988 158.775 21.0469 159.211 22.5894 159.042Z" fill="#C0F1A1"/>
<path d="M35.4721 182.413C38.6992 182.593 48.3984 177.43 48.3984 177.43C48.3984 177.43 39.3772 171.211 36.1502 171.028C34.6175 170.969 33.1226 171.499 31.9868 172.503C30.8509 173.507 30.1649 174.905 30.0761 176.396C29.9872 177.888 30.5028 179.354 31.5118 180.479C32.5208 181.604 33.9428 182.298 35.4721 182.413Z" fill="#C0F1A1"/>
<path d="M243.272 251.462V266.527L239.309 265.934C235.285 265.33 231.234 264.73 227.177 264.214L226.717 256.946L226.68 256.293L226.158 248.061L241.681 251.137L242.13 251.225L243.272 251.462Z" fill="#3A3768"/>
<path opacity="0.1" d="M243.272 251.462V266.527L239.309 265.934C235.285 265.33 231.234 264.73 227.177 264.214L226.717 256.946L226.68 256.293L226.158 248.061L241.681 251.137L242.13 251.225L243.272 251.462Z" fill="black"/>
<path d="M224.124 250.046L219.472 256.293L218.979 256.946L218.163 258.045L214.483 262.989C206.506 262.512 198.529 262.717 190.704 264.249C184.758 265.415 178.963 267.329 173.242 269.547C170.863 265.92 167.205 261.502 161.976 258.052C161.407 257.674 160.816 257.31 160.207 256.953C159.819 256.731 159.427 256.512 159.025 256.3C156.551 254.996 153.918 254.002 151.189 253.341L224.124 250.046Z" fill="#3A3768"/>
<path d="M38.4417 242.411L47.3143 230.096L48.0902 229.037L48.5543 228.391L52.6081 222.761H52.4812C51.0308 222.698 37.7057 222.172 23.3725 221.804C24.8229 224.086 26.3046 226.345 27.8178 228.581L28.2638 229.231L29.018 230.319C31.451 233.804 34.0036 237.205 36.7375 240.454L38.4417 242.411Z" fill="#3A3768"/>
<path d="M261.267 164.872L257.341 167.309L248.512 172.794L234.294 181.622L233.243 182.272L233.58 192.489L171.117 195.441H102.243L83.6639 190.917L83.2759 190.822L82.8879 190.727L79.2149 189.83L63.0652 185.906L8.41571 179.708C8.74619 178.141 9.16256 176.592 9.66302 175.068C9.73916 174.845 9.80805 174.63 9.88782 174.411C10.7369 171.976 11.7371 169.594 12.8828 167.277C41.6688 165.31 74.8203 164.95 83.5188 164.89L85.6944 164.872H261.267Z" fill="#3A3768"/>
<path opacity="0.1" d="M224.127 250.046L151.196 253.33C155.05 254.269 158.703 255.865 161.987 258.045H218.188L224.127 250.046Z" fill="black"/>
<path opacity="0.1" d="M52.6081 222.75L48.5616 228.38L48.0975 229.026L47.3216 230.085H46.8756H45.8857L29.0253 230.283L28.2566 229.217L27.8106 228.567C26.2926 226.335 24.8108 224.076 23.3653 221.79C37.6985 222.143 51.0345 222.683 52.474 222.747L52.6081 222.75Z" fill="black"/>
<path d="M241.681 182.3V256.946H147.483L146.135 244.452C146.135 244.452 134.844 243.816 121.841 241.761C121.094 241.637 120.34 241.517 119.579 241.386C116.482 240.864 113.32 240.26 110.22 239.561L109.6 239.419C108.44 239.156 107.293 238.877 106.159 238.582C105.046 238.3 103.951 237.996 102.878 237.685C101.351 237.237 99.8754 236.767 98.4577 236.273C93.5518 234.542 89.3929 232.469 86.7061 229.99L84.701 229.941L62.2893 229.39H61.8832H61.7563H61.3502L48.0903 229.058L46.8684 229.03L28.2784 229.249L27.8324 228.599C26.3144 226.367 24.8326 224.108 23.3871 221.822C21.1608 218.315 18.9997 214.759 16.8604 211.227C13.2019 205.224 9.47449 199.022 8.21267 192.157C7.4789 188.045 7.55767 183.834 8.44473 179.751C8.77521 178.183 9.19158 176.634 9.69204 175.11H83.6712L84.1209 175.241L86.5756 175.947L86.9636 176.06L87.3515 176.173C94.0413 178.116 107.805 181.99 111.344 181.99H117.544L149.648 182.067L179.348 182.149C200.857 182.198 221.945 182.255 233.232 182.283L241.681 182.3Z" fill="#3A3768"/>
<path opacity="0.1" d="M241.68 181.647V256.293H147.483L146.134 243.798C146.134 243.798 134.894 243.163 121.921 241.114C121.489 241.04 121.05 240.973 120.612 240.902C117.399 240.369 114.085 239.755 110.858 239.045L110.412 238.946L110.118 238.879L109.332 238.695C108.265 238.455 107.207 238.197 106.162 237.925C105.017 237.633 103.89 237.324 102.783 236.997C101.235 236.548 99.7374 236.064 98.3015 235.556C93.4646 233.836 89.3673 231.78 86.6987 229.33L85.7922 229.305L62.8621 228.74H62.4632H62.34H61.9375L48.5579 228.387L47.4339 228.358H46.8719L27.8215 228.584C26.3034 226.353 24.8217 224.094 23.3761 221.807C21.1498 218.301 18.9888 214.744 16.8495 211.213C13.191 205.209 9.46359 199.008 8.20178 192.143C7.46801 188.031 7.54677 183.82 8.43383 179.736C8.76432 178.169 9.18068 176.62 9.68114 175.096C9.75728 174.874 9.82617 174.658 9.90594 174.439H83.6711L84.1932 174.598C84.7117 174.75 85.5892 175.011 86.7313 175.34L87.1157 175.453C87.2389 175.488 87.3659 175.53 87.5 175.566C94.2478 177.497 107.841 181.315 111.355 181.315H117.881L150.34 181.396L179.96 181.47L234.287 181.612L241.68 181.647Z" fill="black"/>
<path opacity="0.1" d="M241.681 182.3V256.946H147.483L146.135 244.452C146.135 244.452 134.844 243.816 121.841 241.761C121.094 241.637 120.34 241.517 119.579 241.386C116.482 240.864 113.32 240.26 110.22 239.561L109.6 239.419C108.44 239.156 107.293 238.877 106.159 238.582C105.046 238.3 103.951 237.996 102.878 237.685C101.351 237.237 99.8754 236.767 98.4577 236.273C93.5518 234.542 89.3929 232.469 86.7061 229.99L84.701 229.941L62.2893 229.39H61.8832H61.7563H61.3502L48.0903 229.058L46.8684 229.03L28.2784 229.249L27.8324 228.599C26.3144 226.367 24.8326 224.108 23.3871 221.822C21.1608 218.315 18.9997 214.759 16.8604 211.227C13.2019 205.224 9.47449 199.022 8.21267 192.157C7.4789 188.045 7.55767 183.834 8.44473 179.751C8.77521 178.183 9.19158 176.634 9.69204 175.11H83.6712L84.1209 175.241L86.5756 175.947L86.9636 176.06L87.3515 176.173C94.0413 178.116 107.805 181.99 111.344 181.99H117.544L149.648 182.067L179.348 182.149C200.857 182.198 221.945 182.255 233.232 182.283L241.681 182.3Z" fill="black"/>
<path d="M261.267 164.876V176.7L241.684 190.949L233.243 182.279L261.267 164.876Z" fill="#3A3768"/>
<path opacity="0.1" d="M261.267 164.876V176.7L241.684 190.949L233.243 182.279L261.267 164.876Z" fill="black"/>
<path d="M271.402 177.911L261.268 176.699L241.684 190.949V198.404L271.402 177.911Z" fill="#3A3768"/>
<path d="M275.681 164.876V189.635L282.207 196.649L241.684 234.754V198.404L271.402 177.911L261.268 176.7V164.876H275.681Z" fill="#3A3768"/>
<path opacity="0.1" d="M275.681 164.876V189.635L282.207 196.649L241.684 234.754V198.404L271.402 177.911L261.268 176.7V164.876H275.681Z" fill="black"/>
<path opacity="0.1" d="M278.157 196.868L304.717 195.455L302.69 216.008L271.852 256.035L272.755 227.122H249.121L278.157 196.868Z" fill="black"/>
<path d="M278.831 196.868L305.391 195.455L303.368 216.008L272.53 256.035L273.429 227.122H249.799L278.831 196.868Z" fill="#3A3768"/>
<path opacity="0.1" d="M296.163 208.709H282.657L265.55 227.123H273.878L273.697 233.024L296.163 208.709Z" fill="black"/>
<path opacity="0.1" d="M295.264 208.709H281.757L264.65 227.123H272.979L272.794 233.024L295.264 208.709Z" fill="black"/>
<path d="M295.714 208.709H282.207L265.1 227.123H273.429L273.244 233.024L295.714 208.709Z" fill="#DCE6F2"/>
<path opacity="0.1" d="M272.979 255.597L242.134 256.512V234.316L250.249 226.684H273.879L272.979 255.597Z" fill="black"/>
<path d="M272.53 256.035L241.684 256.95V234.754L249.799 227.122H273.429L272.53 256.035Z" fill="#3A3768"/>
<path opacity="0.1" d="M272.53 256.035L241.684 256.95V234.754L249.799 227.122H273.429L272.53 256.035Z" fill="black"/>
<path d="M359.696 267.05C358.178 268.168 356.514 269.084 354.747 269.772C354.747 269.772 319.655 271.782 314.706 271.782C312.168 271.782 307.269 272.439 303.056 273.092L301.791 273.283C300.155 273.541 298.687 273.784 297.588 273.989L297.109 274.074C296.138 274.236 295.558 274.342 295.558 274.342C295.558 274.342 289.549 275.547 290.373 276.617C290.626 276.938 290.869 277.874 291.098 279.018C285.329 276.723 279.531 274.512 273.574 272.735C271.097 271.997 268.592 271.323 266.075 270.737C266.213 266.333 266.166 262.12 265.637 260.015C265.292 258.795 265.13 257.533 265.154 256.268C265.154 256.12 265.154 255.978 265.187 255.841C265.39 253.965 266.275 253.256 266.46 251.85C266.598 250.791 269.179 250.003 272.069 249.3L272.747 249.138L273.193 249.032C274.937 248.622 276.692 248.227 278.012 247.792C278.113 247.761 278.208 247.729 278.298 247.693C278.635 247.578 278.964 247.444 279.285 247.291C279.364 247.245 279.444 247.206 279.517 247.16C282.269 245.553 310.177 241.27 312.375 240.602C314.572 239.935 317.871 236.986 317.871 236.986C317.952 236.511 318.143 236.06 318.43 235.669C319.768 233.776 322.969 232.681 323.288 232.575H323.31L325.983 230.566C325.983 230.566 336.65 229.019 347.227 230.566C348.028 230.682 348.822 230.816 349.616 230.972C352.526 231.502 355.354 232.393 358.032 233.624C361.063 235.072 363.663 237.039 365.44 239.698C366.411 241.16 367.109 242.778 367.503 244.476C367.797 245.715 368.009 246.972 368.137 248.237C368.166 248.52 368.192 248.795 368.206 249.071C368.826 258.521 363.786 264.115 359.696 267.05Z" fill="#F3B4B3"/>
<path d="M219.439 136.553H206.103L208.278 129.589H215.037C215.037 129.589 240.331 111.783 241.843 116.604C243.355 121.424 219.439 136.553 219.439 136.553Z" fill="#FFCACE"/>
<path d="M241.158 172.84C238.823 176.724 208.855 171.501 208.855 171.501L201.02 163.87L206.096 161.189L209.301 163.008L212.695 164.936C212.695 164.936 243.497 168.955 241.158 172.84Z" fill="#FFCACE"/>
<path d="M151.943 210.327C151.943 210.327 149.702 211.686 146.823 213.427C142.577 215.977 136.961 219.304 135.155 220.102C132.131 221.44 129.111 226.127 125.256 229.877C123.037 232.035 121.826 235.397 121.195 237.862C120.926 238.891 120.722 239.936 120.586 240.991L114.81 243.262L106.152 242.46V228.284C106.152 228.284 107.388 222.39 109.727 222.125C109.943 222.097 110.154 222.038 110.354 221.952C112.849 220.928 117.178 215.924 120.586 213.953C123.636 212.188 125.993 206.859 126.732 205.019C126.892 204.616 126.975 204.383 126.975 204.383L137.49 199.086L151.943 210.327Z" fill="#FFCACE"/>
<path opacity="0.1" d="M151.943 210.327C151.943 210.327 149.702 211.686 146.823 213.427C143.103 211.093 138.977 208.285 137.367 206.364C134.673 203.165 128.625 204.478 126.732 204.99C126.892 204.588 126.975 204.355 126.975 204.355L137.49 199.057L151.943 210.327Z" fill="black"/>
<path d="M189.058 168.821C189.058 168.821 187.408 171.646 187.408 172.84C187.408 174.033 179.793 181.668 179.793 181.668L164.953 198.143C164.953 198.143 159.572 202.151 159.985 206.177C160.399 210.203 154.72 216.821 154.72 216.821C154.72 216.821 141.424 209.405 138.204 205.573C135.046 201.826 127.28 204.277 127 204.365C127.454 203.906 149.307 182.036 153.799 178.26C158.292 174.485 153.799 174.446 153.799 173.037C153.799 172.101 139.02 167.231 129.187 164.092C124.277 162.527 120.601 161.39 120.601 161.39L128.639 144.118L142.055 140.703C142.055 140.703 149.931 142.878 151.54 142.511C151.807 142.473 152.08 142.509 152.327 142.613C154.253 143.302 157.52 146.727 157.52 146.727C157.52 146.727 168.035 149.941 176.904 151.951C185.773 153.96 189.058 168.821 189.058 168.821Z" fill="#575988"/>
<path opacity="0.1" d="M121.21 237.862C120.94 238.892 120.737 239.937 120.601 240.991L114.825 243.262L106.166 242.46V228.285C106.166 228.285 107.403 222.39 109.741 222.126C109.958 222.097 110.169 222.039 110.369 221.953C104.041 224.629 110.22 239.13 110.22 239.13C116.25 233.811 119.629 235.856 121.21 237.862Z" fill="black"/>
<path d="M121.971 240.722L120.601 251.966C120.601 251.966 120.463 262.946 119.513 268.035C118.563 273.124 113.733 272.319 113.733 272.319C104.114 268.836 102.74 255.851 103.904 253.171C105.068 250.49 103.287 240.457 103.287 240.457H99.6867C99.6867 240.457 97.4894 234.701 97.6272 229.481C97.6743 227.666 99.1573 226.218 101.065 225.109C104.64 223.029 109.727 222.118 109.727 222.118C103.4 224.791 109.792 239.924 109.792 239.924C118.944 231.883 121.971 240.722 121.971 240.722Z" fill="#575988"/>
<path opacity="0.1" d="M209.794 136.553H206.103L208.278 129.589H210.936C210.432 131.189 209.624 134.176 209.794 136.553Z" fill="black"/>
<path d="M197.325 88.009L200.733 83.2521C200.733 83.2521 202.347 95.9161 198.485 99.1439L193.695 110.72L190.501 125.041C190.501 125.041 196.723 126.566 197.325 127.41C197.927 128.254 210.505 128.452 210.505 128.452C210.505 128.452 206.999 137.69 210.505 139.7L181.429 137.69L174.42 132.87L179.779 103.149L187.796 91.6535L197.325 88.009Z" fill="#575988"/>
<path opacity="0.1" d="M197.325 88.009L200.733 83.2521C200.733 83.2521 202.347 95.9161 198.485 99.1439L193.695 110.72L190.501 125.041C190.501 125.041 196.723 126.566 197.325 127.41C197.927 128.254 210.505 128.452 210.505 128.452C210.505 128.452 206.999 137.69 210.505 139.7L181.429 137.69L174.42 132.87L179.779 103.149L187.796 91.6535L197.325 88.009Z" fill="black"/>
<path d="M323.303 218.996L289.687 203.104C289.687 203.104 277.863 215.684 275.938 207.801C274.012 199.919 281.989 194.544 281.989 194.544L339.039 207.533L323.303 218.996Z" fill="#FFCACE"/>
<path opacity="0.05" d="M323.303 218.996L289.687 203.104C289.687 203.104 277.863 215.684 275.938 207.801C274.012 199.919 281.989 194.544 281.989 194.544L339.039 207.533L323.303 218.996Z" fill="black"/>
<path d="M179.779 115.198L174.743 121.527L174.13 122.297L169.547 128.053C169.547 128.053 165.257 130.055 161.933 131.69C161.048 132.125 160.228 132.534 159.576 132.87C157.858 133.826 156.237 134.938 154.735 136.193C153.676 137.048 152.977 137.69 152.977 137.69L146.791 138.898C146.791 138.898 104.52 116.201 114.622 111.985C116.982 110.999 119.655 109.315 122.367 107.309C129.586 101.976 137.073 94.387 139.655 91.6925C140.268 91.0568 140.605 90.6966 140.605 90.6966L146.769 87.2852L166.556 104.028L179.779 115.198Z" fill="#FFCACE"/>
<path d="M214.628 73.625C212.121 74.1141 209.754 75.1301 207.691 76.6021C203.619 79.3884 200.222 83.5804 197.662 87.4897C195.569 90.6773 193.76 94.034 192.256 97.5228C192.256 97.5228 164.728 62.1758 181.222 65.1882C183.688 65.6573 186.198 65.8704 188.71 65.8239C191.784 65.7982 194.819 65.1588 197.629 63.9451C201.68 62.1335 203.286 59.672 203.286 59.672C203.286 59.672 228.239 71.213 214.628 73.625Z" fill="#FFCACE"/>
<path d="M341.65 160.518C341.65 160.518 322.266 178.462 322.542 172.437C322.556 171.571 322.462 170.706 322.262 169.862C321.389 165.73 318.662 159.727 316.501 155.383C314.898 152.155 313.6 149.825 313.6 149.825C313.6 149.825 337.796 139.382 336.831 142.995C336.516 144.174 336.922 146.445 337.604 148.973C338.307 151.576 339.311 154.454 340.142 156.69C340.972 158.925 341.65 160.518 341.65 160.518Z" fill="#FFCACE"/>
<path opacity="0.1" d="M214.628 73.625C212.121 74.1142 209.754 75.1301 207.692 76.6021C203.094 74.3596 202.833 69.871 201.306 65.0081C201.147 64.5066 201.586 62.0911 201.473 61.5719C205.523 59.7603 203.286 59.672 203.286 59.672C203.286 59.672 228.24 71.213 214.628 73.625Z" fill="black"/>
<path d="M235.973 59.672C235.973 63.3264 234.86 66.8987 232.776 69.9372C230.691 72.9757 227.728 75.344 224.262 76.7424C220.796 78.1409 216.981 78.5068 213.301 77.7939C209.621 77.081 206.241 75.3212 203.588 72.7372C200.935 70.1531 199.128 66.8608 198.396 63.2767C197.664 59.6925 198.04 55.9774 199.476 52.6012C200.911 49.225 203.343 46.3393 206.463 44.309C209.582 42.2788 213.25 41.1951 217.002 41.1951C219.498 41.1801 221.972 41.6478 224.28 42.571C226.589 43.4943 228.686 44.8547 230.451 46.5734C232.216 48.2922 233.612 50.335 234.56 52.5835C235.508 54.832 235.988 57.2414 235.973 59.672Z" fill="#FFCACE"/>
<path opacity="0.1" d="M179.779 115.198L174.743 121.527L174.13 122.296C173.92 122.314 173.713 122.328 173.506 122.332C171.215 122.374 169.351 121.421 168.43 118.8C167.738 117.022 166.776 115.356 165.577 113.856C164.967 113.047 164.286 112.228 163.553 111.384C155.729 102.555 141.798 93.1226 139.644 91.6782C140.257 91.0425 140.594 90.6823 140.594 90.6823L146.758 87.2709L166.545 104.014L179.779 115.198Z" fill="black"/>
<path opacity="0.1" d="M197.662 87.4898C195.569 90.6774 193.76 94.034 192.256 97.5228C192.256 97.5228 164.728 62.1759 181.222 65.1883C183.688 65.6574 186.198 65.8704 188.71 65.8239C190.381 67.5685 192.763 73.3143 194.203 77.0683C194.808 78.7134 195.241 80.4135 195.497 82.1431C195.867 84.4915 197.318 86.9353 197.662 87.4898Z" fill="black"/>
<path d="M198.032 103.548C196.698 106.373 192.978 111.783 192.978 111.783C190.464 113.895 187.799 115.828 185.001 117.568C184.022 118.172 182.996 118.754 181.966 119.28C179.457 120.573 176.919 121.491 174.743 121.526C172.451 121.572 170.588 120.615 169.667 117.995C168.974 116.211 168.011 114.539 166.81 113.033C166.2 112.228 165.519 111.409 164.786 110.579C156.287 100.998 140.591 90.6823 140.591 90.6823C140.761 90.4527 146.236 83.1743 151.309 78.1383C156.465 73.0247 181.001 64.1747 181.621 63.3731C181.657 63.3258 181.696 63.2809 181.737 63.2389C181.977 63.0003 182.268 62.8161 182.589 62.6993C182.91 62.5825 183.253 62.5359 183.595 62.5629C183.936 62.5898 184.268 62.6897 184.565 62.8553C184.863 63.021 185.119 63.2484 185.316 63.5214C185.976 64.4461 186.824 65.2287 187.807 65.8204C189.479 66.8022 192.194 73.3355 193.775 77.4567C194.382 79.1025 194.816 80.804 195.07 82.5351C195.49 85.2014 197.311 87.9983 197.311 87.9983C197.311 87.9983 199.37 100.736 198.032 103.548Z" fill="#575988"/>
<path opacity="0.1" d="M209.309 163.008C208.631 164.604 206.408 166.006 204.265 167.03L201.02 163.87L206.096 161.189L209.309 163.008Z" fill="black"/>
<path opacity="0.1" d="M186.379 99.7371C186.379 99.7371 183.808 111.038 181.969 119.284C179.457 120.573 176.919 121.491 174.743 121.527L169.547 128.053C169.547 128.053 165.258 130.055 161.933 131.69C161.933 131.164 161.915 130.603 161.915 130.02C161.942 123.859 162.801 117.729 164.471 111.787C164.58 111.398 164.688 110.999 164.801 110.593C165.37 108.555 165.983 106.302 166.578 104.024C167.538 100.373 168.456 96.6646 169.061 93.7088C170.918 84.6716 179.167 86.0772 179.167 86.0772C188.648 85.0707 186.379 99.7371 186.379 99.7371Z" fill="black"/>
<path opacity="0.1" d="M188.851 100.535C188.851 100.535 186.766 109.717 185.004 117.568C184.025 118.172 182.999 118.754 181.969 119.281C179.457 120.573 176.918 121.491 174.743 121.527C172.451 121.573 170.588 120.616 169.667 117.995C168.974 116.211 168.011 114.539 166.809 113.033C166.853 112.867 166.9 112.698 166.947 112.528C168.466 107.086 170.461 99.6525 171.519 94.4965C173.376 85.4593 181.625 86.8649 181.625 86.8649C191.121 85.8761 188.851 100.535 188.851 100.535Z" fill="black"/>
<path d="M180.809 86.0773C180.809 86.0773 172.563 84.6647 170.707 93.709C169.648 98.8614 167.65 106.299 166.131 111.741C164.436 117.758 163.57 123.968 163.557 130.207C163.557 132.647 163.694 134.678 164.108 135.282C165.344 137.09 166.378 138.496 168.027 139.901C169.677 141.307 198.485 168.821 198.485 168.821C198.485 168.821 209.062 165.607 208.235 161.592C208.235 161.592 191.534 146.127 190.707 143.115C190.707 143.115 181.222 130.582 181.842 127.41C182.462 124.239 188.028 99.7373 188.028 99.7373C188.028 99.7373 190.294 85.0709 180.809 86.0773Z" fill="#575988"/>
<path opacity="0.1" d="M155.134 135.406L154.732 136.204C153.673 137.058 152.973 137.701 152.973 137.701L146.787 138.909C146.787 138.909 104.517 116.212 114.618 111.995C116.979 111.01 119.651 109.325 122.363 107.319C129.434 107.863 139.365 115.209 139.365 115.209C147.94 120.382 155.134 135.406 155.134 135.406Z" fill="black"/>
<path opacity="0.1" d="M152.317 142.613L143.074 144.732L129.187 164.103C124.277 162.538 120.601 161.401 120.601 161.401L128.639 144.128L142.055 140.713C142.055 140.713 149.931 142.889 151.541 142.522C151.803 142.482 152.071 142.514 152.317 142.613Z" fill="black"/>
<path d="M38.4417 242.41C40.3344 244.558 42.3106 246.648 44.3918 248.608L44.5332 248.742L44.6203 248.824L44.6855 248.887C44.7617 248.958 44.8378 249.032 44.9176 249.099C47.739 251.735 50.7187 254.206 53.8409 256.498C56.622 253.319 60.799 249.551 60.799 249.551L81.0061 232.681C82.156 231.663 83.392 230.742 84.7009 229.927C85.0635 229.708 85.4261 229.496 85.7887 229.298C86.2366 229.061 86.6979 228.849 87.1702 228.662C90.2703 227.458 93.1602 219.833 93.1602 219.833L108.418 199.75L110.637 195.441L117.555 181.969L117.889 181.315L123.69 170.014L127.385 164.862L128.175 163.76L141.838 144.711L151.537 142.511L154.728 136.2C154.728 136.2 147.534 121.188 138.959 116C138.959 116 128.404 108.192 121.308 108.079L121.174 108.167C119.191 109.493 117.133 110.71 115.01 111.811C114.691 111.974 114.372 112.126 114.067 112.264C112.755 112.853 111.591 113.224 110.927 113.076C108.661 112.571 92.7976 130.85 91.3472 138.881C89.8969 146.911 88.2543 147.317 88.2543 147.317C88.2543 147.317 85.5711 154.734 85.9845 156.146C86.2891 157.184 84.128 161.051 83.5479 164.869C83.3077 166.175 83.3658 167.517 83.7183 168.8C84.2737 170.665 84.4449 172.619 84.2223 174.549C84.2223 174.761 84.1788 174.969 84.1498 175.177C83.8889 177.158 83.252 179.074 82.2716 180.828C81.2926 182.463 80.4079 186.694 79.2295 189.801C78.6783 191.278 78.0547 192.496 77.3259 193.079C75.056 194.887 71.7565 203.122 71.7565 203.122C71.7565 203.122 64.5409 212.159 62.6917 212.76C61.4553 213.162 56.0092 218.912 52.5175 222.705C50.7589 224.605 49.4935 226.017 49.4935 226.017L47.4666 228.309L46.8538 228.991L45.8784 230.1L36.7375 240.433L38.4417 242.41Z" fill="#575988"/>
<path d="M119.912 113.238C119.876 113.273 117.551 115.357 115.013 117.561C113.2 119.125 111.279 120.739 110.002 121.692C107.029 123.907 97.6925 140.056 97.2864 140.78L93.1601 156.421C93.0078 157.145 92.0288 161.69 91.0788 164.872C90.6039 166.454 90.1434 167.698 89.7916 167.973C89.3167 168.347 88.3413 171.858 87.4965 175.541C87.4493 175.746 87.3986 175.951 87.355 176.156C86.9925 177.759 86.6299 179.362 86.3579 180.711L83.6566 190.931L77.7029 213.452C77.605 213.671 75.5564 218.191 72.4127 219.215C71.5135 219.508 67.7861 223.34 62.8694 228.733L62.2892 229.375C57.1006 235.097 50.7009 242.41 44.9357 249.12C44.8559 249.053 44.7798 248.979 44.7036 248.908L44.6384 248.845C49.8053 242.859 56.3319 235.376 61.7744 229.383L62.3545 228.74C67.3328 223.269 71.3032 219.176 72.3003 218.852C75.2663 217.887 77.3077 213.381 77.3294 213.335L83.2614 190.85L85.9627 180.609C86.0606 180.132 86.4558 178.232 86.9635 176.018C87.007 175.816 87.0577 175.612 87.1049 175.403C87.9026 171.995 88.9178 168.121 89.5415 167.634C89.8134 167.422 90.2159 166.341 90.6619 164.848C91.387 162.428 92.2065 158.932 92.7649 156.305L96.9129 140.583C97.3081 139.876 106.659 123.631 109.752 121.346C111.021 120.403 112.936 118.793 114.745 117.225C116.83 115.431 118.766 113.694 119.412 113.114C119.546 112.991 119.626 112.924 119.633 112.917L119.912 113.238Z" fill="#575988"/>
<path d="M119.502 113.238C119.463 113.27 117.283 115.241 114.836 117.359C112.958 118.984 110.924 120.7 109.593 121.693C106.616 123.907 97.2647 140.056 96.8731 140.78L92.7578 156.422C92.6055 157.145 91.6229 161.691 90.6729 164.872C90.1979 166.455 89.7374 167.698 89.3857 167.973C88.9179 168.326 87.9752 171.794 87.1195 175.428C87.0687 175.633 87.0252 175.838 86.9744 176.043C86.5937 177.685 86.2493 179.327 85.9519 180.711L83.276 190.85L77.2897 213.452C77.1918 213.671 75.1431 218.191 71.9995 219.215C71.1003 219.509 67.3765 223.333 62.4706 228.719L61.8832 229.361C56.7489 235.012 50.4254 242.244 44.6856 248.887L44.6203 248.824L44.5333 248.742L44.3919 248.608C49.537 242.658 55.973 235.273 61.3502 229.351L61.934 228.708C66.9123 223.245 70.8755 219.155 71.8689 218.82C74.8386 217.856 76.8799 213.35 76.8981 213.304L82.8736 190.72L85.5458 180.609C85.6401 180.125 86.0462 178.169 86.5683 175.912C86.6155 175.711 86.6626 175.506 86.7134 175.297C87.5075 171.918 88.5082 168.121 89.121 167.645C89.3929 167.433 89.7954 166.352 90.2414 164.858C90.9666 162.439 91.7896 158.943 92.3444 156.316L96.4924 140.593C96.8913 139.887 106.239 123.642 109.332 121.357C110.659 120.368 112.693 118.655 114.571 117.031C117.004 114.912 119.176 112.963 119.212 112.927L119.405 113.125L119.502 113.238Z" fill="#DCE6F2"/>
<path opacity="0.1" d="M135.859 124.638C135.859 124.638 131.185 135.081 134.771 138.898L135.859 124.638Z" fill="black"/>
<path opacity="0.1" d="M142.867 130.528C142.867 130.528 140.119 137.892 141.631 138.898L142.867 130.528Z" fill="black"/>
<path opacity="0.1" d="M146.421 134.699C146.421 134.699 145.297 138.414 146.421 139.686V134.699Z" fill="black"/>
<path opacity="0.1" d="M83.0693 213.003C83.0693 213.003 92.968 209.659 92.6924 211.531C92.4168 213.402 83.0693 213.003 83.0693 213.003Z" fill="black"/>
<path opacity="0.1" d="M81.144 222.111C81.144 222.111 86.5139 224.52 87.8845 222.111C89.2551 219.703 81.144 222.111 81.144 222.111Z" fill="black"/>
<path opacity="0.1" d="M160.602 195.332C160.602 195.332 149.605 197.207 149.467 199.082C149.329 200.957 160.602 195.332 160.602 195.332Z" fill="black"/>
<path opacity="0.1" d="M155.036 147.935C155.036 147.935 150.569 152.879 151.254 154.762C151.94 156.644 155.036 147.935 155.036 147.935Z" fill="black"/>
<path opacity="0.1" d="M235.974 59.672C235.976 61.4859 235.702 63.2901 235.161 65.0258C234.797 64.8757 234.392 64.8459 234.008 64.941C233.921 65.5637 233.587 66.1281 233.076 66.5126L230.56 63.5143C230.491 63.4132 230.394 63.3325 230.281 63.2812C230.027 63.1894 229.777 63.3978 229.556 63.5426C228.711 64.0793 227.551 63.8039 226.699 63.2777C225.846 62.7515 225.147 61.9993 224.266 61.5119C223.424 61.0651 222.464 60.8729 221.51 60.9597C220.555 61.0465 219.649 61.4084 218.906 61.9993C218.217 62.6398 217.608 63.3582 217.093 64.1394C216.379 65.1798 215.446 66.0609 214.356 66.7245C213.809 67.0537 213.192 67.2567 212.552 67.3179C211.913 67.3791 211.267 67.2969 210.665 67.0776C210.299 66.8771 209.915 66.7081 209.519 66.5726C208.279 66.2759 207.166 67.3389 206.368 68.3136C205.57 69.2883 204.555 70.3902 203.275 70.2065C200.926 69.8534 201.136 65.8239 198.881 65.0929H198.859C198.06 62.5519 197.834 59.873 198.196 57.2391C198.557 54.6052 199.497 52.0782 200.953 49.8305C202.408 47.5828 204.344 45.6673 206.629 44.2146C208.913 42.762 211.493 41.8064 214.191 41.413C216.889 41.0196 219.643 41.1977 222.264 41.9352C224.885 42.6727 227.312 43.9521 229.379 45.6863C231.447 47.4204 233.106 49.5685 234.243 51.9839C235.38 54.3993 235.969 57.0253 235.97 59.6826L235.974 59.672Z" fill="black"/>
<path d="M233.928 42.3182C231.753 40.9232 229.312 40.0086 227.064 38.7407C223.982 36.9962 221.263 34.5841 217.931 33.3622C216.195 32.7923 214.406 32.3902 212.59 32.1615C211.56 31.9991 210.498 31.8366 209.482 32.0626C208.09 32.3663 206.97 33.3446 205.715 34.005C202.706 35.5906 198.851 35.3823 196.114 37.3846C193.282 39.4612 192.528 43.2222 191.958 46.6302C190.987 52.4607 189.899 58.4396 186.741 63.4791C186.556 63.7049 186.465 63.9893 186.483 64.2772C186.561 64.5031 186.709 64.6996 186.908 64.8387C188.749 66.4067 191.299 67.7981 193.539 66.8375C194.482 66.4314 195.2 65.6651 196.019 65.0541C196.839 64.4432 197.901 63.9699 198.88 64.2842C201.139 65.0117 200.925 69.0483 203.278 69.3943C204.544 69.578 205.577 68.4797 206.371 67.505C207.165 66.5303 208.279 65.4673 209.522 65.7639C209.919 65.8996 210.304 66.0673 210.672 66.2654C211.843 66.7669 213.246 66.5409 214.359 65.9123C215.451 65.2493 216.384 64.3667 217.097 63.3237C217.613 62.5445 218.221 61.8274 218.91 61.1871C219.652 60.5957 220.558 60.2331 221.512 60.1457C222.467 60.0582 223.427 60.2499 224.269 60.6962C225.15 61.1836 225.846 61.9322 226.702 62.462C227.557 62.9917 228.714 63.2636 229.559 62.7233C229.787 62.5785 230.038 62.3702 230.284 62.462C230.396 62.515 230.492 62.5953 230.563 62.6951L233.076 65.6933C233.587 65.3092 233.923 64.7448 234.012 64.1218C234.65 63.9276 235.31 64.263 235.937 64.4749C236.564 64.6868 237.409 64.7539 237.772 64.2065C238.065 63.7651 237.87 63.1789 237.895 62.6527C237.946 61.6956 238.751 60.9328 239.614 60.4808C240.477 60.0288 241.452 59.7745 242.282 59.2695C243.849 58.3089 244.733 56.476 244.748 54.6785C244.724 53.1357 244.226 51.6352 243.319 50.37C242.115 48.6255 240.879 49.1764 239.291 48.2723C238.363 47.7461 238.083 46.6902 237.55 45.8426C236.619 44.4262 235.383 43.2236 233.928 42.3182Z" fill="#FFDFCF"/>
<path opacity="0.1" d="M334.775 147.533C331.828 152.219 329.358 156.771 323.307 156.771C320.961 156.772 318.642 156.291 316.501 155.358C314.898 152.131 313.6 149.8 313.6 149.8C313.6 149.8 337.796 139.357 336.831 142.97C336.523 144.16 334.09 145.008 334.775 147.533Z" fill="black"/>
<path d="M323.307 155.966C332.569 155.966 340.077 148.653 340.077 139.633C340.077 130.612 332.569 123.299 323.307 123.299C314.045 123.299 306.537 130.612 306.537 139.633C306.537 148.653 314.045 155.966 323.307 155.966Z" fill="#FFCACE"/>
<path opacity="0.1" d="M368.199 249.064C368.048 249.017 367.908 248.942 367.787 248.843C367.667 248.743 367.567 248.622 367.495 248.484C366.531 246.613 348.659 243.932 348.659 243.932L344.797 236.972C344.797 236.972 335.45 237.639 333.8 235.912C332.15 234.185 323.212 233.903 323.285 233.37C323.301 233.103 323.292 232.836 323.259 232.571H323.285L325.957 230.562C325.957 230.562 362.941 225.205 367.474 244.487C367.842 245.991 368.085 247.521 368.199 249.064Z" fill="black"/>
<path opacity="0.1" d="M341.65 160.518C341.65 160.518 322.266 178.462 322.541 172.437C322.556 171.571 322.462 170.707 322.262 169.863L322.317 169.661C322.317 169.661 327.226 164.664 328.463 162.386C329.318 160.818 336.077 158.149 340.16 156.669C340.99 158.925 341.65 160.518 341.65 160.518Z" fill="black"/>
<path d="M343.299 155.966C343.299 155.966 329.688 160.521 328.433 162.796C327.179 165.07 322.316 170.071 322.316 170.071L317.878 188.636L320.489 214.211C320.489 214.211 321.178 219.032 320.213 220.769C319.249 222.507 318.977 226.395 321.04 227.331C323.103 228.267 323.39 232.017 323.314 232.554C323.237 233.091 332.175 233.355 333.829 235.096C335.482 236.838 344.826 236.156 344.826 236.156L348.659 243.117C348.659 243.117 366.531 245.793 367.495 247.669C368.46 249.544 374.091 247.4 370.396 242.311C366.701 237.222 368.608 229.192 368.608 229.192C368.608 229.192 367.521 193.845 361.719 185.542C361.719 185.542 353.47 166.264 352.096 165.458C350.722 164.653 342.473 159.045 343.299 155.966Z" fill="#DCE6F2"/>
<path opacity="0.1" d="M343.3 216.821C343.3 216.821 367.767 235.891 366.118 239.38C364.468 242.869 343.3 216.821 343.3 216.821Z" fill="black"/>
<path opacity="0.1" d="M344.75 228.263C344.75 228.263 359.033 235.202 357.046 239.701L344.75 228.263Z" fill="black"/>
<path opacity="0.1" d="M327.628 210.98C327.628 210.98 335.326 210.627 335.605 212.018L327.628 210.98Z" fill="black"/>
<path opacity="0.1" d="M325.979 216.821C325.979 216.821 337.252 219.565 337.252 221.172L325.979 216.821Z" fill="black"/>
<path d="M336.164 199.464L323.306 210.92C323.306 210.92 314.967 213.94 313.607 216.821C312.247 219.703 302.058 221.172 301.511 218.997C300.963 216.821 285.84 204.839 285.84 204.839C285.84 204.839 277.591 197.61 275.666 192.263C273.74 186.916 266.601 182.417 266.601 182.417C266.601 182.417 244.882 176.731 248.181 168.831C251.481 160.931 273.729 175.382 273.729 175.382C273.729 175.382 287.479 185.02 289.683 187.969C291.888 190.918 307.552 197.398 307.552 197.398C307.407 196.028 310.231 192.637 312.961 189.71C315.452 187.036 317.864 184.766 317.864 184.766L336.019 199.361L336.164 199.464Z" fill="#FFCACE"/>
<path opacity="0.1" d="M345.497 246.747C345.497 246.747 357.045 260.269 356.374 262.946C355.703 265.623 345.497 246.747 345.497 246.747Z" fill="black"/>
<path opacity="0.1" d="M277.588 259.732C277.863 260.135 278.962 264.677 284.187 267.364L277.588 259.732Z" fill="black"/>
<path opacity="0.1" d="M289.412 263.55C289.412 263.55 289.137 268.848 293.125 270.176C297.114 271.503 289.412 263.55 289.412 263.55Z" fill="black"/>
<path d="M343.999 150.591C343.941 149.588 343.647 148.612 343.14 147.737C342.632 146.863 341.925 146.114 341.073 145.548C341.701 145.308 342.224 144.862 342.551 144.287C342.878 143.712 342.988 143.044 342.864 142.398C342.73 142.836 342.193 143.002 341.737 143.104C341.468 143.164 341.233 143.207 341.011 143.242C341.572 142.205 342.033 141.119 342.389 140C343.064 137.616 342.705 135.081 342.132 132.672C341.363 129.42 340.094 126.075 337.375 123.956C336.139 123.076 334.8 122.341 333.386 121.767C332.113 121.137 330.776 120.636 329.398 120.273C327.998 119.955 326.548 119.92 325.119 119.736C322.349 119.383 319.68 118.461 316.877 118.324C314.075 118.186 310.974 118.995 309.539 121.262C309.084 121.947 308.87 122.758 308.929 123.571C309.082 125.002 310.3 126.171 311.689 126.75C313.077 127.329 314.56 127.339 315.964 127.777C317.613 128.293 319.227 128.946 320.877 129.504C321.758 129.801 322.672 130.122 323.324 130.758C324.365 131.768 324.492 133.304 324.742 134.696C325.124 136.815 325.918 138.845 327.081 140.674C327.49 141.321 327.958 141.971 328.063 142.716C328.194 143.623 327.842 144.746 328.593 145.329C329.176 145.778 330.043 145.555 330.696 145.174C331.348 144.792 331.899 144.266 332.636 144.114C333.52 143.931 334.448 144.351 335.101 144.933C335.618 145.392 336.026 145.954 336.299 146.58C336.572 147.207 336.703 147.884 336.682 148.564C336.646 149.408 336.377 150.284 336.682 151.078C336.968 151.809 338.103 152.247 338.633 151.742C338.674 151.831 338.721 151.917 338.774 152C339.329 152.826 340.38 153.211 341.392 153.31C341.893 153.39 342.408 153.325 342.871 153.123C343.774 152.664 344.046 151.559 343.999 150.591Z" fill="#FFDFCF"/>
<path opacity="0.1" d="M103.276 240.45H99.6867C99.6867 240.45 97.4894 234.694 97.6272 229.474C97.6743 227.659 99.1573 226.211 101.065 225.102L103.276 240.45Z" fill="black"/>
<g opacity="0.1">
<path d="M192.39 45.0232C192.524 44.2215 192.669 43.3951 192.85 42.5793C192.476 43.9113 192.184 45.2639 191.976 46.63C191.581 49.0102 191.164 51.4117 190.595 53.7637C191.345 50.8818 191.944 47.9645 192.39 45.0232Z" fill="black"/>
<path d="M242.71 57.6907C241.879 58.1993 240.897 58.45 240.041 58.902C239.185 59.3541 238.373 60.1169 238.322 61.0739C238.312 61.2397 238.312 61.406 238.322 61.5719C238.666 61.1288 239.107 60.7667 239.613 60.5124C240.476 60.0604 241.448 59.8061 242.278 59.3011C242.968 58.8483 243.544 58.2505 243.964 57.5518C244.385 56.8532 244.639 56.0716 244.708 55.2646C244.319 56.2569 243.62 57.1054 242.71 57.6907Z" fill="black"/>
<path d="M236.382 62.8962C235.755 62.6701 235.095 62.3346 234.457 62.543C234.369 63.1661 234.033 63.7305 233.522 64.1145L231.009 61.1163C230.938 61.0165 230.842 60.9362 230.73 60.8832C230.476 60.7949 230.226 60.9997 230.005 61.1445C229.16 61.6848 228.003 61.4094 227.147 60.8832C226.292 60.357 225.595 59.6048 224.714 59.1174C223.872 58.6661 222.91 58.4704 221.953 58.5553C220.995 58.6403 220.086 59.0021 219.341 59.5942C218.653 60.229 218.045 60.9401 217.528 61.7131C216.815 62.7561 215.882 63.6387 214.79 64.3017C213.677 64.9162 212.274 65.1422 211.103 64.6549C210.735 64.4567 210.35 64.289 209.953 64.1534C208.71 63.8567 207.6 64.9197 206.802 65.8944C206.005 66.8691 204.99 67.9674 203.71 67.7838C201.356 67.4306 201.57 63.4012 199.311 62.6737C198.332 62.3594 197.27 62.8326 196.451 63.4435C195.631 64.0545 194.913 64.8208 193.97 65.2093C191.73 66.1699 189.181 64.7785 187.339 63.2105C187.239 63.13 187.148 63.0401 187.067 62.9421C186.965 63.1151 186.867 63.2952 186.762 63.4577C186.575 63.6818 186.483 63.9675 186.505 64.2558C186.579 64.4821 186.727 64.679 186.925 64.8173C188.767 66.3853 191.316 67.7767 193.557 66.8161C194.5 66.41 195.218 65.6437 196.037 65.0327C196.857 64.4218 197.919 63.9485 198.898 64.2629C201.157 64.9903 200.943 69.0269 203.296 69.3729C204.562 69.5566 205.595 68.4583 206.389 67.4836C207.183 66.5089 208.3 65.4459 209.54 65.7426C209.937 65.8769 210.322 66.0447 210.689 66.244C211.861 66.7455 213.264 66.5195 214.381 65.8909C215.47 65.2266 216.402 64.3442 217.114 63.3023C217.631 62.5232 218.239 61.8061 218.927 61.1657C219.669 60.5746 220.574 60.2122 221.528 60.1247C222.482 60.0373 223.441 60.2288 224.283 60.6748C225.164 61.1622 225.864 61.9109 226.716 62.4406C227.568 62.9703 228.728 63.2422 229.573 62.7019C229.801 62.5571 230.052 62.3488 230.298 62.4406C230.41 62.4936 230.506 62.5739 230.577 62.6737L233.09 65.6719C233.602 65.2878 233.937 64.7235 234.026 64.1004C234.664 63.9062 235.327 64.2417 235.955 64.4536C236.582 64.6654 237.405 64.7325 237.768 64.1852C238.021 63.8002 237.909 63.3129 237.891 62.8432C237.657 62.9531 237.402 63.0146 237.142 63.0237C236.883 63.0329 236.624 62.9894 236.382 62.8962Z" fill="black"/>
</g>
<path opacity="0.1" d="M336.023 199.351C335.805 199.534 335.578 199.706 335.341 199.866C335.341 199.866 316.124 189.89 312.966 189.71C315.457 187.036 317.868 184.765 317.868 184.765L336.023 199.351Z" fill="black"/>
<path opacity="0.1" d="M336.991 165.748C336.991 165.748 354.033 176.6 347.974 186.637C341.915 196.674 336.991 199.866 336.991 199.866C336.991 199.866 316.907 189.438 314.431 189.709C311.954 189.981 323.133 170.473 323.133 170.473L336.991 165.748Z" fill="black"/>
<path d="M336.164 165.346C336.164 165.346 353.206 176.198 347.147 186.234C341.088 196.271 336.164 199.464 336.164 199.464C336.164 199.464 316.08 189.039 313.615 189.307C311.149 189.575 322.317 170.071 322.317 170.071L336.164 165.346Z" fill="#DCE6F2"/>
<g opacity="0.1">
<path d="M342.26 152.71C341.252 152.608 340.2 152.223 339.642 151.396C339.587 151.312 339.544 151.223 339.5 151.139C338.971 151.644 337.836 151.206 337.55 150.475C337.238 149.68 337.51 148.804 337.55 147.96C337.571 147.28 337.441 146.603 337.168 145.976C336.895 145.349 336.486 144.788 335.969 144.33C335.309 143.747 334.391 143.327 333.503 143.51C332.778 143.662 332.198 144.189 331.563 144.57C330.929 144.951 330.044 145.174 329.46 144.725C328.713 144.143 329.061 143.02 328.931 142.112C328.826 141.367 328.358 140.717 327.948 140.071C326.787 138.24 325.993 136.211 325.61 134.092C325.359 132.7 325.247 131.164 324.195 130.154C323.543 129.519 322.629 129.197 321.748 128.901C320.109 128.343 318.485 127.689 316.831 127.174C315.432 126.736 313.931 126.711 312.56 126.146C311.189 125.581 309.949 124.38 309.797 122.968C309.737 122.153 309.952 121.342 310.41 120.658C310.519 120.483 310.64 120.316 310.772 120.157C310.301 120.523 309.898 120.965 309.579 121.463C309.122 122.146 308.908 122.956 308.97 123.769C309.123 125.2 310.341 126.368 311.73 126.948C313.118 127.527 314.601 127.537 316.005 127.975C317.654 128.491 319.268 129.144 320.918 129.702C321.799 130.002 322.731 130.32 323.365 130.956C324.406 131.969 324.533 133.506 324.783 134.897C325.165 137.016 325.959 139.044 327.122 140.872C327.531 141.519 327.995 142.168 328.104 142.917C328.235 143.825 327.883 144.948 328.634 145.527C329.214 145.979 330.084 145.757 330.737 145.375C331.389 144.994 331.94 144.464 332.676 144.316C333.561 144.132 334.489 144.552 335.142 145.138C335.659 145.597 336.068 146.158 336.341 146.785C336.614 147.412 336.744 148.088 336.723 148.769C336.687 149.613 336.418 150.489 336.723 151.28C337.009 152.011 338.141 152.452 338.674 151.944C338.714 152.033 338.761 152.119 338.815 152.202C339.37 153.028 340.421 153.413 341.429 153.515C341.932 153.594 342.448 153.527 342.912 153.325C343.246 153.149 343.515 152.876 343.681 152.544C343.231 152.722 342.74 152.779 342.26 152.71Z" fill="black"/>
<path d="M341.926 144.94L342.132 145.082C342.253 144.957 342.362 144.822 342.458 144.679C342.291 144.786 342.113 144.873 341.926 144.94Z" fill="black"/>
</g>
<path opacity="0.1" d="M75.5129 48.1771C75.5129 48.1771 88.7474 47.4001 87.1883 56.4338C87.1883 56.4338 87.4965 58.03 86.0135 58.754C86.0135 58.754 85.9882 58.0865 84.6538 58.3125C84.1749 58.3917 83.6879 58.4142 83.2035 58.3796C82.5548 58.3379 81.9382 58.0897 81.4485 57.6733C81.4485 57.6733 77.7247 56.176 76.278 50.2571C76.278 50.2571 75.1902 48.9646 75.2519 48.6326L77.4854 49.5614C77.4854 49.5614 76.7204 51.1294 77.3223 52.4361C77.3223 52.4361 77.3948 49.6109 77.8226 49.685C77.9097 49.685 78.9829 50.2289 78.9829 50.2289C78.9829 50.2289 77.6704 52.9623 78.6602 54.9505C78.6602 54.9505 78.2976 51.5815 79.3854 50.4266L80.959 51.3201C80.959 51.3201 79.4253 54.1453 80.4659 56.4479C80.4659 56.4479 80.1976 52.9164 81.289 51.5391L82.714 52.6197C82.714 52.6197 81.2636 55.4026 82.152 57.3131C82.152 57.3131 82.268 53.1989 83.0222 52.8881C83.0222 52.8881 84.2695 53.9476 84.4725 54.3996C84.4725 54.3996 83.4827 56.4196 84.1099 57.4861C84.1099 57.4861 84.4725 54.7457 84.7952 54.7351C84.7952 54.7351 86.0353 56.5503 86.1658 57.7934C86.1043 56.6428 85.7356 55.5278 85.0962 54.5585C85.8122 54.6913 86.4726 55.0252 86.9961 55.5191C86.9961 55.5191 86.804 54.2336 84.788 54.1065C84.788 54.1065 83.7619 52.7292 83.4863 52.648C83.4863 52.648 85.4914 52.482 86.7061 53.0011C86.7061 53.0011 85.6364 51.7898 83.1201 52.3407L81.7132 51.2212C81.7132 51.2212 84.3529 50.8681 85.4696 51.2601C85.4696 51.2601 84.1825 50.2006 81.3361 50.967L79.8024 50.077C79.8024 50.077 82.0541 49.6038 83.392 49.7733C83.392 49.7733 81.9779 49.0317 79.3528 49.8369L78.265 49.3566C78.265 49.3566 79.9148 49.0423 80.397 49.0034C80.8793 48.9646 80.9047 48.8233 80.9047 48.8233C79.8605 48.6537 78.7885 48.7698 77.8081 49.1588C77.8081 49.1588 75.4731 48.3007 75.5129 48.1771Z" fill="#C0F1A1"/>
<path opacity="0.1" d="M348.786 35.912C348.786 35.912 362.024 35.1351 360.465 44.1687C360.465 44.1687 360.773 45.7649 359.287 46.4924C359.287 46.4924 359.265 45.8214 357.931 46.0475C357.452 46.1259 356.965 46.1496 356.48 46.1181C355.831 46.0753 355.213 45.8273 354.722 45.4118C354.722 45.4118 351.001 43.9144 349.555 37.9956C349.555 37.9956 348.485 36.7031 348.529 36.3711L350.762 37.2999C350.762 37.2999 349.997 38.8714 350.599 40.1745C350.599 40.1745 350.671 37.3493 351.099 37.4235C351.186 37.4235 352.26 37.9673 352.26 37.9673C352.26 37.9673 350.947 40.7043 351.937 42.689C351.937 42.689 351.574 39.3199 352.662 38.1651L354.236 39.0586C354.236 39.0586 352.702 41.8838 353.743 44.1899C353.743 44.1899 353.474 40.6584 354.566 39.2775L355.991 40.3617C355.991 40.3617 354.54 43.1446 355.429 45.0551C355.429 45.0551 355.545 40.9409 356.299 40.6301C356.299 40.6301 357.546 41.6896 357.749 42.1416C357.749 42.1416 356.759 44.1616 357.387 45.2281C357.387 45.2281 357.749 42.4842 358.072 42.4736C358.072 42.4736 359.312 44.2888 359.443 45.5354C359.376 44.3831 359.001 43.2678 358.355 42.3005C359.071 42.4311 359.732 42.7639 360.255 43.2576C360.255 43.2576 360.063 41.9756 358.047 41.845C358.047 41.845 357.02 40.4677 356.745 40.3829C356.745 40.3829 358.75 40.2204 359.965 40.7361C359.965 40.7361 358.895 39.5247 356.379 40.0757L354.986 38.995C354.986 38.995 357.626 38.6419 358.743 39.0303C358.743 39.0303 357.456 37.9709 354.609 38.7407L353.075 37.8473C353.075 37.8473 355.324 37.374 356.665 37.5471C356.665 37.5471 355.251 36.8019 352.626 37.6071L351.538 37.1304C351.538 37.1304 353.188 36.8125 353.67 36.7772C354.152 36.7419 354.178 36.5971 354.178 36.5971C353.134 36.4274 352.062 36.5436 351.081 36.9326C351.081 36.9326 348.75 36.0568 348.786 35.912Z" fill="#C0F1A1"/>
<path opacity="0.1" d="M138.669 23.5446C138.669 23.5446 148.527 32.1862 140.826 37.4411C140.826 37.4411 139.872 38.776 138.288 38.2569C138.288 38.2569 138.759 37.7696 137.657 37.0032C137.268 36.7276 136.912 36.4088 136.598 36.0532C136.17 35.5737 135.916 34.9708 135.873 34.3369C135.873 34.3369 134.354 30.703 137.686 25.5435C137.686 25.5435 137.882 23.8942 138.154 23.6894L139.042 25.8931C139.042 25.8931 137.36 26.4652 136.827 27.7966C136.827 27.7966 138.937 25.8684 139.187 26.2144C139.242 26.2851 139.604 27.401 139.604 27.401C139.604 27.401 136.696 28.4004 135.946 30.4911C135.946 30.4911 138.143 27.8637 139.767 27.8248L140.217 29.5411C140.217 29.5411 137.073 30.4593 136.12 32.7972C136.12 32.7972 138.516 30.1344 140.289 29.9261L140.496 31.6918C140.496 31.6918 137.45 32.6418 136.667 34.5947C136.667 34.5947 139.76 31.7695 140.518 32.0944C140.518 32.0944 140.609 33.7083 140.42 34.1498C140.42 34.1498 138.244 34.8843 137.9 36.0568C137.9 36.0568 140.17 34.3934 140.395 34.5983C140.395 34.5983 139.938 36.7348 139.118 37.6989C139.916 36.8489 140.473 35.8104 140.732 34.6865C141.138 35.2759 141.359 35.9683 141.366 36.6783C141.366 36.6783 142.168 35.6436 140.837 34.1674C140.837 34.1674 141.123 32.4864 140.993 32.2392C140.993 32.2392 142.519 33.5141 142.987 34.7113C142.987 34.7113 143.125 33.1186 140.953 31.7589L140.786 29.9932C140.786 29.9932 142.893 31.5788 143.393 32.6277C143.393 32.6277 143.274 30.982 140.703 29.5517L140.282 27.8637C140.282 27.8637 142.208 29.0926 143.023 30.145C143.023 30.145 142.574 28.6406 140.141 27.3834L139.717 26.2815C139.717 26.2815 141.105 27.2033 141.479 27.5034C141.852 27.8036 141.968 27.7295 141.968 27.7295C141.36 26.8864 140.522 26.2249 139.55 25.8189C139.55 25.8189 138.538 23.6188 138.669 23.5446Z" fill="#C0F1A1"/>
<path opacity="0.1" d="M276.424 75.8393C276.424 75.8393 286.282 84.4774 278.577 89.7358C278.577 89.7358 277.627 91.0707 276.039 90.5481C276.039 90.5481 276.514 90.0607 275.412 89.2944C275.02 89.0216 274.664 88.7025 274.353 88.3444C273.926 87.8647 273.671 87.262 273.628 86.6281C273.628 86.6281 272.112 82.9977 275.441 77.8346C275.441 77.8346 275.633 76.1854 275.905 75.9806L276.793 78.1842C276.793 78.1842 275.111 78.7563 274.578 80.0877C274.578 80.0877 276.688 78.163 276.942 78.5056C276.993 78.5762 277.359 79.6922 277.359 79.6922C277.359 79.6922 274.455 80.6987 273.69 82.7858C273.69 82.7858 275.891 80.1619 277.511 80.1195L277.961 81.8393C277.961 81.8393 274.821 82.754 273.864 85.0954C273.864 85.0954 276.26 82.4291 278.034 82.2207L278.244 83.9689C278.244 83.9689 275.194 84.9224 274.415 86.8718C274.415 86.8718 277.504 84.0642 278.262 84.3714C278.262 84.3714 278.356 85.9889 278.168 86.4303C278.168 86.4303 275.992 87.1613 275.63 88.3338C275.63 88.3338 277.899 86.6705 278.124 86.8788C278.124 86.8788 277.667 88.9977 276.848 89.976C277.647 89.1262 278.205 88.0878 278.465 86.9636C278.871 87.5532 279.09 88.2456 279.096 88.9554C279.096 88.9554 279.901 87.9206 278.567 86.4444C278.567 86.4444 278.857 84.767 278.722 84.5162C278.722 84.5162 280.249 85.7911 280.72 86.9883C280.72 86.9883 280.854 85.3956 278.686 84.036L278.516 82.2702C278.516 82.2702 280.626 83.8523 281.126 84.9012C281.126 84.9012 281.007 83.2555 278.436 81.8288L278.012 80.1372C278.012 80.1372 279.937 81.3697 280.753 82.4185C280.753 82.4185 280.303 80.9141 277.874 79.6604L277.457 78.5621C277.457 78.5621 278.842 79.4838 279.219 79.7875C279.596 80.0912 279.705 80.0135 279.705 80.0135C279.096 79.17 278.259 78.5074 277.287 78.0995C277.287 78.0995 276.289 75.9099 276.424 75.8393Z" fill="#C0F1A1"/>
<path opacity="0.1" d="M383.468 24.537C383.468 24.537 393.323 33.1751 385.622 38.4335C385.622 38.4335 384.672 39.7684 383.083 39.2458C383.083 39.2458 383.555 38.7584 382.453 37.9921C382.062 37.7174 381.707 37.3985 381.394 37.0421C380.965 36.563 380.711 35.9599 380.669 35.3258C380.669 35.3258 379.149 31.6954 382.482 26.5323C382.482 26.5323 382.677 24.8831 382.949 24.6818L383.838 26.8819C383.838 26.8819 382.155 27.454 381.622 28.7854C381.622 28.7854 383.733 26.8607 383.986 27.2033C384.037 27.2739 384.403 28.3899 384.403 28.3899C384.403 28.3899 381.481 29.3999 380.723 31.48C380.723 31.48 382.92 28.856 384.545 28.8137L384.994 30.5335C384.994 30.5335 381.851 31.4517 380.897 33.7896C380.897 33.7896 383.294 31.1233 385.067 30.9149L385.274 32.663C385.274 32.663 382.228 33.6165 381.448 35.5659C381.448 35.5659 384.537 32.7584 385.295 33.0656C385.295 33.0656 385.386 34.683 385.197 35.1245C385.197 35.1245 383.022 35.8555 382.659 37.0315C382.659 37.0315 384.929 35.3682 385.154 35.573C385.154 35.573 384.697 37.7096 383.878 38.6701C384.677 37.8206 385.233 36.782 385.491 35.6577C385.897 36.2475 386.117 36.9396 386.126 37.6495C386.126 37.6495 386.927 36.6148 385.596 35.1386C385.596 35.1386 385.883 33.4611 385.752 33.2104C385.752 33.2104 387.279 34.4853 387.746 35.6825C387.746 35.6825 387.884 34.0897 385.712 32.7266L385.545 30.9608C385.545 30.9608 387.652 32.5429 388.152 33.5918C388.152 33.5918 388.033 31.9461 385.466 30.5194L385.041 28.8313C385.041 28.8313 386.967 30.0603 387.783 31.1091C387.783 31.1091 387.333 29.6083 384.882 28.351L384.465 27.2527C384.465 27.2527 385.854 28.178 386.227 28.4782C386.601 28.7783 386.717 28.7042 386.717 28.7042C386.108 27.8606 385.271 27.1981 384.298 26.7901C384.298 26.7901 383.334 24.6076 383.468 24.537Z" fill="#C0F1A1"/>
<path opacity="0.1" d="M125.039 62.7797C125.039 62.7797 124.089 75.6627 115.097 72.9682C115.097 72.9682 113.432 73.06 112.889 71.5273C112.889 71.5273 113.574 71.5944 113.519 70.2771C113.501 69.8033 113.541 69.329 113.639 68.8645C113.768 68.2435 114.101 67.6805 114.589 67.2612C114.589 67.2612 116.601 63.8639 122.824 63.2459C122.824 63.2459 124.274 62.3807 124.611 62.4654L123.371 64.4996C123.371 64.4996 121.874 63.5567 120.47 63.9663C120.47 63.9663 123.328 64.4042 123.204 64.8104C123.179 64.8951 122.479 65.8698 122.479 65.8698C122.479 65.8698 119.868 64.2453 117.718 64.941C117.718 64.941 121.195 65.0187 122.225 66.2406L121.108 67.6532C121.108 67.6532 118.436 65.7992 115.952 66.502C115.952 66.502 119.578 66.7068 120.844 67.9428L119.553 69.1753C119.553 69.1753 116.91 67.4096 114.839 68.017C114.839 68.017 119.013 68.6668 119.23 69.4296C119.23 69.4296 117.976 70.489 117.501 70.6162C117.501 70.6162 115.575 69.3978 114.411 69.8498C114.411 69.8498 117.149 70.5738 117.124 70.8704C117.124 70.8704 115.111 71.831 113.828 71.7922C115.007 71.8861 116.191 71.6767 117.261 71.1847C117.033 71.8587 116.607 72.4528 116.036 72.894C116.036 72.894 117.367 72.8763 117.747 70.9481C117.747 70.9481 119.281 70.1359 119.404 69.8887C119.404 69.8887 119.306 71.8451 118.614 72.9505C118.614 72.9505 119.988 72.0782 119.756 69.5744L121.079 68.3631C121.079 68.3631 121.079 70.9587 120.55 71.9864C120.55 71.9864 121.808 70.8846 121.388 68.0311L122.497 66.6679C122.497 66.6679 122.682 68.9034 122.334 70.1747C122.334 70.1747 123.273 68.9069 122.802 66.2689L123.433 65.273C123.433 65.273 123.538 66.9046 123.523 67.3919C123.509 67.8793 123.639 67.9075 123.639 67.9075C123.948 66.9216 123.971 65.8716 123.705 64.8739C123.705 64.8739 124.898 62.7232 125.039 62.7797Z" fill="#C0F1A1"/>
<path opacity="0.1" d="M277.294 48.3147C277.294 48.3147 276.344 61.1977 267.356 58.5031C267.356 58.5031 265.688 58.5914 265.148 57.0623C265.148 57.0623 265.829 57.1258 265.775 55.8086C265.758 55.3348 265.799 54.8607 265.895 54.396C266.023 53.775 266.357 53.212 266.845 52.7927C266.845 52.7927 268.861 49.3953 275.079 48.7773C275.079 48.7773 276.529 47.9156 276.867 47.9969L275.627 50.0345C275.627 50.0345 274.129 49.0916 272.726 49.4978C272.726 49.4978 275.583 49.9392 275.46 50.3453C275.434 50.4265 274.756 51.4048 274.756 51.4048C274.756 51.4048 272.146 49.7767 269.992 50.4725C269.992 50.4725 273.469 50.5501 274.499 51.7756L273.382 53.1882C273.382 53.1882 270.71 51.3341 268.23 52.0369C268.23 52.0369 271.856 52.2453 273.117 53.4778L271.83 54.7138C271.83 54.7138 269.187 52.948 267.117 53.5519C267.117 53.5519 271.29 54.2053 271.508 54.9645C271.508 54.9645 270.253 56.024 269.782 56.1547C269.782 56.1547 267.853 54.9363 266.689 55.3848C266.689 55.3848 269.43 56.1088 269.401 56.4089C269.401 56.4089 267.388 57.3695 266.105 57.3307C267.284 57.4226 268.468 57.2133 269.539 56.7232C269.309 57.3967 268.883 57.9906 268.313 58.4325C268.313 58.4325 269.644 58.4325 270.025 56.4831C270.025 56.4831 271.562 55.6744 271.682 55.4236C271.682 55.4236 271.584 57.3801 270.891 58.4819C270.891 58.4819 272.265 57.6097 272.033 55.1058L273.357 53.8945C273.357 53.8945 273.357 56.4902 272.827 57.5178C272.827 57.5178 274.086 56.416 273.665 53.5625L274.774 52.2029C274.774 52.2029 274.959 54.4348 274.611 55.7062C274.611 55.7062 275.554 54.4383 275.079 51.8003L275.71 50.8044C275.71 50.8044 275.815 52.4395 275.801 52.9233C275.786 53.4071 275.917 53.4389 275.917 53.4389C276.228 52.4533 276.25 51.4028 275.982 50.4054C275.982 50.4054 277.153 48.2547 277.294 48.3147Z" fill="#C0F1A1"/>
<path opacity="0.1" d="M364.74 0.307065C364.74 0.307065 363.793 13.19 354.801 10.4955C354.801 10.4955 353.137 10.5838 352.593 9.05464C352.593 9.05464 353.278 9.11821 353.22 7.80095C353.203 7.32696 353.244 6.85267 353.344 6.38834C353.472 5.76734 353.806 5.20434 354.294 4.78503C354.294 4.78503 356.306 1.38771 362.524 0.769693C362.524 0.769693 363.975 -0.0919977 364.312 -0.0107727L363.075 2.02691C363.075 2.02691 361.578 1.084 360.175 1.49012C360.175 1.49012 363.032 1.93156 362.909 2.33769C362.883 2.41891 362.183 3.39714 362.183 3.39714C362.183 3.39714 359.573 1.76911 357.419 2.46482C357.419 2.46482 360.896 2.54252 361.926 3.76795L360.813 5.18056C360.813 5.18056 358.166 3.32651 355.675 4.03282C355.675 4.03282 359.301 4.24118 360.563 5.47368L359.276 6.70971C359.276 6.70971 356.632 4.94395 354.562 5.54784C354.562 5.54784 358.732 6.20117 358.949 6.96045C358.949 6.96045 357.695 8.0199 357.223 8.15057C357.223 8.15057 355.298 6.9322 354.13 7.3807C354.13 7.3807 356.872 8.10466 356.843 8.40484C356.843 8.40484 354.83 9.36541 353.547 9.32657C354.726 9.41854 355.91 9.20917 356.98 8.71914C356.752 9.39344 356.326 9.98775 355.755 10.4284C355.755 10.4284 357.089 10.4284 357.466 8.479C357.466 8.479 359.004 7.67028 359.123 7.41955C359.123 7.41955 359.029 9.37601 358.333 10.4778C358.333 10.4778 359.707 9.60556 359.479 7.10171L360.802 5.8904C360.802 5.8904 360.802 8.48606 360.269 9.51374C360.269 9.51374 361.531 8.4119 361.11 5.55843L362.22 4.1988C362.22 4.1988 362.405 6.43072 362.053 7.70207C362.053 7.70207 362.996 6.43425 362.521 3.79621L363.152 2.80032C363.152 2.80032 363.257 4.43541 363.246 4.91923C363.235 5.40305 363.362 5.43483 363.362 5.43483C363.671 4.44889 363.693 3.39893 363.427 2.40126C363.427 2.40126 364.616 0.247029 364.74 0.307065Z" fill="#C0F1A1"/>
<path opacity="0.1" d="M280.288 210.92L293.305 211.46" stroke="black" stroke-miterlimit="10"/>
<path opacity="0.1" d="M278.171 213.184L291.188 213.724" stroke="black" stroke-miterlimit="10"/>
<path opacity="0.1" d="M276.054 215.444L289.071 215.984" stroke="black" stroke-miterlimit="10"/>
<path opacity="0.1" d="M273.933 217.707L286.95 218.248" stroke="black" stroke-miterlimit="10"/>
<path opacity="0.1" d="M271.815 219.968L284.832 220.511" stroke="black" stroke-miterlimit="10"/>
<path opacity="0.1" d="M269.698 222.232L282.715 222.772" stroke="black" stroke-miterlimit="10"/>
<path opacity="0.1" d="M267.577 224.495L280.594 225.035" stroke="black" stroke-miterlimit="10"/>
<path opacity="0.1" d="M265.46 226.755L278.477 227.295" stroke="black" stroke-miterlimit="10"/>
</g>
<defs>
<linearGradient id="paint0_linear_593_1029" x1="189.479" y1="289.302" x2="189.479" y2="30.6076" gradientUnits="userSpaceOnUse">
<stop stop-color="#808080" stop-opacity="0.25"/>
<stop offset="0.54" stop-color="#808080" stop-opacity="0.12"/>
<stop offset="1" stop-color="#808080" stop-opacity="0.1"/>
</linearGradient>
<clipPath id="clip0_593_1029">
<rect width="393" height="292" fill="white"/>
</clipPath>
</defs>
</svg>
