<svg width="810" height="576" viewBox="0 0 810 576" fill="none" xmlns="http://www.w3.org/2000/svg">
<path d="M558.989 574.086H206.75V576H558.989V574.086Z" fill="#3F3D56"/>
<path d="M427.328 166.577L439.658 198.469L471.595 265.797C471.595 265.797 504.312 309.701 486.993 313.006C469.674 316.31 458.426 273.426 458.426 273.426L413.799 204.417L427.328 166.577Z" fill="#D5A495"/>
<path d="M401.853 95.6222C416.665 95.6222 428.673 83.6293 428.673 68.8353C428.673 54.0413 416.665 42.0484 401.853 42.0484C387.041 42.0484 375.033 54.0413 375.033 68.8353C375.033 83.6293 387.041 95.6222 401.853 95.6222Z" fill="#D5A495"/>
<path d="M381.291 78.6571C381.291 78.6571 382.185 108.123 370.563 114.373C370.563 114.373 394.701 113.48 407.217 133.124H418.839C418.839 133.124 400.959 120.623 409.899 90.2648L381.291 78.6571Z" fill="#D5A495"/>
<path d="M510.027 455.459C510.027 455.459 453.705 468.852 413.475 452.78C373.245 436.708 368.775 447.423 330.333 451.887C291.891 456.352 314.241 435.815 314.241 435.815C314.241 435.815 379.503 266.165 389.337 248.307C399.171 230.449 394.701 218.842 394.701 218.842L375.927 192.948C375.927 192.948 371.529 181.67 366.79 168.572C361.301 153.375 355.365 135.722 355.365 130.445C355.365 124.659 361.855 119.079 367.193 115.48C369.398 113.983 371.694 112.623 374.068 111.409C385.609 108.444 411.687 127.766 411.687 127.766C411.687 127.766 418.839 133.124 437.613 146.517C456.387 159.911 448.341 187.59 448.341 187.59L453.705 259.915C489.465 295.631 510.027 455.459 510.027 455.459Z" fill="#C6C99D"/>
<path d="M381.291 122.409C381.291 122.409 365.199 103.658 352.683 141.16C340.167 178.661 337.485 208.127 337.485 208.127L314.241 285.809C314.241 285.809 289.209 327.775 307.983 330.454C326.757 333.132 332.121 285.809 332.121 285.809L378.609 162.589C378.609 162.589 393.807 134.91 381.291 122.409Z" fill="#D5A495"/>
<path d="M329.439 442.066L305.301 479.567C305.301 479.567 282.951 482.246 280.269 496.532C277.587 510.819 269.541 518.855 269.541 518.855L273.117 522.426L290.103 510.819L291.891 534.034C291.891 534.034 301.725 561.714 317.817 555.463C333.909 549.213 315.135 530.462 315.135 530.462L324.075 499.211L374.139 436.708L329.439 442.066Z" fill="#2F2E41"/>
<path d="M460.857 451.887L475.161 516.176C475.161 516.176 464.433 535.82 469.797 548.32C475.161 560.821 475.161 575.107 475.161 575.107H483.207L486.783 553.678L506.451 574.214C506.451 574.214 549.363 581.357 549.363 567.071C549.363 552.785 526.119 552.785 526.119 552.785L504.663 517.069L495.723 451.887H460.857Z" fill="#2F2E41"/>
<path d="M388.417 28.6387C389.886 28.6416 391.351 28.7871 392.791 29.0731C395.394 27.8113 398.248 27.1542 401.141 27.151H401.899C416.511 27.151 428.357 40.357 428.357 56.6474L423.461 56.6475L422.67 50.6363L421.511 56.6475H417.432C406.789 61.2471 412.541 101.444 419.326 101.448H411.924L407.638 90.3241L408.709 101.448H361.128L357.232 91.3354L358.206 101.448H352.849V77.8747C352.849 50.6825 368.773 28.6387 388.417 28.6387Z" fill="#2F2E41"/>
</svg>
