<svg width="253" height="551" viewBox="0 0 253 551" fill="none" xmlns="http://www.w3.org/2000/svg">
<g clip-path="url(#clip0_390_251)">
<path d="M252.911 547.686H0.297363V550.373H252.911V547.686Z" fill="#2F2E41"/>
<path d="M252.788 0.681641H0.693848V252.758H252.788V0.681641Z" fill="#036751"/>
<path d="M122.185 18.904C122.184 33.1058 118.425 47.0545 111.29 59.334C104.154 71.6136 93.8969 81.7867 81.5585 88.8207C69.2201 95.8546 55.2401 99.499 41.0378 99.3837C26.8354 99.2684 12.9164 95.3976 0.693848 88.1643V0.681519H120.104C121.494 6.65582 122.192 12.7702 122.185 18.904Z" fill="#D5A495"/>
<path d="M187.486 117.609C214.325 117.609 236.083 95.853 236.083 69.0157C236.083 42.1785 214.325 20.4226 187.486 20.4226C160.647 20.4226 138.89 42.1785 138.89 69.0157C138.89 95.853 160.647 117.609 187.486 117.609Z" fill="#D5A495"/>
<path d="M78.144 207.202C97.4346 207.202 113.073 191.565 113.073 172.276C113.073 152.987 97.4346 137.35 78.144 137.35C58.8535 137.35 43.2153 152.987 43.2153 172.276C43.2153 191.565 58.8535 207.202 78.144 207.202Z" fill="#D5A495"/>
<path d="M252.788 211.454V252.758H202.809C200.687 246.114 200.603 238.987 202.567 232.295C204.531 225.602 208.454 219.651 213.831 215.208C219.208 210.765 225.791 208.032 232.734 207.363C239.677 206.694 246.662 208.119 252.788 211.454Z" fill="#D5A495"/>
<path d="M166.225 179.869C171.257 179.869 175.337 175.789 175.337 170.758C175.337 165.726 171.257 161.646 166.225 161.646C161.193 161.646 157.113 165.726 157.113 170.758C157.113 175.789 161.193 179.869 166.225 179.869Z" fill="#D5A495"/>
<path d="M112.627 134.156C124.632 134.156 134.365 124.424 134.365 112.42C134.365 100.415 124.632 90.684 112.627 90.684C100.622 90.684 90.8896 100.415 90.8896 112.42C90.8896 124.424 100.622 134.156 112.627 134.156Z" fill="#D5A495"/>
<path d="M101.186 122.716C101.186 122.716 106.906 152.46 104.618 158.18C102.33 163.9 136.652 155.892 136.652 155.892C136.652 155.892 129.788 126.148 130.932 119.284C132.076 112.42 101.186 122.716 101.186 122.716Z" fill="#D5A495"/>
<path d="M63.4321 225.676L65.72 256.564L77.0759 305.073L80.5928 318.34L86.3134 297.748L80.5928 250.844L78.6499 229.727L63.4321 225.676Z" fill="#D5A495"/>
<path d="M183.56 221.1V253.132C183.56 253.132 180.127 294.316 173.263 304.612C166.399 314.908 164.11 263.428 164.11 263.428L169.489 225.676L183.56 221.1Z" fill="#D5A495"/>
<path d="M81.7369 320.628C81.7369 320.628 76.0165 327.492 80.5928 397.276C85.1692 467.06 78.3047 517.396 93.1777 517.396C93.1777 517.396 88.6014 532.268 101.186 533.412C113.771 534.556 119.492 535.7 120.636 532.268C121.78 528.836 124.068 512.82 120.636 512.82C120.636 512.82 120.636 517.396 122.924 499.092C125.212 480.788 125.212 393.844 130.932 382.404L149.238 424.732C149.238 424.732 149.237 444.18 152.67 453.332C156.102 462.484 161.822 515.108 161.822 515.108L160.678 523.116C160.678 523.116 188.136 527.692 189.28 523.116C190.424 518.54 190.424 511.676 189.28 509.388C188.136 507.1 188.136 507.1 190.424 502.524C192.712 497.948 192.712 494.516 191.568 491.084C190.424 487.652 190.424 413.292 190.424 413.292C190.424 413.292 188.136 322.916 174.407 318.34C160.678 313.764 81.7369 320.628 81.7369 320.628Z" fill="#2F2E41"/>
<path d="M96.6098 524.26L87.4572 540.276C87.4572 540.276 73.1562 535.128 76.0164 548.284C100.614 550 117.775 547.712 117.775 547.712C117.775 547.712 123.496 550 124.64 546.568C125.784 543.136 121.78 531.124 118.347 531.124C114.915 531.124 96.6098 524.26 96.6098 524.26Z" fill="#939292"/>
<path d="M162.967 519.684C162.967 519.684 153.814 540.276 157.246 541.42C160.678 542.564 191.568 547.14 193.857 548.284C196.145 549.428 207.586 550.572 208.73 543.708C209.874 536.844 203.009 534.556 203.009 534.556C203.009 534.556 190.424 532.268 186.992 520.828C183.56 509.388 162.967 519.684 162.967 519.684Z" fill="#939292"/>
<path d="M138.941 152.46C138.941 152.46 108.051 146.74 101.186 152.46C94.3216 158.18 65.7197 169.62 65.7197 175.34C65.7197 181.06 80.5927 237.116 80.5927 237.116C80.5927 237.116 72.5842 321.772 80.5927 324.06C88.6013 326.348 102.33 319.484 118.347 327.492C134.364 335.5 180.127 320.628 180.127 320.628C180.127 320.628 162.966 247.412 167.543 233.684C172.119 219.956 175.551 173.052 175.551 173.052C175.551 173.052 156.102 152.46 138.941 152.46Z" fill="#C6C99D"/>
<path d="M73.7283 171.908L65.7197 174.196C65.7197 174.196 48.5586 227.964 55.423 230.252C62.2875 232.54 81.7368 237.116 84.025 237.116C86.3131 237.116 73.7283 171.908 73.7283 171.908Z" fill="#C6C99D"/>
<path d="M157.246 166.188L175.551 173.052C175.551 173.052 199.577 217.668 193.857 223.388C188.136 229.108 162.966 234.828 162.966 234.828L157.246 166.188Z" fill="#C6C99D"/>
<path d="M111.967 85.5729C110.159 85.2454 108.301 85.3274 106.529 85.813C105.111 86.4409 103.805 87.2972 102.665 88.3477C100.595 89.9973 98.3837 91.462 96.0574 92.7249C94.2035 93.7313 92.2107 94.6628 90.9165 96.3284C90.3046 97.1702 89.816 98.0949 89.4655 99.0748C87.2358 104.768 86.6366 110.971 87.7351 116.986C87.8585 117.84 88.1157 118.67 88.4971 119.445C89.6862 121.636 92.3125 122.499 94.5249 123.648C98.7252 125.828 101.909 129.499 105.354 132.744C106.634 134.021 108.072 135.129 109.633 136.041C114.548 138.72 120.556 137.846 126.073 136.899C126.464 136.898 126.851 136.82 127.211 136.669C127.572 136.518 127.899 136.297 128.174 136.019C128.449 135.741 128.666 135.411 128.813 135.049C128.96 134.687 129.033 134.299 129.03 133.908L133.385 114.322C134.174 111.42 134.55 108.422 134.501 105.415C134.197 100.66 131.623 94.0741 128.133 90.6968C124.067 86.7617 117.282 86.1355 111.967 85.5729Z" fill="#2F2E41"/>
</g>
<defs>
<clipPath id="clip0_390_251">
<rect width="253" height="551" fill="white"/>
</clipPath>
</defs>
</svg>
